STARTFONT 2.1
FONT -FontForge-Rajdhani-Book-R-Normal--18-180-72-72-P-110-ISO10646-1
SIZE 18 72 72
FONTBOUNDINGBOX 43 22 -7 -6
COMMENT "Generated by fontforge, http://fontforge.sourceforge.net"
COMMENT "Copyright (c) 2014 Indian Type Foundry (info@indiantypefoundry.com)"
STARTPROPERTIES 40
FOUNDRY "FontForge"
FAMILY_NAME "Rajdhani"
WEIGHT_NAME "Book"
SLANT "R"
SETWIDTH_NAME "Normal"
ADD_STYLE_NAME ""
PIXEL_SIZE 18
POINT_SIZE 180
RESOLUTION_X 72
RESOLUTION_Y 72
SPACING "P"
AVERAGE_WIDTH 110
CHARSET_REGISTRY "ISO10646"
CHARSET_ENCODING "1"
FONTNAME_REGISTRY ""
CHARSET_COLLECTIONS "ISO8859-2 ISO8859-9 ISO8859-4 ISO10646-1"
FONT_NAME "Rajdhani-Regular"
FACE_NAME "Rajdhani Regular"
COPYRIGHT "Copyright (c) 2014 Indian Type Foundry (info@indiantypefoundry.com)"
FONT_VERSION "1.201;PS 1.0;hotconv 1.0.78;makeotf.lib2.5.61930; ttfautohint (v1.1) -l 7 -r 28 -G 50 -x 13 -D latn -f deva -w G"
FONT_ASCENT 14
FONT_DESCENT 4
UNDERLINE_POSITION -2
UNDERLINE_THICKNESS 1
X_HEIGHT 8
CAP_HEIGHT 10
DEFAULT_CHAR 3
RAW_ASCENT 800
RAW_DESCENT 200
NORM_SPACE 5
RELATIVE_WEIGHT 40
RELATIVE_SETWIDTH 50
SUPERSCRIPT_X 0
SUPERSCRIPT_Y 6
SUPERSCRIPT_SIZE 10
SUBSCRIPT_X 0
SUBSCRIPT_Y 1
SUBSCRIPT_SIZE 10
AVG_LOWERCASE_WIDTH 81
AVG_UPPERCASE_WIDTH 94
ENDPROPERTIES
CHARS 1043
STARTCHAR NULL.dup1
ENCODING 0
SWIDTH 0 0
DWIDTH 0 0
BBX 1 1 0 0
BITMAP
00
ENDCHAR
STARTCHAR CR
ENCODING 13
SWIDTH 0 0
DWIDTH 0 0
BBX 1 1 0 0
BITMAP
00
ENDCHAR
STARTCHAR space
ENCODING 32
SWIDTH 267 0
DWIDTH 5 0
BBX 1 1 0 0
BITMAP
00
ENDCHAR
STARTCHAR exclam
ENCODING 33
SWIDTH 237 0
DWIDTH 4 0
BBX 1 11 2 0
BITMAP
80
80
80
80
80
80
80
80
80
80
80
ENDCHAR
STARTCHAR quotedbl
ENCODING 34
SWIDTH 330 0
DWIDTH 6 0
BBX 4 4 1 7
BITMAP
90
90
90
90
ENDCHAR
STARTCHAR numbersign
ENCODING 35
SWIDTH 677 0
DWIDTH 12 0
BBX 10 11 1 0
BITMAP
0880
0880
7FC0
1100
1100
2100
2200
FF80
2200
4400
4400
ENDCHAR
STARTCHAR dollar
ENCODING 36
SWIDTH 504 0
DWIDTH 9 0
BBX 7 14 1 -1
BITMAP
10
10
7C
82
82
80
80
7C
02
02
82
82
7C
10
ENDCHAR
STARTCHAR percent
ENCODING 37
SWIDTH 717 0
DWIDTH 13 0
BBX 11 11 1 0
BITMAP
F100
8900
8A00
8A00
7400
0400
09C0
0A20
0A20
1220
11E0
ENDCHAR
STARTCHAR ampersand
ENCODING 38
SWIDTH 597 0
DWIDTH 11 0
BBX 9 11 1 0
BITMAP
3C00
4200
4200
4000
2000
7000
9F80
8800
8400
8200
7D80
ENDCHAR
STARTCHAR quotesingle
ENCODING 39
SWIDTH 186 0
DWIDTH 3 0
BBX 1 3 1 8
BITMAP
80
80
80
ENDCHAR
STARTCHAR parenleft
ENCODING 40
SWIDTH 283 0
DWIDTH 5 0
BBX 3 13 1 -2
BITMAP
60
80
80
80
80
80
80
80
80
80
80
80
60
ENDCHAR
STARTCHAR parenright
ENCODING 41
SWIDTH 283 0
DWIDTH 5 0
BBX 3 13 1 -2
BITMAP
C0
20
20
20
20
20
20
20
20
20
20
20
C0
ENDCHAR
STARTCHAR asterisk
ENCODING 42
SWIDTH 406 0
DWIDTH 7 0
BBX 5 4 1 7
BITMAP
20
F8
20
50
ENDCHAR
STARTCHAR plus
ENCODING 43
SWIDTH 523 0
DWIDTH 9 0
BBX 7 7 1 2
BITMAP
10
10
10
FE
10
10
10
ENDCHAR
STARTCHAR comma
ENCODING 44
SWIDTH 191 0
DWIDTH 3 0
BBX 1 4 1 -1
BITMAP
80
80
80
80
ENDCHAR
STARTCHAR hyphen
ENCODING 45
SWIDTH 312 0
DWIDTH 6 0
BBX 4 1 1 5
BITMAP
F0
ENDCHAR
STARTCHAR period
ENCODING 46
SWIDTH 191 0
DWIDTH 3 0
BBX 1 3 1 0
BITMAP
80
80
80
ENDCHAR
STARTCHAR slash
ENCODING 47
SWIDTH 396 0
DWIDTH 7 0
BBX 5 11 1 0
BITMAP
08
08
10
10
20
20
20
40
40
40
80
ENDCHAR
STARTCHAR zero
ENCODING 48
SWIDTH 514 0
DWIDTH 9 0
BBX 7 11 1 0
BITMAP
7C
82
82
82
82
82
82
82
82
82
7C
ENDCHAR
STARTCHAR one
ENCODING 49
SWIDTH 317 0
DWIDTH 6 0
BBX 3 11 1 0
BITMAP
20
E0
20
20
20
20
20
20
20
20
20
ENDCHAR
STARTCHAR two
ENCODING 50
SWIDTH 478 0
DWIDTH 9 0
BBX 7 11 1 0
BITMAP
7C
84
82
02
04
08
30
40
80
80
FE
ENDCHAR
STARTCHAR three
ENCODING 51
SWIDTH 496 0
DWIDTH 9 0
BBX 7 11 1 0
BITMAP
7C
82
82
02
02
1C
02
02
82
82
7C
ENDCHAR
STARTCHAR four
ENCODING 52
SWIDTH 520 0
DWIDTH 9 0
BBX 8 11 1 0
BITMAP
04
0C
14
14
24
44
44
84
FF
04
04
ENDCHAR
STARTCHAR five
ENCODING 53
SWIDTH 482 0
DWIDTH 9 0
BBX 7 11 1 0
BITMAP
FC
80
80
80
FC
86
02
02
82
82
7C
ENDCHAR
STARTCHAR six
ENCODING 54
SWIDTH 497 0
DWIDTH 9 0
BBX 7 11 1 0
BITMAP
7C
80
80
80
FC
82
82
82
82
82
7C
ENDCHAR
STARTCHAR seven
ENCODING 55
SWIDTH 380 0
DWIDTH 7 0
BBX 6 11 0 0
BITMAP
FC
04
04
08
08
08
10
10
20
20
20
ENDCHAR
STARTCHAR eight
ENCODING 56
SWIDTH 519 0
DWIDTH 9 0
BBX 7 11 1 0
BITMAP
7C
82
82
82
82
7C
82
82
82
82
7C
ENDCHAR
STARTCHAR nine
ENCODING 57
SWIDTH 497 0
DWIDTH 9 0
BBX 7 11 1 0
BITMAP
7C
82
82
82
82
82
7E
02
02
02
7C
ENDCHAR
STARTCHAR colon
ENCODING 58
SWIDTH 191 0
DWIDTH 3 0
BBX 1 9 1 0
BITMAP
80
80
80
00
00
00
80
80
80
ENDCHAR
STARTCHAR semicolon
ENCODING 59
SWIDTH 191 0
DWIDTH 3 0
BBX 1 11 1 -2
BITMAP
80
80
80
00
00
00
00
80
80
80
80
ENDCHAR
STARTCHAR less
ENCODING 60
SWIDTH 513 0
DWIDTH 9 0
BBX 7 6 1 3
BITMAP
02
0C
70
C0
38
06
ENDCHAR
STARTCHAR equal
ENCODING 61
SWIDTH 531 0
DWIDTH 10 0
BBX 7 4 1 4
BITMAP
FE
00
00
FE
ENDCHAR
STARTCHAR greater
ENCODING 62
SWIDTH 531 0
DWIDTH 10 0
BBX 7 6 1 3
BITMAP
80
70
0C
02
1C
E0
ENDCHAR
STARTCHAR question
ENCODING 63
SWIDTH 473 0
DWIDTH 9 0
BBX 6 11 1 0
BITMAP
78
84
84
04
08
10
10
00
10
10
10
ENDCHAR
STARTCHAR at
ENCODING 64
SWIDTH 753 0
DWIDTH 14 0
BBX 11 12 1 -1
BITMAP
1FC0
2020
4020
8F20
9120
9120
9120
9120
9120
4EC0
2000
1F00
ENDCHAR
STARTCHAR A
ENCODING 65
SWIDTH 533 0
DWIDTH 10 0
BBX 8 11 1 0
BITMAP
18
18
28
24
24
44
42
7E
82
81
81
ENDCHAR
STARTCHAR B
ENCODING 66
SWIDTH 546 0
DWIDTH 10 0
BBX 7 11 2 0
BITMAP
FC
84
84
84
84
F8
84
82
82
84
FC
ENDCHAR
STARTCHAR C
ENCODING 67
SWIDTH 542 0
DWIDTH 10 0
BBX 8 11 1 0
BITMAP
7E
81
81
80
80
80
80
80
81
81
7E
ENDCHAR
STARTCHAR D
ENCODING 68
SWIDTH 557 0
DWIDTH 10 0
BBX 7 11 2 0
BITMAP
FC
82
82
82
82
82
82
82
82
82
FC
ENDCHAR
STARTCHAR E
ENCODING 69
SWIDTH 481 0
DWIDTH 9 0
BBX 5 11 2 0
BITMAP
F8
80
80
80
80
F8
80
80
80
80
F8
ENDCHAR
STARTCHAR F
ENCODING 70
SWIDTH 459 0
DWIDTH 8 0
BBX 5 11 2 0
BITMAP
F8
80
80
80
80
F8
80
80
80
80
80
ENDCHAR
STARTCHAR G
ENCODING 71
SWIDTH 539 0
DWIDTH 10 0
BBX 7 11 1 0
BITMAP
7E
82
82
80
80
8E
82
82
82
82
7C
ENDCHAR
STARTCHAR H
ENCODING 72
SWIDTH 570 0
DWIDTH 10 0
BBX 7 11 2 0
BITMAP
82
82
82
82
82
FE
82
82
82
82
82
ENDCHAR
STARTCHAR I
ENCODING 73
SWIDTH 230 0
DWIDTH 4 0
BBX 1 11 2 0
BITMAP
80
80
80
80
80
80
80
80
80
80
80
ENDCHAR
STARTCHAR J
ENCODING 74
SWIDTH 499 0
DWIDTH 9 0
BBX 7 11 1 0
BITMAP
02
02
02
02
02
02
02
82
82
84
7C
ENDCHAR
STARTCHAR K
ENCODING 75
SWIDTH 530 0
DWIDTH 10 0
BBX 7 11 2 0
BITMAP
86
88
88
90
A0
E0
90
88
88
84
82
ENDCHAR
STARTCHAR L
ENCODING 76
SWIDTH 451 0
DWIDTH 8 0
BBX 6 11 2 0
BITMAP
80
80
80
80
80
80
80
80
80
80
FC
ENDCHAR
STARTCHAR M
ENCODING 77
SWIDTH 696 0
DWIDTH 13 0
BBX 9 11 2 0
BITMAP
8080
8180
C180
C280
A280
A480
9480
9880
8880
8080
8080
ENDCHAR
STARTCHAR N
ENCODING 78
SWIDTH 579 0
DWIDTH 10 0
BBX 7 11 2 0
BITMAP
82
82
C2
C2
A2
92
92
8A
86
86
82
ENDCHAR
STARTCHAR O
ENCODING 79
SWIDTH 553 0
DWIDTH 10 0
BBX 8 11 1 0
BITMAP
7E
82
81
81
81
81
81
81
81
82
7E
ENDCHAR
STARTCHAR P
ENCODING 80
SWIDTH 524 0
DWIDTH 9 0
BBX 6 11 2 0
BITMAP
FC
84
84
84
84
84
F8
80
80
80
80
ENDCHAR
STARTCHAR Q
ENCODING 81
SWIDTH 556 0
DWIDTH 10 0
BBX 8 13 1 -2
BITMAP
7E
42
81
81
81
81
81
81
81
43
7E
04
06
ENDCHAR
STARTCHAR R
ENCODING 82
SWIDTH 534 0
DWIDTH 10 0
BBX 7 11 2 0
BITMAP
FC
84
84
84
84
F8
88
88
84
84
86
ENDCHAR
STARTCHAR S
ENCODING 83
SWIDTH 562 0
DWIDTH 10 0
BBX 8 11 1 0
BITMAP
7E
42
81
80
40
3C
02
01
81
43
7E
ENDCHAR
STARTCHAR T
ENCODING 84
SWIDTH 420 0
DWIDTH 8 0
BBX 7 11 0 0
BITMAP
FE
10
10
10
10
10
10
10
10
10
10
ENDCHAR
STARTCHAR U
ENCODING 85
SWIDTH 552 0
DWIDTH 10 0
BBX 8 11 1 0
BITMAP
81
81
81
81
81
81
81
81
81
42
7E
ENDCHAR
STARTCHAR V
ENCODING 86
SWIDTH 500 0
DWIDTH 9 0
BBX 9 11 0 0
BITMAP
C180
4100
4100
2200
2200
2200
2200
1400
1400
1400
0800
ENDCHAR
STARTCHAR W
ENCODING 87
SWIDTH 794 0
DWIDTH 14 0
BBX 13 11 1 0
BITMAP
8608
8610
8610
8510
4910
4910
48A0
50A0
50A0
30A0
3040
ENDCHAR
STARTCHAR X
ENCODING 88
SWIDTH 504 0
DWIDTH 9 0
BBX 7 11 1 0
BITMAP
82
44
44
28
28
10
28
28
44
82
82
ENDCHAR
STARTCHAR Y
ENCODING 89
SWIDTH 493 0
DWIDTH 9 0
BBX 8 11 0 0
BITMAP
C1
41
22
22
14
14
08
08
08
08
08
ENDCHAR
STARTCHAR Z
ENCODING 90
SWIDTH 482 0
DWIDTH 9 0
BBX 7 11 1 0
BITMAP
FE
04
04
08
10
10
20
60
40
80
FE
ENDCHAR
STARTCHAR bracketleft
ENCODING 91
SWIDTH 287 0
DWIDTH 5 0
BBX 3 13 1 -2
BITMAP
E0
80
80
80
80
80
80
80
80
80
80
80
E0
ENDCHAR
STARTCHAR backslash
ENCODING 92
SWIDTH 396 0
DWIDTH 7 0
BBX 5 11 1 0
BITMAP
80
40
40
40
20
20
20
10
10
08
08
ENDCHAR
STARTCHAR bracketright
ENCODING 93
SWIDTH 287 0
DWIDTH 5 0
BBX 3 13 1 -2
BITMAP
E0
20
20
20
20
20
20
20
20
20
20
20
E0
ENDCHAR
STARTCHAR asciicircum
ENCODING 94
SWIDTH 465 0
DWIDTH 8 0
BBX 6 5 1 6
BITMAP
30
28
48
44
84
ENDCHAR
STARTCHAR underscore
ENCODING 95
SWIDTH 372 0
DWIDTH 7 0
BBX 7 1 0 -2
BITMAP
FE
ENDCHAR
STARTCHAR grave
ENCODING 96
SWIDTH 269 0
DWIDTH 5 0
BBX 3 2 1 10
BITMAP
C0
60
ENDCHAR
STARTCHAR a
ENCODING 97
SWIDTH 502 0
DWIDTH 9 0
BBX 7 9 1 0
BITMAP
7E
82
82
82
82
82
82
86
7A
ENDCHAR
STARTCHAR b
ENCODING 98
SWIDTH 504 0
DWIDTH 9 0
BBX 7 12 1 0
BITMAP
80
80
80
BC
C2
82
82
82
82
82
82
FC
ENDCHAR
STARTCHAR c
ENCODING 99
SWIDTH 394 0
DWIDTH 7 0
BBX 5 9 1 0
BITMAP
78
80
80
80
80
80
80
80
78
ENDCHAR
STARTCHAR d
ENCODING 100
SWIDTH 504 0
DWIDTH 9 0
BBX 7 12 1 0
BITMAP
02
02
02
7A
86
82
82
82
82
82
82
7E
ENDCHAR
STARTCHAR e
ENCODING 101
SWIDTH 492 0
DWIDTH 9 0
BBX 7 9 1 0
BITMAP
7C
82
82
82
FE
80
80
80
7E
ENDCHAR
STARTCHAR f
ENCODING 102
SWIDTH 303 0
DWIDTH 5 0
BBX 4 12 1 0
BITMAP
30
40
40
F0
40
40
40
40
40
40
40
40
ENDCHAR
STARTCHAR g
ENCODING 103
SWIDTH 506 0
DWIDTH 9 0
BBX 7 11 1 -2
BITMAP
7E
82
82
82
82
82
86
7A
02
02
7C
ENDCHAR
STARTCHAR h
ENCODING 104
SWIDTH 507 0
DWIDTH 9 0
BBX 7 12 1 0
BITMAP
80
80
80
BC
C2
82
82
82
82
82
82
82
ENDCHAR
STARTCHAR i
ENCODING 105
SWIDTH 210 0
DWIDTH 4 0
BBX 1 12 1 0
BITMAP
80
80
00
80
80
80
80
80
80
80
80
80
ENDCHAR
STARTCHAR j
ENCODING 106
SWIDTH 210 0
DWIDTH 4 0
BBX 3 14 -1 -2
BITMAP
20
20
00
20
20
20
20
20
20
20
20
20
20
C0
ENDCHAR
STARTCHAR k
ENCODING 107
SWIDTH 431 0
DWIDTH 8 0
BBX 7 12 1 0
BITMAP
80
80
80
84
88
88
90
A0
90
88
84
86
ENDCHAR
STARTCHAR l
ENCODING 108
SWIDTH 210 0
DWIDTH 4 0
BBX 1 12 1 0
BITMAP
80
80
80
80
80
80
80
80
80
80
80
80
ENDCHAR
STARTCHAR m
ENCODING 109
SWIDTH 769 0
DWIDTH 14 0
BBX 12 9 1 0
BITMAP
BDE0
C620
8410
8410
8410
8410
8410
8410
8410
ENDCHAR
STARTCHAR n
ENCODING 110
SWIDTH 507 0
DWIDTH 9 0
BBX 7 9 1 0
BITMAP
BC
C2
82
82
82
82
82
82
82
ENDCHAR
STARTCHAR o
ENCODING 111
SWIDTH 496 0
DWIDTH 9 0
BBX 7 9 1 0
BITMAP
7C
82
82
82
82
82
82
82
7C
ENDCHAR
STARTCHAR p
ENCODING 112
SWIDTH 504 0
DWIDTH 9 0
BBX 7 11 1 -2
BITMAP
BC
C2
82
82
82
82
82
C2
BC
80
80
ENDCHAR
STARTCHAR q
ENCODING 113
SWIDTH 502 0
DWIDTH 9 0
BBX 7 11 1 -2
BITMAP
7E
82
82
82
82
82
82
86
7A
02
02
ENDCHAR
STARTCHAR r
ENCODING 114
SWIDTH 313 0
DWIDTH 6 0
BBX 4 9 1 0
BITMAP
B0
C0
80
80
80
80
80
80
80
ENDCHAR
STARTCHAR s
ENCODING 115
SWIDTH 431 0
DWIDTH 8 0
BBX 6 9 1 0
BITMAP
78
80
80
C0
38
04
04
04
F8
ENDCHAR
STARTCHAR t
ENCODING 116
SWIDTH 347 0
DWIDTH 6 0
BBX 6 11 0 0
BITMAP
20
20
F8
20
20
20
20
20
20
20
1C
ENDCHAR
STARTCHAR u
ENCODING 117
SWIDTH 507 0
DWIDTH 9 0
BBX 7 9 1 0
BITMAP
82
82
82
82
82
82
82
82
7E
ENDCHAR
STARTCHAR v
ENCODING 118
SWIDTH 416 0
DWIDTH 7 0
BBX 7 9 0 0
BITMAP
82
42
44
44
24
28
28
18
10
ENDCHAR
STARTCHAR w
ENCODING 119
SWIDTH 683 0
DWIDTH 12 0
BBX 12 9 0 0
BITMAP
8210
4610
4620
4520
2920
2940
2940
28C0
1080
ENDCHAR
STARTCHAR x
ENCODING 120
SWIDTH 413 0
DWIDTH 7 0
BBX 7 9 0 0
BITMAP
42
44
28
28
10
28
24
44
C2
ENDCHAR
STARTCHAR y
ENCODING 121
SWIDTH 459 0
DWIDTH 8 0
BBX 7 11 1 -2
BITMAP
82
84
84
44
48
48
30
30
10
20
C0
ENDCHAR
STARTCHAR z
ENCODING 122
SWIDTH 405 0
DWIDTH 7 0
BBX 6 9 1 0
BITMAP
FC
08
10
10
20
60
40
80
FC
ENDCHAR
STARTCHAR braceleft
ENCODING 123
SWIDTH 298 0
DWIDTH 5 0
BBX 3 13 1 -2
BITMAP
20
40
40
40
40
40
80
40
40
40
40
40
20
ENDCHAR
STARTCHAR bar
ENCODING 124
SWIDTH 207 0
DWIDTH 4 0
BBX 1 11 1 0
BITMAP
80
80
80
80
80
80
80
80
80
80
80
ENDCHAR
STARTCHAR braceright
ENCODING 125
SWIDTH 298 0
DWIDTH 5 0
BBX 3 13 1 -2
BITMAP
80
40
40
40
40
40
20
40
40
40
40
40
80
ENDCHAR
STARTCHAR asciitilde
ENCODING 126
SWIDTH 523 0
DWIDTH 9 0
BBX 7 1 1 5
BITMAP
FE
ENDCHAR
STARTCHAR uni00A0
ENCODING 160
SWIDTH 267 0
DWIDTH 5 0
BBX 1 1 0 0
BITMAP
00
ENDCHAR
STARTCHAR exclamdown
ENCODING 161
SWIDTH 237 0
DWIDTH 4 0
BBX 1 11 2 0
BITMAP
80
80
80
80
80
80
80
80
80
80
80
ENDCHAR
STARTCHAR cent
ENCODING 162
SWIDTH 414 0
DWIDTH 7 0
BBX 6 12 1 -1
BITMAP
10
10
7C
80
80
80
80
80
80
80
7C
10
ENDCHAR
STARTCHAR sterling
ENCODING 163
SWIDTH 528 0
DWIDTH 10 0
BBX 7 11 1 0
BITMAP
3C
42
42
40
40
F8
40
40
40
40
FE
ENDCHAR
STARTCHAR yen
ENCODING 165
SWIDTH 499 0
DWIDTH 9 0
BBX 7 11 1 0
BITMAP
82
82
44
44
28
EE
10
FE
10
10
10
ENDCHAR
STARTCHAR brokenbar
ENCODING 166
SWIDTH 201 0
DWIDTH 4 0
BBX 1 11 1 0
BITMAP
80
80
80
80
80
00
80
80
80
80
80
ENDCHAR
STARTCHAR section
ENCODING 167
SWIDTH 454 0
DWIDTH 8 0
BBX 6 11 1 0
BITMAP
7C
80
80
E0
9C
84
64
1C
04
04
F8
ENDCHAR
STARTCHAR dieresis
ENCODING 168
SWIDTH 345 0
DWIDTH 6 0
BBX 4 2 1 10
BITMAP
90
90
ENDCHAR
STARTCHAR copyright
ENCODING 169
SWIDTH 723 0
DWIDTH 13 0
BBX 11 11 1 0
BITMAP
7FC0
8020
8E20
9120
9120
9020
9120
9120
8E20
8020
7FC0
ENDCHAR
STARTCHAR guillemotleft
ENCODING 171
SWIDTH 431 0
DWIDTH 8 0
BBX 6 7 1 1
BITMAP
24
28
50
A0
50
28
04
ENDCHAR
STARTCHAR registered
ENCODING 174
SWIDTH 439 0
DWIDTH 8 0
BBX 6 6 1 6
BITMAP
78
B4
B4
B4
B4
78
ENDCHAR
STARTCHAR macron
ENCODING 175
SWIDTH 358 0
DWIDTH 6 0
BBX 4 1 1 10
BITMAP
F0
ENDCHAR
STARTCHAR degree
ENCODING 176
SWIDTH 298 0
DWIDTH 5 0
BBX 3 4 1 8
BITMAP
E0
A0
A0
60
ENDCHAR
STARTCHAR plusminus
ENCODING 177
SWIDTH 523 0
DWIDTH 9 0
BBX 7 7 1 2
BITMAP
10
10
FE
10
10
00
FE
ENDCHAR
STARTCHAR acute
ENCODING 180
SWIDTH 269 0
DWIDTH 5 0
BBX 3 2 1 10
BITMAP
60
C0
ENDCHAR
STARTCHAR paragraph
ENCODING 182
SWIDTH 513 0
DWIDTH 9 0
BBX 7 11 1 0
BITMAP
FE
E2
E2
E2
E2
22
22
22
22
22
22
ENDCHAR
STARTCHAR periodcentered
ENCODING 183
SWIDTH 207 0
DWIDTH 4 0
BBX 1 3 1 4
BITMAP
80
80
80
ENDCHAR
STARTCHAR cedilla
ENCODING 184
SWIDTH 257 0
DWIDTH 5 0
BBX 2 4 1 -3
BITMAP
40
C0
40
C0
ENDCHAR
STARTCHAR guillemotright
ENCODING 187
SWIDTH 431 0
DWIDTH 8 0
BBX 6 6 1 2
BITMAP
A0
90
48
24
48
90
ENDCHAR
STARTCHAR questiondown
ENCODING 191
SWIDTH 473 0
DWIDTH 9 0
BBX 6 11 1 0
BITMAP
10
10
10
00
10
20
60
80
84
84
78
ENDCHAR
STARTCHAR Agrave
ENCODING 192
SWIDTH 532 0
DWIDTH 10 0
BBX 8 15 1 0
BITMAP
20
10
10
00
18
18
28
24
24
44
42
7E
82
81
81
ENDCHAR
STARTCHAR Aacute
ENCODING 193
SWIDTH 532 0
DWIDTH 10 0
BBX 8 15 1 0
BITMAP
04
08
10
00
18
18
28
24
24
44
42
7E
82
81
81
ENDCHAR
STARTCHAR Acircumflex
ENCODING 194
SWIDTH 532 0
DWIDTH 10 0
BBX 8 15 1 0
BITMAP
18
28
24
00
18
18
28
24
24
44
42
7E
82
81
81
ENDCHAR
STARTCHAR Atilde
ENCODING 195
SWIDTH 532 0
DWIDTH 10 0
BBX 8 15 1 0
BITMAP
2C
34
34
00
18
18
28
24
24
44
42
7E
82
81
81
ENDCHAR
STARTCHAR Adieresis
ENCODING 196
SWIDTH 532 0
DWIDTH 10 0
BBX 8 15 1 0
BITMAP
24
24
00
00
18
18
28
24
24
44
42
7E
82
81
81
ENDCHAR
STARTCHAR Aring
ENCODING 197
SWIDTH 532 0
DWIDTH 10 0
BBX 8 16 1 0
BITMAP
18
28
28
28
18
18
18
28
24
24
44
42
7E
82
81
81
ENDCHAR
STARTCHAR AE
ENCODING 198
SWIDTH 773 0
DWIDTH 14 0
BBX 13 11 0 0
BITMAP
03F8
0500
0500
0900
0900
11F0
2100
3F00
4100
4100
81F8
ENDCHAR
STARTCHAR Ccedilla
ENCODING 199
SWIDTH 542 0
DWIDTH 10 0
BBX 8 14 1 -3
BITMAP
7E
81
81
80
80
80
80
80
81
81
7E
10
0C
18
ENDCHAR
STARTCHAR Egrave
ENCODING 200
SWIDTH 481 0
DWIDTH 9 0
BBX 5 15 2 0
BITMAP
40
20
20
00
F8
80
80
80
80
F8
80
80
80
80
F8
ENDCHAR
STARTCHAR Eacute
ENCODING 201
SWIDTH 481 0
DWIDTH 9 0
BBX 5 15 2 0
BITMAP
10
20
20
00
F8
80
80
80
80
F8
80
80
80
80
F8
ENDCHAR
STARTCHAR Ecircumflex
ENCODING 202
SWIDTH 481 0
DWIDTH 9 0
BBX 5 15 2 0
BITMAP
20
50
50
00
F8
80
80
80
80
F8
80
80
80
80
F8
ENDCHAR
STARTCHAR Edieresis
ENCODING 203
SWIDTH 481 0
DWIDTH 9 0
BBX 5 15 2 0
BITMAP
50
50
00
00
F8
80
80
80
80
F8
80
80
80
80
F8
ENDCHAR
STARTCHAR Igrave
ENCODING 204
SWIDTH 230 0
DWIDTH 4 0
BBX 3 15 0 0
BITMAP
80
40
20
00
20
20
20
20
20
20
20
20
20
20
20
ENDCHAR
STARTCHAR Iacute
ENCODING 205
SWIDTH 231 0
DWIDTH 4 0
BBX 2 15 2 0
BITMAP
40
80
80
00
80
80
80
80
80
80
80
80
80
80
80
ENDCHAR
STARTCHAR Icircumflex
ENCODING 206
SWIDTH 229 0
DWIDTH 4 0
BBX 4 15 0 0
BITMAP
60
60
90
00
20
20
20
20
20
20
20
20
20
20
20
ENDCHAR
STARTCHAR Idieresis
ENCODING 207
SWIDTH 230 0
DWIDTH 4 0
BBX 4 15 0 0
BITMAP
90
90
00
00
20
20
20
20
20
20
20
20
20
20
20
ENDCHAR
STARTCHAR Eth
ENCODING 208
SWIDTH 514 0
DWIDTH 9 0
BBX 9 11 0 0
BITMAP
3F00
2080
2080
2080
2080
FC80
2080
2080
2080
2080
3F00
ENDCHAR
STARTCHAR Ntilde
ENCODING 209
SWIDTH 579 0
DWIDTH 10 0
BBX 7 15 2 0
BITMAP
58
58
28
00
82
82
C2
C2
A2
92
92
8A
86
86
82
ENDCHAR
STARTCHAR Ograve
ENCODING 210
SWIDTH 553 0
DWIDTH 10 0
BBX 8 15 1 0
BITMAP
20
10
08
00
7E
82
81
81
81
81
81
81
81
82
7E
ENDCHAR
STARTCHAR Oacute
ENCODING 211
SWIDTH 553 0
DWIDTH 10 0
BBX 8 15 1 0
BITMAP
04
08
10
00
7E
82
81
81
81
81
81
81
81
82
7E
ENDCHAR
STARTCHAR Ocircumflex
ENCODING 212
SWIDTH 553 0
DWIDTH 10 0
BBX 8 15 1 0
BITMAP
18
18
24
00
7E
82
81
81
81
81
81
81
81
82
7E
ENDCHAR
STARTCHAR Otilde
ENCODING 213
SWIDTH 553 0
DWIDTH 10 0
BBX 8 15 1 0
BITMAP
2C
34
34
00
7E
82
81
81
81
81
81
81
81
82
7E
ENDCHAR
STARTCHAR Odieresis
ENCODING 214
SWIDTH 553 0
DWIDTH 10 0
BBX 8 15 1 0
BITMAP
24
24
00
00
7E
82
81
81
81
81
81
81
81
82
7E
ENDCHAR
STARTCHAR multiply
ENCODING 215
SWIDTH 493 0
DWIDTH 9 0
BBX 5 5 2 3
BITMAP
88
50
20
50
88
ENDCHAR
STARTCHAR Oslash
ENCODING 216
SWIDTH 559 0
DWIDTH 10 0
BBX 8 11 1 0
BITMAP
7F
41
83
85
89
89
91
A1
C1
41
FE
ENDCHAR
STARTCHAR Ugrave
ENCODING 217
SWIDTH 552 0
DWIDTH 10 0
BBX 8 15 1 0
BITMAP
20
10
08
00
81
81
81
81
81
81
81
81
81
42
7E
ENDCHAR
STARTCHAR Uacute
ENCODING 218
SWIDTH 552 0
DWIDTH 10 0
BBX 8 15 1 0
BITMAP
04
08
10
00
81
81
81
81
81
81
81
81
81
42
7E
ENDCHAR
STARTCHAR Ucircumflex
ENCODING 219
SWIDTH 552 0
DWIDTH 10 0
BBX 8 15 1 0
BITMAP
18
18
24
00
81
81
81
81
81
81
81
81
81
42
7E
ENDCHAR
STARTCHAR Udieresis
ENCODING 220
SWIDTH 552 0
DWIDTH 10 0
BBX 8 15 1 0
BITMAP
24
24
00
00
81
81
81
81
81
81
81
81
81
42
7E
ENDCHAR
STARTCHAR Yacute
ENCODING 221
SWIDTH 493 0
DWIDTH 9 0
BBX 8 15 0 0
BITMAP
04
08
08
00
C1
41
22
22
14
14
08
08
08
08
08
ENDCHAR
STARTCHAR Thorn
ENCODING 222
SWIDTH 501 0
DWIDTH 9 0
BBX 6 11 2 0
BITMAP
80
80
F8
84
84
84
84
84
F8
80
80
ENDCHAR
STARTCHAR germandbls
ENCODING 223
SWIDTH 540 0
DWIDTH 10 0
BBX 7 11 1 0
BITMAP
7C
42
82
82
82
9C
82
82
82
82
9E
ENDCHAR
STARTCHAR agrave
ENCODING 224
SWIDTH 502 0
DWIDTH 9 0
BBX 7 12 1 0
BITMAP
20
10
00
7E
82
82
82
82
82
82
86
7A
ENDCHAR
STARTCHAR aacute
ENCODING 225
SWIDTH 502 0
DWIDTH 9 0
BBX 7 12 1 0
BITMAP
0C
10
00
7E
82
82
82
82
82
82
86
7A
ENDCHAR
STARTCHAR acircumflex
ENCODING 226
SWIDTH 502 0
DWIDTH 9 0
BBX 7 12 1 0
BITMAP
18
28
00
7E
82
82
82
82
82
82
86
7A
ENDCHAR
STARTCHAR atilde
ENCODING 227
SWIDTH 504 0
DWIDTH 9 0
BBX 7 12 1 0
BITMAP
2C
34
00
7E
82
82
82
82
82
82
86
7A
ENDCHAR
STARTCHAR adieresis
ENCODING 228
SWIDTH 502 0
DWIDTH 9 0
BBX 7 12 1 0
BITMAP
24
24
00
7E
82
82
82
82
82
82
86
7A
ENDCHAR
STARTCHAR aring
ENCODING 229
SWIDTH 502 0
DWIDTH 9 0
BBX 7 13 1 0
BITMAP
38
28
38
00
7E
82
82
82
82
82
82
86
7A
ENDCHAR
STARTCHAR ae
ENCODING 230
SWIDTH 795 0
DWIDTH 14 0
BBX 12 9 1 0
BITMAP
7DE0
0210
0210
7E10
83F0
8200
8200
8600
7DF0
ENDCHAR
STARTCHAR ccedilla
ENCODING 231
SWIDTH 394 0
DWIDTH 7 0
BBX 5 12 1 -3
BITMAP
78
80
80
80
80
80
80
80
78
30
08
10
ENDCHAR
STARTCHAR egrave
ENCODING 232
SWIDTH 492 0
DWIDTH 9 0
BBX 7 12 1 0
BITMAP
20
10
00
7C
82
82
82
FE
80
80
80
7E
ENDCHAR
STARTCHAR eacute
ENCODING 233
SWIDTH 492 0
DWIDTH 9 0
BBX 7 12 1 0
BITMAP
08
10
00
7C
82
82
82
FE
80
80
80
7E
ENDCHAR
STARTCHAR ecircumflex
ENCODING 234
SWIDTH 492 0
DWIDTH 9 0
BBX 7 12 1 0
BITMAP
10
28
00
7C
82
82
82
FE
80
80
80
7E
ENDCHAR
STARTCHAR edieresis
ENCODING 235
SWIDTH 492 0
DWIDTH 9 0
BBX 7 12 1 0
BITMAP
28
28
00
7C
82
82
82
FE
80
80
80
7E
ENDCHAR
STARTCHAR igrave
ENCODING 236
SWIDTH 210 0
DWIDTH 4 0
BBX 2 12 0 0
BITMAP
80
40
00
40
40
40
40
40
40
40
40
40
ENDCHAR
STARTCHAR iacute
ENCODING 237
SWIDTH 208 0
DWIDTH 4 0
BBX 3 12 1 0
BITMAP
20
40
00
80
80
80
80
80
80
80
80
80
ENDCHAR
STARTCHAR icircumflex
ENCODING 238
SWIDTH 210 0
DWIDTH 4 0
BBX 4 12 0 0
BITMAP
60
B0
00
40
40
40
40
40
40
40
40
40
ENDCHAR
STARTCHAR idieresis
ENCODING 239
SWIDTH 210 0
DWIDTH 4 0
BBX 4 12 0 0
BITMAP
90
90
00
40
40
40
40
40
40
40
40
40
ENDCHAR
STARTCHAR eth
ENCODING 240
SWIDTH 488 0
DWIDTH 9 0
BBX 7 12 1 0
BITMAP
64
28
30
48
04
7A
86
82
82
82
82
7C
ENDCHAR
STARTCHAR ntilde
ENCODING 241
SWIDTH 507 0
DWIDTH 9 0
BBX 7 12 1 0
BITMAP
58
34
00
BC
C2
82
82
82
82
82
82
82
ENDCHAR
STARTCHAR ograve
ENCODING 242
SWIDTH 496 0
DWIDTH 9 0
BBX 7 12 1 0
BITMAP
60
10
00
7C
82
82
82
82
82
82
82
7C
ENDCHAR
STARTCHAR oacute
ENCODING 243
SWIDTH 496 0
DWIDTH 9 0
BBX 7 12 1 0
BITMAP
0C
10
00
7C
82
82
82
82
82
82
82
7C
ENDCHAR
STARTCHAR ocircumflex
ENCODING 244
SWIDTH 496 0
DWIDTH 9 0
BBX 7 12 1 0
BITMAP
10
28
00
7C
82
82
82
82
82
82
82
7C
ENDCHAR
STARTCHAR otilde
ENCODING 245
SWIDTH 496 0
DWIDTH 9 0
BBX 7 12 1 0
BITMAP
58
34
00
7C
82
82
82
82
82
82
82
7C
ENDCHAR
STARTCHAR odieresis
ENCODING 246
SWIDTH 496 0
DWIDTH 9 0
BBX 7 12 1 0
BITMAP
48
48
00
7C
82
82
82
82
82
82
82
7C
ENDCHAR
STARTCHAR divide
ENCODING 247
SWIDTH 510 0
DWIDTH 9 0
BBX 7 7 1 2
BITMAP
10
10
00
FE
00
00
10
ENDCHAR
STARTCHAR oslash
ENCODING 248
SWIDTH 521 0
DWIDTH 9 0
BBX 9 9 0 0
BITMAP
3E80
2100
4300
4500
4900
5100
6100
6100
BE00
ENDCHAR
STARTCHAR ugrave
ENCODING 249
SWIDTH 507 0
DWIDTH 9 0
BBX 7 12 1 0
BITMAP
60
10
00
82
82
82
82
82
82
82
82
7E
ENDCHAR
STARTCHAR uacute
ENCODING 250
SWIDTH 507 0
DWIDTH 9 0
BBX 7 12 1 0
BITMAP
0C
10
00
82
82
82
82
82
82
82
82
7E
ENDCHAR
STARTCHAR ucircumflex
ENCODING 251
SWIDTH 507 0
DWIDTH 9 0
BBX 7 12 1 0
BITMAP
10
28
00
82
82
82
82
82
82
82
82
7E
ENDCHAR
STARTCHAR udieresis
ENCODING 252
SWIDTH 507 0
DWIDTH 9 0
BBX 7 12 1 0
BITMAP
28
28
00
82
82
82
82
82
82
82
82
7E
ENDCHAR
STARTCHAR yacute
ENCODING 253
SWIDTH 459 0
DWIDTH 8 0
BBX 7 14 1 -2
BITMAP
08
10
00
82
84
84
44
48
48
30
30
10
20
C0
ENDCHAR
STARTCHAR thorn
ENCODING 254
SWIDTH 508 0
DWIDTH 9 0
BBX 7 14 1 -2
BITMAP
80
80
80
BC
C2
82
82
82
82
82
C2
BC
80
80
ENDCHAR
STARTCHAR ydieresis
ENCODING 255
SWIDTH 459 0
DWIDTH 8 0
BBX 7 14 1 -2
BITMAP
48
48
00
82
84
84
44
48
48
30
30
10
20
C0
ENDCHAR
STARTCHAR Amacron
ENCODING 256
SWIDTH 532 0
DWIDTH 10 0
BBX 8 14 1 0
BITMAP
3C
00
00
18
18
28
24
24
44
42
7E
82
81
81
ENDCHAR
STARTCHAR amacron
ENCODING 257
SWIDTH 502 0
DWIDTH 9 0
BBX 7 11 1 0
BITMAP
3C
00
7E
82
82
82
82
82
82
86
7A
ENDCHAR
STARTCHAR Abreve
ENCODING 258
SWIDTH 532 0
DWIDTH 10 0
BBX 8 15 1 0
BITMAP
24
24
18
00
18
18
28
24
24
44
42
7E
82
81
81
ENDCHAR
STARTCHAR abreve
ENCODING 259
SWIDTH 502 0
DWIDTH 9 0
BBX 7 12 1 0
BITMAP
24
18
00
7E
82
82
82
82
82
82
86
7A
ENDCHAR
STARTCHAR Aogonek
ENCODING 260
SWIDTH 532 0
DWIDTH 10 0
BBX 8 13 1 -2
BITMAP
18
18
28
24
24
44
42
7E
82
81
81
02
03
ENDCHAR
STARTCHAR aogonek
ENCODING 261
SWIDTH 502 0
DWIDTH 9 0
BBX 7 11 1 -2
BITMAP
7E
82
82
82
82
82
82
86
7A
04
04
ENDCHAR
STARTCHAR Cacute
ENCODING 262
SWIDTH 542 0
DWIDTH 10 0
BBX 8 15 1 0
BITMAP
04
08
10
00
7E
81
81
80
80
80
80
80
81
81
7E
ENDCHAR
STARTCHAR cacute
ENCODING 263
SWIDTH 394 0
DWIDTH 7 0
BBX 5 12 1 0
BITMAP
08
10
00
78
80
80
80
80
80
80
80
78
ENDCHAR
STARTCHAR Cdotaccent
ENCODING 266
SWIDTH 542 0
DWIDTH 10 0
BBX 8 15 1 0
BITMAP
10
10
00
00
7E
81
81
80
80
80
80
80
81
81
7E
ENDCHAR
STARTCHAR cdotaccent
ENCODING 267
SWIDTH 394 0
DWIDTH 7 0
BBX 5 12 1 0
BITMAP
10
10
00
78
80
80
80
80
80
80
80
78
ENDCHAR
STARTCHAR Ccaron
ENCODING 268
SWIDTH 542 0
DWIDTH 10 0
BBX 8 15 1 0
BITMAP
24
18
08
00
7E
81
81
80
80
80
80
80
81
81
7E
ENDCHAR
STARTCHAR ccaron
ENCODING 269
SWIDTH 394 0
DWIDTH 7 0
BBX 5 12 1 0
BITMAP
68
30
00
78
80
80
80
80
80
80
80
78
ENDCHAR
STARTCHAR Dcaron
ENCODING 270
SWIDTH 557 0
DWIDTH 10 0
BBX 7 15 2 0
BITMAP
48
30
20
00
FC
82
82
82
82
82
82
82
82
82
FC
ENDCHAR
STARTCHAR dcaron
ENCODING 271
SWIDTH 534 0
DWIDTH 10 0
BBX 9 12 1 0
BITMAP
0280
0280
0280
7B00
8600
8200
8200
8200
8200
8200
8200
7E00
ENDCHAR
STARTCHAR Dcroat
ENCODING 272
SWIDTH 514 0
DWIDTH 9 0
BBX 9 11 0 0
BITMAP
3F00
2080
2080
2080
FC80
2080
2080
2080
2080
2080
3F00
ENDCHAR
STARTCHAR dcroat
ENCODING 273
SWIDTH 539 0
DWIDTH 10 0
BBX 8 12 1 0
BITMAP
02
1F
02
02
7A
86
82
82
82
82
86
7A
ENDCHAR
STARTCHAR Emacron
ENCODING 274
SWIDTH 481 0
DWIDTH 9 0
BBX 5 14 2 0
BITMAP
F8
00
00
F8
80
80
80
80
F8
80
80
80
80
F8
ENDCHAR
STARTCHAR emacron
ENCODING 275
SWIDTH 492 0
DWIDTH 9 0
BBX 7 11 1 0
BITMAP
7C
00
7C
82
82
82
FE
80
80
80
7E
ENDCHAR
STARTCHAR Ebreve
ENCODING 276
SWIDTH 481 0
DWIDTH 9 0
BBX 5 15 2 0
BITMAP
90
50
60
00
F8
80
80
80
80
F8
80
80
80
80
F8
ENDCHAR
STARTCHAR ebreve
ENCODING 277
SWIDTH 492 0
DWIDTH 9 0
BBX 7 12 1 0
BITMAP
48
38
00
7C
82
82
82
FE
80
80
80
7E
ENDCHAR
STARTCHAR Edotaccent
ENCODING 278
SWIDTH 496 0
DWIDTH 9 0
BBX 5 15 2 0
BITMAP
20
20
00
00
F8
80
80
80
80
F8
80
80
80
80
F8
ENDCHAR
STARTCHAR edotaccent
ENCODING 279
SWIDTH 492 0
DWIDTH 9 0
BBX 7 12 1 0
BITMAP
10
10
00
7C
82
82
82
FE
80
80
80
7E
ENDCHAR
STARTCHAR Eogonek
ENCODING 280
SWIDTH 481 0
DWIDTH 9 0
BBX 5 13 2 -2
BITMAP
F8
80
80
80
80
F8
80
80
80
80
F8
10
18
ENDCHAR
STARTCHAR eogonek
ENCODING 281
SWIDTH 492 0
DWIDTH 9 0
BBX 7 11 1 -2
BITMAP
7C
82
82
82
FE
80
80
80
7E
08
0C
ENDCHAR
STARTCHAR Ecaron
ENCODING 282
SWIDTH 481 0
DWIDTH 9 0
BBX 5 15 2 0
BITMAP
50
50
20
00
F8
80
80
80
80
F8
80
80
80
80
F8
ENDCHAR
STARTCHAR ecaron
ENCODING 283
SWIDTH 492 0
DWIDTH 9 0
BBX 7 12 1 0
BITMAP
28
10
00
7C
82
82
82
FE
80
80
80
7E
ENDCHAR
STARTCHAR Gcircumflex
ENCODING 284
SWIDTH 539 0
DWIDTH 10 0
BBX 7 15 1 0
BITMAP
18
28
24
00
7E
82
82
80
80
8E
82
82
82
82
7C
ENDCHAR
STARTCHAR gcircumflex
ENCODING 285
SWIDTH 506 0
DWIDTH 9 0
BBX 7 14 1 -2
BITMAP
18
2C
00
7E
82
82
82
82
82
86
7A
02
02
7C
ENDCHAR
STARTCHAR Gbreve
ENCODING 286
SWIDTH 539 0
DWIDTH 10 0
BBX 7 15 1 0
BITMAP
24
24
18
00
7E
82
82
80
80
8E
82
82
82
82
7C
ENDCHAR
STARTCHAR gbreve
ENCODING 287
SWIDTH 506 0
DWIDTH 9 0
BBX 7 14 1 -2
BITMAP
24
18
00
7E
82
82
82
82
82
86
7A
02
02
7C
ENDCHAR
STARTCHAR Gdotaccent
ENCODING 288
SWIDTH 539 0
DWIDTH 10 0
BBX 7 15 1 0
BITMAP
10
10
00
00
7E
82
82
80
80
8E
82
82
82
82
7C
ENDCHAR
STARTCHAR gdotaccent
ENCODING 289
SWIDTH 506 0
DWIDTH 9 0
BBX 7 14 1 -2
BITMAP
10
10
00
7E
82
82
82
82
82
86
7A
02
02
7C
ENDCHAR
STARTCHAR uni0122
ENCODING 290
SWIDTH 539 0
DWIDTH 10 0
BBX 7 15 1 -4
BITMAP
7E
82
82
80
80
8E
82
82
82
82
7C
08
08
08
10
ENDCHAR
STARTCHAR uni0123
ENCODING 291
SWIDTH 506 0
DWIDTH 9 0
BBX 7 16 1 -2
BITMAP
08
08
10
10
00
7E
82
82
82
82
82
86
7A
02
02
7C
ENDCHAR
STARTCHAR hcircumflex
ENCODING 293
SWIDTH 507 0
DWIDTH 9 0
BBX 7 14 1 0
BITMAP
10
18
A4
80
80
BC
C2
82
82
82
82
82
82
82
ENDCHAR
STARTCHAR Hbar
ENCODING 294
SWIDTH 523 0
DWIDTH 9 0
BBX 10 11 0 0
BITMAP
2080
2080
FFC0
2080
2080
3F80
2080
2080
2080
2080
2080
ENDCHAR
STARTCHAR hbar
ENCODING 295
SWIDTH 544 0
DWIDTH 10 0
BBX 9 12 0 0
BITMAP
2000
FC00
2000
2000
3F00
2100
2080
2080
2080
2080
2080
2080
ENDCHAR
STARTCHAR Itilde
ENCODING 296
SWIDTH 230 0
DWIDTH 4 0
BBX 4 15 0 0
BITMAP
B0
B0
D0
00
20
20
20
20
20
20
20
20
20
20
20
ENDCHAR
STARTCHAR itilde
ENCODING 297
SWIDTH 210 0
DWIDTH 4 0
BBX 4 12 0 0
BITMAP
B0
D0
00
40
40
40
40
40
40
40
40
40
ENDCHAR
STARTCHAR Imacron
ENCODING 298
SWIDTH 230 0
DWIDTH 4 0
BBX 4 14 0 0
BITMAP
F0
00
00
20
20
20
20
20
20
20
20
20
20
20
ENDCHAR
STARTCHAR imacron
ENCODING 299
SWIDTH 208 0
DWIDTH 4 0
BBX 4 11 0 0
BITMAP
F0
00
40
40
40
40
40
40
40
40
40
ENDCHAR
STARTCHAR Ibreve
ENCODING 300
SWIDTH 231 0
DWIDTH 4 0
BBX 4 15 0 0
BITMAP
90
90
60
00
20
20
20
20
20
20
20
20
20
20
20
ENDCHAR
STARTCHAR ibreve
ENCODING 301
SWIDTH 211 0
DWIDTH 4 0
BBX 4 12 0 0
BITMAP
90
60
00
40
40
40
40
40
40
40
40
40
ENDCHAR
STARTCHAR Iogonek
ENCODING 302
SWIDTH 230 0
DWIDTH 4 0
BBX 2 13 1 -2
BITMAP
40
40
40
40
40
40
40
40
40
40
40
80
80
ENDCHAR
STARTCHAR iogonek
ENCODING 303
SWIDTH 210 0
DWIDTH 4 0
BBX 2 14 0 -2
BITMAP
40
40
00
40
40
40
40
40
40
40
40
40
40
C0
ENDCHAR
STARTCHAR Idotaccent
ENCODING 304
SWIDTH 230 0
DWIDTH 4 0
BBX 1 14 2 0
BITMAP
80
80
00
80
80
80
80
80
80
80
80
80
80
80
ENDCHAR
STARTCHAR dotlessi
ENCODING 305
SWIDTH 212 0
DWIDTH 4 0
BBX 1 9 1 0
BITMAP
80
80
80
80
80
80
80
80
80
ENDCHAR
STARTCHAR IJ
ENCODING 306
SWIDTH 721 0
DWIDTH 13 0
BBX 10 11 2 0
BITMAP
8040
8040
8040
8040
8040
8040
8040
9040
9040
9080
8F80
ENDCHAR
STARTCHAR ij
ENCODING 307
SWIDTH 419 0
DWIDTH 8 0
BBX 5 14 1 -2
BITMAP
88
88
00
88
88
88
88
88
88
88
88
88
08
30
ENDCHAR
STARTCHAR Jcircumflex
ENCODING 308
SWIDTH 494 0
DWIDTH 9 0
BBX 8 15 1 0
BITMAP
06
06
09
00
02
02
02
02
02
02
02
82
82
84
7C
ENDCHAR
STARTCHAR jcircumflex
ENCODING 309
SWIDTH 209 0
DWIDTH 4 0
BBX 5 14 -1 -2
BITMAP
30
58
00
20
20
20
20
20
20
20
20
20
20
C0
ENDCHAR
STARTCHAR uni0136
ENCODING 310
SWIDTH 530 0
DWIDTH 10 0
BBX 7 15 2 -4
BITMAP
86
88
88
90
A0
E0
90
88
88
84
82
10
10
10
10
ENDCHAR
STARTCHAR uni0137
ENCODING 311
SWIDTH 431 0
DWIDTH 8 0
BBX 7 16 1 -4
BITMAP
80
80
80
84
88
88
90
A0
90
88
84
86
10
10
10
10
ENDCHAR
STARTCHAR Lacute
ENCODING 313
SWIDTH 451 0
DWIDTH 8 0
BBX 6 15 2 0
BITMAP
40
80
80
00
80
80
80
80
80
80
80
80
80
80
FC
ENDCHAR
STARTCHAR lacute
ENCODING 314
SWIDTH 207 0
DWIDTH 4 0
BBX 3 16 1 0
BITMAP
20
40
40
00
80
80
80
80
80
80
80
80
80
80
80
80
ENDCHAR
STARTCHAR uni013B
ENCODING 315
SWIDTH 451 0
DWIDTH 8 0
BBX 6 15 2 -4
BITMAP
80
80
80
80
80
80
80
80
80
80
FC
20
20
20
20
ENDCHAR
STARTCHAR uni013C
ENCODING 316
SWIDTH 211 0
DWIDTH 4 0
BBX 1 16 1 -4
BITMAP
80
80
80
80
80
80
80
80
80
80
80
80
80
80
80
80
ENDCHAR
STARTCHAR Lcaron
ENCODING 317
SWIDTH 451 0
DWIDTH 8 0
BBX 6 11 2 0
BITMAP
88
88
90
90
80
80
80
80
80
80
FC
ENDCHAR
STARTCHAR lcaron
ENCODING 318
SWIDTH 274 0
DWIDTH 5 0
BBX 4 12 1 0
BITMAP
90
90
90
A0
80
80
80
80
80
80
80
80
ENDCHAR
STARTCHAR Ldot
ENCODING 319
SWIDTH 500 0
DWIDTH 9 0
BBX 6 11 2 0
BITMAP
80
80
80
80
90
90
80
80
80
80
FC
ENDCHAR
STARTCHAR ldot
ENCODING 320
SWIDTH 314 0
DWIDTH 6 0
BBX 4 12 1 0
BITMAP
80
80
80
80
80
90
90
80
80
80
80
80
ENDCHAR
STARTCHAR Lslash
ENCODING 321
SWIDTH 504 0
DWIDTH 9 0
BBX 8 11 0 0
BITMAP
20
20
28
30
E0
20
20
20
20
20
3F
ENDCHAR
STARTCHAR lslash
ENCODING 322
SWIDTH 296 0
DWIDTH 5 0
BBX 5 12 0 0
BITMAP
20
20
20
28
30
60
A0
20
20
20
20
20
ENDCHAR
STARTCHAR Nacute
ENCODING 323
SWIDTH 579 0
DWIDTH 10 0
BBX 7 15 2 0
BITMAP
08
10
10
00
82
82
C2
C2
A2
92
92
8A
86
86
82
ENDCHAR
STARTCHAR nacute
ENCODING 324
SWIDTH 507 0
DWIDTH 9 0
BBX 7 12 1 0
BITMAP
0C
10
00
BC
C2
82
82
82
82
82
82
82
ENDCHAR
STARTCHAR uni0145
ENCODING 325
SWIDTH 579 0
DWIDTH 10 0
BBX 7 15 2 -4
BITMAP
82
82
C2
C2
A2
92
92
8A
86
86
82
10
10
10
20
ENDCHAR
STARTCHAR uni0146
ENCODING 326
SWIDTH 505 0
DWIDTH 9 0
BBX 7 13 1 -4
BITMAP
BC
C2
82
82
82
82
82
82
82
10
10
10
10
ENDCHAR
STARTCHAR Ncaron
ENCODING 327
SWIDTH 579 0
DWIDTH 10 0
BBX 7 15 2 0
BITMAP
28
30
10
00
82
82
C2
C2
A2
92
92
8A
86
86
82
ENDCHAR
STARTCHAR ncaron
ENCODING 328
SWIDTH 507 0
DWIDTH 9 0
BBX 7 12 1 0
BITMAP
28
10
00
BC
C2
82
82
82
82
82
82
82
ENDCHAR
STARTCHAR Eng
ENCODING 330
SWIDTH 519 0
DWIDTH 9 0
BBX 7 13 2 -2
BITMAP
82
82
C2
E2
A2
92
92
8A
86
86
82
02
0C
ENDCHAR
STARTCHAR eng
ENCODING 331
SWIDTH 507 0
DWIDTH 9 0
BBX 7 11 1 -2
BITMAP
BC
C2
82
82
82
82
82
82
82
02
0C
ENDCHAR
STARTCHAR Omacron
ENCODING 332
SWIDTH 553 0
DWIDTH 10 0
BBX 8 14 1 0
BITMAP
3C
00
00
7E
82
81
81
81
81
81
81
81
82
7E
ENDCHAR
STARTCHAR omacron
ENCODING 333
SWIDTH 496 0
DWIDTH 9 0
BBX 7 11 1 0
BITMAP
7C
00
7C
82
82
82
82
82
82
82
7C
ENDCHAR
STARTCHAR Obreve
ENCODING 334
SWIDTH 553 0
DWIDTH 10 0
BBX 8 15 1 0
BITMAP
24
24
18
00
7E
82
81
81
81
81
81
81
81
82
7E
ENDCHAR
STARTCHAR obreve
ENCODING 335
SWIDTH 496 0
DWIDTH 9 0
BBX 7 12 1 0
BITMAP
48
38
00
7C
82
82
82
82
82
82
82
7C
ENDCHAR
STARTCHAR Ohungarumlaut
ENCODING 336
SWIDTH 553 0
DWIDTH 10 0
BBX 8 15 1 0
BITMAP
1A
14
00
00
7E
82
81
81
81
81
81
81
81
82
7E
ENDCHAR
STARTCHAR ohungarumlaut
ENCODING 337
SWIDTH 496 0
DWIDTH 9 0
BBX 7 12 1 0
BITMAP
14
2C
00
7C
82
82
82
82
82
82
82
7C
ENDCHAR
STARTCHAR OE
ENCODING 338
SWIDTH 775 0
DWIDTH 14 0
BBX 12 11 1 0
BITMAP
7FF0
4200
8200
8200
8200
83E0
8200
8200
8200
4200
7FF0
ENDCHAR
STARTCHAR oe
ENCODING 339
SWIDTH 812 0
DWIDTH 15 0
BBX 12 9 1 0
BITMAP
7DF0
8210
8210
8210
83F0
8200
8200
8200
7DF0
ENDCHAR
STARTCHAR Racute
ENCODING 340
SWIDTH 534 0
DWIDTH 10 0
BBX 7 15 2 0
BITMAP
18
20
20
00
FC
84
84
84
84
F8
88
88
84
84
86
ENDCHAR
STARTCHAR racute
ENCODING 341
SWIDTH 313 0
DWIDTH 6 0
BBX 4 12 1 0
BITMAP
30
60
00
B0
C0
80
80
80
80
80
80
80
ENDCHAR
STARTCHAR uni0156
ENCODING 342
SWIDTH 534 0
DWIDTH 10 0
BBX 7 15 2 -4
BITMAP
FC
84
84
84
84
F8
88
88
84
84
86
20
20
20
20
ENDCHAR
STARTCHAR uni0157
ENCODING 343
SWIDTH 313 0
DWIDTH 6 0
BBX 4 13 1 -4
BITMAP
B0
C0
80
80
80
80
80
80
80
80
80
80
80
ENDCHAR
STARTCHAR Rcaron
ENCODING 344
SWIDTH 534 0
DWIDTH 10 0
BBX 7 15 2 0
BITMAP
50
50
20
00
FC
84
84
84
84
F8
88
88
84
84
86
ENDCHAR
STARTCHAR rcaron
ENCODING 345
SWIDTH 313 0
DWIDTH 6 0
BBX 4 12 1 0
BITMAP
D0
60
00
B0
C0
80
80
80
80
80
80
80
ENDCHAR
STARTCHAR Sacute
ENCODING 346
SWIDTH 562 0
DWIDTH 10 0
BBX 8 15 1 0
BITMAP
04
08
10
00
7E
42
81
80
40
3C
02
01
81
43
7E
ENDCHAR
STARTCHAR sacute
ENCODING 347
SWIDTH 427 0
DWIDTH 8 0
BBX 6 12 1 0
BITMAP
18
20
00
78
80
80
C0
38
04
04
04
F8
ENDCHAR
STARTCHAR Scircumflex
ENCODING 348
SWIDTH 562 0
DWIDTH 10 0
BBX 8 15 1 0
BITMAP
18
18
24
00
7E
42
81
80
40
3C
02
01
81
43
7E
ENDCHAR
STARTCHAR scircumflex
ENCODING 349
SWIDTH 427 0
DWIDTH 8 0
BBX 6 12 1 0
BITMAP
30
58
00
78
80
80
C0
38
04
04
04
F8
ENDCHAR
STARTCHAR uni015E
ENCODING 350
SWIDTH 562 0
DWIDTH 10 0
BBX 8 14 1 -3
BITMAP
7E
42
81
80
40
3C
02
01
81
43
7E
08
18
18
ENDCHAR
STARTCHAR uni015F
ENCODING 351
SWIDTH 427 0
DWIDTH 8 0
BBX 6 12 1 -3
BITMAP
78
80
80
C0
30
0C
04
04
F8
20
30
30
ENDCHAR
STARTCHAR Scaron
ENCODING 352
SWIDTH 562 0
DWIDTH 10 0
BBX 8 15 1 0
BITMAP
24
18
08
00
7E
42
81
80
40
3C
02
01
81
43
7E
ENDCHAR
STARTCHAR scaron
ENCODING 353
SWIDTH 427 0
DWIDTH 8 0
BBX 6 12 1 0
BITMAP
58
30
00
78
80
80
C0
38
04
04
04
F8
ENDCHAR
STARTCHAR uni0162
ENCODING 354
SWIDTH 420 0
DWIDTH 8 0
BBX 7 15 0 -4
BITMAP
FE
10
10
10
10
10
10
10
10
10
10
10
10
10
10
ENDCHAR
STARTCHAR uni0163
ENCODING 355
SWIDTH 347 0
DWIDTH 6 0
BBX 6 15 0 -4
BITMAP
20
20
F8
20
20
20
20
20
20
20
1C
10
10
10
10
ENDCHAR
STARTCHAR Tcaron
ENCODING 356
SWIDTH 420 0
DWIDTH 8 0
BBX 7 15 0 0
BITMAP
2C
18
10
00
FE
10
10
10
10
10
10
10
10
10
10
ENDCHAR
STARTCHAR tcaron
ENCODING 357
SWIDTH 396 0
DWIDTH 7 0
BBX 7 11 0 0
BITMAP
22
22
FA
22
20
20
20
20
20
20
1C
ENDCHAR
STARTCHAR Tbar
ENCODING 358
SWIDTH 501 0
DWIDTH 9 0
BBX 7 11 0 0
BITMAP
FE
10
10
10
7E
10
10
10
10
10
10
ENDCHAR
STARTCHAR tbar
ENCODING 359
SWIDTH 350 0
DWIDTH 6 0
BBX 6 11 0 0
BITMAP
20
20
F8
20
20
F8
20
20
20
20
1C
ENDCHAR
STARTCHAR Utilde
ENCODING 360
SWIDTH 552 0
DWIDTH 10 0
BBX 8 15 1 0
BITMAP
2C
34
34
00
81
81
81
81
81
81
81
81
81
42
7E
ENDCHAR
STARTCHAR utilde
ENCODING 361
SWIDTH 507 0
DWIDTH 9 0
BBX 7 12 1 0
BITMAP
58
34
00
82
82
82
82
82
82
82
82
7E
ENDCHAR
STARTCHAR Umacron
ENCODING 362
SWIDTH 552 0
DWIDTH 10 0
BBX 8 14 1 0
BITMAP
3C
00
00
81
81
81
81
81
81
81
81
81
42
7E
ENDCHAR
STARTCHAR umacron
ENCODING 363
SWIDTH 507 0
DWIDTH 9 0
BBX 7 11 1 0
BITMAP
7C
00
82
82
82
82
82
82
82
82
7E
ENDCHAR
STARTCHAR Ubreve
ENCODING 364
SWIDTH 552 0
DWIDTH 10 0
BBX 8 15 1 0
BITMAP
24
24
18
00
81
81
81
81
81
81
81
81
81
42
7E
ENDCHAR
STARTCHAR ubreve
ENCODING 365
SWIDTH 507 0
DWIDTH 9 0
BBX 7 12 1 0
BITMAP
28
38
00
82
82
82
82
82
82
82
82
7E
ENDCHAR
STARTCHAR Uring
ENCODING 366
SWIDTH 552 0
DWIDTH 10 0
BBX 8 16 1 0
BITMAP
18
24
24
24
18
81
81
81
81
81
81
81
81
81
42
7E
ENDCHAR
STARTCHAR uring
ENCODING 367
SWIDTH 507 0
DWIDTH 9 0
BBX 7 13 1 0
BITMAP
38
28
38
00
82
82
82
82
82
82
82
82
7E
ENDCHAR
STARTCHAR Uhungarumlaut
ENCODING 368
SWIDTH 552 0
DWIDTH 10 0
BBX 8 15 1 0
BITMAP
1A
14
20
00
81
81
81
81
81
81
81
81
81
42
7E
ENDCHAR
STARTCHAR uhungarumlaut
ENCODING 369
SWIDTH 507 0
DWIDTH 9 0
BBX 7 12 1 0
BITMAP
14
2C
00
82
82
82
82
82
82
82
82
7E
ENDCHAR
STARTCHAR Uogonek
ENCODING 370
SWIDTH 552 0
DWIDTH 10 0
BBX 8 13 1 -2
BITMAP
81
81
81
81
81
81
81
81
81
42
7E
10
18
ENDCHAR
STARTCHAR uogonek
ENCODING 371
SWIDTH 503 0
DWIDTH 9 0
BBX 7 11 1 -2
BITMAP
82
82
82
82
82
82
82
82
7E
04
06
ENDCHAR
STARTCHAR Wcircumflex
ENCODING 372
SWIDTH 795 0
DWIDTH 14 0
BBX 13 15 1 0
BITMAP
0600
0500
0900
0000
8608
8610
8610
8510
4910
4910
48A0
50A0
50A0
30A0
3040
ENDCHAR
STARTCHAR wcircumflex
ENCODING 373
SWIDTH 682 0
DWIDTH 12 0
BBX 12 12 0 0
BITMAP
0600
0D00
0000
8210
4610
4620
4520
2920
2940
2940
28C0
1080
ENDCHAR
STARTCHAR Ycircumflex
ENCODING 374
SWIDTH 493 0
DWIDTH 9 0
BBX 8 15 0 0
BITMAP
08
14
14
00
C1
41
22
22
14
14
08
08
08
08
08
ENDCHAR
STARTCHAR ycircumflex
ENCODING 375
SWIDTH 459 0
DWIDTH 8 0
BBX 7 14 1 -2
BITMAP
30
28
00
82
84
84
44
48
48
30
30
10
20
C0
ENDCHAR
STARTCHAR Ydieresis
ENCODING 376
SWIDTH 493 0
DWIDTH 9 0
BBX 8 15 0 0
BITMAP
24
24
00
00
C1
41
22
22
14
14
08
08
08
08
08
ENDCHAR
STARTCHAR Zacute
ENCODING 377
SWIDTH 482 0
DWIDTH 9 0
BBX 7 15 1 0
BITMAP
0C
08
10
00
FE
04
04
08
10
10
20
60
40
80
FE
ENDCHAR
STARTCHAR zacute
ENCODING 378
SWIDTH 405 0
DWIDTH 7 0
BBX 6 12 1 0
BITMAP
08
10
00
FC
08
10
10
20
60
40
80
FC
ENDCHAR
STARTCHAR Zdotaccent
ENCODING 379
SWIDTH 482 0
DWIDTH 9 0
BBX 7 15 1 0
BITMAP
10
10
00
00
FE
04
04
08
10
10
20
60
40
80
FE
ENDCHAR
STARTCHAR zdotaccent
ENCODING 380
SWIDTH 405 0
DWIDTH 7 0
BBX 6 12 1 0
BITMAP
20
20
00
FC
08
10
10
20
60
40
80
FC
ENDCHAR
STARTCHAR Zcaron
ENCODING 381
SWIDTH 482 0
DWIDTH 9 0
BBX 7 15 1 0
BITMAP
28
18
10
00
FE
04
04
08
10
10
20
60
40
80
FE
ENDCHAR
STARTCHAR zcaron
ENCODING 382
SWIDTH 405 0
DWIDTH 7 0
BBX 6 12 1 0
BITMAP
48
30
00
FC
08
10
10
20
60
40
80
FC
ENDCHAR
STARTCHAR florin
ENCODING 402
SWIDTH 494 0
DWIDTH 9 0
BBX 9 14 0 -2
BITMAP
0380
0400
0400
0400
3E00
0800
0800
0800
1000
1000
1000
1000
2000
E000
ENDCHAR
STARTCHAR AEacute
ENCODING 508
SWIDTH 773 0
DWIDTH 14 0
BBX 13 15 0 0
BITMAP
00C0
0080
0100
0000
03F8
0500
0500
0900
0900
11F0
2100
3F00
4100
4100
81F8
ENDCHAR
STARTCHAR aeacute
ENCODING 509
SWIDTH 795 0
DWIDTH 14 0
BBX 12 12 1 0
BITMAP
0100
0200
0000
7DE0
0210
0210
7E10
83F0
8200
8200
8600
7DF0
ENDCHAR
STARTCHAR Oslashacute
ENCODING 510
SWIDTH 558 0
DWIDTH 10 0
BBX 8 15 1 0
BITMAP
04
08
10
00
7F
41
83
85
89
89
91
A1
C1
41
FE
ENDCHAR
STARTCHAR oslashacute
ENCODING 511
SWIDTH 521 0
DWIDTH 9 0
BBX 9 12 0 0
BITMAP
0600
0C00
0000
3E80
2100
4300
4500
4900
5100
6100
6100
BE00
ENDCHAR
STARTCHAR uni0218
ENCODING 536
SWIDTH 562 0
DWIDTH 10 0
BBX 8 15 1 -4
BITMAP
7E
42
81
80
40
3C
02
01
81
43
7E
08
08
08
10
ENDCHAR
STARTCHAR uni0219
ENCODING 537
SWIDTH 427 0
DWIDTH 8 0
BBX 6 13 1 -4
BITMAP
78
80
80
C0
38
04
04
04
F8
10
10
20
20
ENDCHAR
STARTCHAR circumflex
ENCODING 710
SWIDTH 326 0
DWIDTH 6 0
BBX 4 2 1 10
BITMAP
60
F0
ENDCHAR
STARTCHAR caron
ENCODING 711
SWIDTH 326 0
DWIDTH 6 0
BBX 4 2 1 10
BITMAP
90
60
ENDCHAR
STARTCHAR uni02C9
ENCODING 713
SWIDTH 358 0
DWIDTH 6 0
BBX 4 1 1 10
BITMAP
F0
ENDCHAR
STARTCHAR breve
ENCODING 728
SWIDTH 332 0
DWIDTH 6 0
BBX 4 3 1 9
BITMAP
90
90
60
ENDCHAR
STARTCHAR dotaccent
ENCODING 729
SWIDTH 183 0
DWIDTH 3 0
BBX 1 2 1 10
BITMAP
80
80
ENDCHAR
STARTCHAR ring
ENCODING 730
SWIDTH 297 0
DWIDTH 5 0
BBX 3 3 1 10
BITMAP
E0
A0
E0
ENDCHAR
STARTCHAR ogonek
ENCODING 731
SWIDTH 243 0
DWIDTH 4 0
BBX 2 3 1 -2
BITMAP
40
40
C0
ENDCHAR
STARTCHAR tilde
ENCODING 732
SWIDTH 369 0
DWIDTH 7 0
BBX 4 3 1 9
BITMAP
B0
B0
D0
ENDCHAR
STARTCHAR hungarumlaut
ENCODING 733
SWIDTH 377 0
DWIDTH 7 0
BBX 5 2 1 10
BITMAP
58
B0
ENDCHAR
STARTCHAR Mu
ENCODING 924
SWIDTH 527 0
DWIDTH 9 0
BBX 7 11 1 -2
BITMAP
82
82
82
82
82
82
82
C2
BE
80
80
ENDCHAR
STARTCHAR Pi
ENCODING 928
SWIDTH 605 0
DWIDTH 11 0
BBX 9 11 1 0
BITMAP
FF80
2200
2200
2200
2200
2200
2200
2200
2200
2200
2200
ENDCHAR
STARTCHAR Sigma
ENCODING 931
SWIDTH 481 0
DWIDTH 9 0
BBX 7 11 1 0
BITMAP
FE
40
40
20
10
10
10
20
40
40
FE
ENDCHAR
STARTCHAR uni0901
ENCODING 2305
SWIDTH 0 0
DWIDTH 0 0
BBX 6 3 -5 12
BITMAP
20
84
78
ENDCHAR
STARTCHAR uni0902
ENCODING 2306
SWIDTH 0 0
DWIDTH 0 0
BBX 1 1 -3 13
BITMAP
80
ENDCHAR
STARTCHAR uni0903
ENCODING 2307
SWIDTH 247 0
DWIDTH 4 0
BBX 1 6 2 1
BITMAP
80
00
00
00
00
80
ENDCHAR
STARTCHAR uni0905
ENCODING 2309
SWIDTH 598 0
DWIDTH 11 0
BBX 10 11 1 0
BITMAP
F1C0
0900
0900
0900
1100
7100
0F00
0900
0900
F100
0100
ENDCHAR
STARTCHAR uni0906
ENCODING 2310
SWIDTH 828 0
DWIDTH 15 0
BBX 14 11 1 0
BITMAP
F1FC
1110
0910
0910
1110
7110
0F10
0910
0910
F110
0110
ENDCHAR
STARTCHAR uni0907
ENCODING 2311
SWIDTH 478 0
DWIDTH 9 0
BBX 9 12 0 -1
BITMAP
FF80
0200
0200
3E00
4000
4000
3E00
0200
4100
4200
7E00
4000
ENDCHAR
STARTCHAR uni0908
ENCODING 2312
SWIDTH 478 0
DWIDTH 9 0
BBX 9 16 0 -1
BITMAP
0700
0400
0800
0800
FF80
0200
0200
3E00
4000
4000
3E00
0200
4100
4200
7E00
4000
ENDCHAR
STARTCHAR uni0909
ENCODING 2313
SWIDTH 471 0
DWIDTH 8 0
BBX 9 11 0 0
BITMAP
FF80
0200
0200
0200
0200
1C00
0200
4200
4200
4200
3C00
ENDCHAR
STARTCHAR uni090A
ENCODING 2314
SWIDTH 661 0
DWIDTH 12 0
BBX 12 11 0 0
BITMAP
FFF0
0200
0200
0200
0200
1FC0
0220
4220
4220
4220
3CC0
ENDCHAR
STARTCHAR uni090B
ENCODING 2315
SWIDTH 753 0
DWIDTH 14 0
BBX 14 11 0 0
BITMAP
FFFC
0200
0200
3E30
4250
4290
0330
0640
0A40
1240
6230
ENDCHAR
STARTCHAR uni090C
ENCODING 2316
SWIDTH 676 0
DWIDTH 12 0
BBX 12 15 0 -4
BITMAP
FFF0
0020
0020
3BA0
4660
4420
4420
4020
4020
3820
00E0
0100
0100
0110
00F0
ENDCHAR
STARTCHAR uni090D
ENCODING 2317
SWIDTH 521 0
DWIDTH 9 0
BBX 10 15 0 0
BITMAP
2100
1E00
0000
0000
FFC0
2100
2100
2100
2100
2600
2000
2000
2000
2000
1F00
ENDCHAR
STARTCHAR uni090E
ENCODING 2318
SWIDTH 522 0
DWIDTH 9 0
BBX 10 15 0 0
BITMAP
1000
0800
0600
0100
FFC0
2100
2100
2100
2100
2600
2000
2000
2000
2000
1F00
ENDCHAR
STARTCHAR uni090F
ENCODING 2319
SWIDTH 526 0
DWIDTH 9 0
BBX 10 11 0 0
BITMAP
FFC0
2100
2100
2100
2100
2600
2000
2000
2000
2000
1F00
ENDCHAR
STARTCHAR uni0910
ENCODING 2320
SWIDTH 526 0
DWIDTH 9 0
BBX 10 15 0 0
BITMAP
0C00
0400
0200
0100
FFC0
2100
2100
2100
2100
2600
2000
2000
2000
2000
1F00
ENDCHAR
STARTCHAR uni0911
ENCODING 2321
SWIDTH 829 0
DWIDTH 15 0
BBX 14 15 1 0
BITMAP
0108
0108
00F0
0000
F1FC
0910
0910
0910
1110
7110
0F10
0910
0910
F110
0110
ENDCHAR
STARTCHAR uni0912
ENCODING 2322
SWIDTH 828 0
DWIDTH 15 0
BBX 14 15 1 0
BITMAP
0080
0080
0060
0010
F1FC
0910
0910
0910
1110
7110
0F10
0910
0910
F110
0110
ENDCHAR
STARTCHAR uni0913
ENCODING 2323
SWIDTH 829 0
DWIDTH 15 0
BBX 14 15 1 0
BITMAP
00C0
0040
0020
0010
F1FC
0910
0910
0910
1110
7110
0F10
0910
0910
F110
0110
ENDCHAR
STARTCHAR uni0914
ENCODING 2324
SWIDTH 829 0
DWIDTH 15 0
BBX 14 15 1 0
BITMAP
0090
0050
0030
0010
F1FC
0910
0910
0910
1110
7110
0F10
0910
0910
F110
0110
ENDCHAR
STARTCHAR uni0915
ENCODING 2325
SWIDTH 725 0
DWIDTH 13 0
BBX 13 11 0 0
BITMAP
FFF8
0200
3BE0
4210
4210
4210
4210
4210
3EE0
0200
0200
ENDCHAR
STARTCHAR uni0916
ENCODING 2326
SWIDTH 696 0
DWIDTH 13 0
BBX 13 11 0 0
BITMAP
FFF8
0820
0820
09A0
0A20
7220
4220
2220
21E0
1020
0820
ENDCHAR
STARTCHAR uni0917
ENCODING 2327
SWIDTH 494 0
DWIDTH 9 0
BBX 9 11 0 0
BITMAP
FF80
2200
2200
2200
2200
2200
C200
0200
0200
0200
0200
ENDCHAR
STARTCHAR uni0918
ENCODING 2328
SWIDTH 559 0
DWIDTH 10 0
BBX 10 11 0 0
BITMAP
FFC0
4100
4100
4100
3900
4100
4100
4100
4100
3F00
0100
ENDCHAR
STARTCHAR uni0919
ENCODING 2329
SWIDTH 505 0
DWIDTH 9 0
BBX 9 11 0 0
BITMAP
FF80
0200
0200
3E00
4000
4080
3E00
0200
4200
4200
3E00
ENDCHAR
STARTCHAR uni091A
ENCODING 2330
SWIDTH 563 0
DWIDTH 10 0
BBX 10 11 0 0
BITMAP
FFC0
0080
0080
FC80
2080
2080
2080
2180
1E80
0080
0080
ENDCHAR
STARTCHAR uni091B
ENCODING 2331
SWIDTH 581 0
DWIDTH 10 0
BBX 11 10 0 1
BITMAP
FFE0
4080
4080
4300
4080
3880
4080
4080
4080
3F00
ENDCHAR
STARTCHAR uni091C
ENCODING 2332
SWIDTH 547 0
DWIDTH 10 0
BBX 10 11 0 0
BITMAP
FFC0
0100
0100
0100
7F00
0900
0900
0900
0900
7100
0100
ENDCHAR
STARTCHAR uni091D
ENCODING 2333
SWIDTH 664 0
DWIDTH 12 0
BBX 12 12 0 -1
BITMAP
FFF0
0440
3C40
4040
4040
4040
3FC0
0240
4240
7C40
4040
4000
ENDCHAR
STARTCHAR uni091E
ENCODING 2334
SWIDTH 592 0
DWIDTH 11 0
BBX 11 11 0 0
BITMAP
FFE0
0080
0080
7080
0880
0880
0F80
0880
0880
7080
0080
ENDCHAR
STARTCHAR uni091F
ENCODING 2335
SWIDTH 485 0
DWIDTH 9 0
BBX 9 10 0 1
BITMAP
FF80
0200
0200
3E00
4000
4000
4000
4100
4100
3E00
ENDCHAR
STARTCHAR uni0920
ENCODING 2336
SWIDTH 512 0
DWIDTH 9 0
BBX 9 10 0 1
BITMAP
FF80
0200
0200
3E00
4100
4100
4100
4100
4100
3E00
ENDCHAR
STARTCHAR uni0921
ENCODING 2337
SWIDTH 475 0
DWIDTH 9 0
BBX 9 11 0 0
BITMAP
FF80
0200
0200
3E00
4000
4000
3E00
0200
4200
4200
3E00
ENDCHAR
STARTCHAR uni0922
ENCODING 2338
SWIDTH 485 0
DWIDTH 9 0
BBX 9 10 0 1
BITMAP
FF80
0200
0200
3E00
4000
4000
4600
4900
4100
3E00
ENDCHAR
STARTCHAR uni0923
ENCODING 2339
SWIDTH 681 0
DWIDTH 12 0
BBX 13 11 0 0
BITMAP
FFF8
4220
4220
4220
4220
4220
2220
3C20
0020
0020
0020
ENDCHAR
STARTCHAR uni0924
ENCODING 2340
SWIDTH 496 0
DWIDTH 9 0
BBX 9 11 0 0
BITMAP
FF80
0200
0200
0200
3E00
4200
4200
4200
4200
4200
3200
ENDCHAR
STARTCHAR uni0925
ENCODING 2341
SWIDTH 593 0
DWIDTH 11 0
BBX 10 11 1 0
BITMAP
71C0
4900
8900
0900
F100
8100
8100
8100
7F00
0100
0100
ENDCHAR
STARTCHAR uni0926
ENCODING 2342
SWIDTH 489 0
DWIDTH 9 0
BBX 9 11 0 0
BITMAP
FF80
0200
0200
3E00
4000
4000
4100
4100
4200
3D00
0100
ENDCHAR
STARTCHAR uni0927
ENCODING 2343
SWIDTH 560 0
DWIDTH 10 0
BBX 10 11 0 0
BITMAP
F3C0
4100
4100
4100
3900
4100
4100
4100
4100
3F00
0100
ENDCHAR
STARTCHAR uni0928
ENCODING 2344
SWIDTH 473 0
DWIDTH 9 0
BBX 9 11 0 0
BITMAP
FF80
0200
0200
0200
7E00
4200
4200
4200
0200
0200
0200
ENDCHAR
STARTCHAR uni0928093C
ENCODING 2345
SWIDTH 473 0
DWIDTH 9 0
BBX 9 11 0 0
BITMAP
FF80
0200
0200
0200
7E00
4200
4200
0200
0200
0200
1200
ENDCHAR
STARTCHAR uni092A
ENCODING 2346
SWIDTH 503 0
DWIDTH 9 0
BBX 9 11 0 0
BITMAP
FF80
4200
4200
4200
4200
4200
2200
1E00
0200
0200
0200
ENDCHAR
STARTCHAR uni092B
ENCODING 2347
SWIDTH 739 0
DWIDTH 13 0
BBX 14 11 0 0
BITMAP
FFFC
4200
42E0
4310
4210
4210
2210
1E10
0260
0200
0200
ENDCHAR
STARTCHAR uni092C
ENCODING 2348
SWIDTH 491 0
DWIDTH 9 0
BBX 9 11 0 0
BITMAP
FF80
0200
3A00
6200
5200
5200
4A00
4600
4200
3E00
0200
ENDCHAR
STARTCHAR uni092D
ENCODING 2349
SWIDTH 491 0
DWIDTH 9 0
BBX 9 11 0 0
BITMAP
CF80
4200
4200
4200
4200
7E00
4200
4200
0200
0200
0200
ENDCHAR
STARTCHAR uni092E
ENCODING 2350
SWIDTH 490 0
DWIDTH 9 0
BBX 9 11 0 0
BITMAP
FF80
4200
4200
4200
4200
7E00
4200
4200
0200
0200
0200
ENDCHAR
STARTCHAR uni092F
ENCODING 2351
SWIDTH 564 0
DWIDTH 10 0
BBX 10 11 0 0
BITMAP
FFC0
0880
0880
0880
7080
4080
4080
4180
3E80
0080
0080
ENDCHAR
STARTCHAR uni0930
ENCODING 2352
SWIDTH 337 0
DWIDTH 6 0
BBX 6 11 0 0
BITMAP
FC
08
08
08
08
70
40
20
20
10
08
ENDCHAR
STARTCHAR uni0930093C
ENCODING 2353
SWIDTH 347 0
DWIDTH 6 0
BBX 7 12 0 -1
BITMAP
FE
08
08
08
08
70
40
20
20
10
08
80
ENDCHAR
STARTCHAR uni0932
ENCODING 2354
SWIDTH 676 0
DWIDTH 12 0
BBX 12 11 0 0
BITMAP
FFF0
0020
0020
3BA0
4660
4420
4420
4020
4020
3820
0020
ENDCHAR
STARTCHAR uni0933
ENCODING 2355
SWIDTH 672 0
DWIDTH 12 0
BBX 12 10 0 1
BITMAP
FFF0
0080
0080
39C0
4620
4220
4220
4220
4620
39C0
ENDCHAR
STARTCHAR uni0933093C
ENCODING 2356
SWIDTH 672 0
DWIDTH 12 0
BBX 12 12 0 -1
BITMAP
FFF0
0080
0080
39C0
4620
4220
4220
4220
4620
39C0
0000
1000
ENDCHAR
STARTCHAR uni0935
ENCODING 2357
SWIDTH 484 0
DWIDTH 9 0
BBX 9 11 0 0
BITMAP
FF80
0200
3A00
4200
4200
4200
4200
4200
4200
3E00
0200
ENDCHAR
STARTCHAR uni0936
ENCODING 2358
SWIDTH 614 0
DWIDTH 11 0
BBX 10 11 1 0
BITMAP
70C0
8900
8900
0900
0900
F100
8100
4100
4100
2100
1100
ENDCHAR
STARTCHAR uni0937
ENCODING 2359
SWIDTH 505 0
DWIDTH 9 0
BBX 9 11 0 0
BITMAP
FF80
6100
5100
4900
4500
4200
2200
3D00
0100
0100
0100
ENDCHAR
STARTCHAR uni0938
ENCODING 2360
SWIDTH 575 0
DWIDTH 10 0
BBX 11 11 0 0
BITMAP
FFE0
1080
1080
1080
1080
7F80
4080
2080
2080
1080
1880
ENDCHAR
STARTCHAR uni0939
ENCODING 2361
SWIDTH 481 0
DWIDTH 9 0
BBX 9 12 0 -1
BITMAP
FF80
0200
0200
3E00
4000
4000
3E00
2200
4200
4000
2000
3E00
ENDCHAR
STARTCHAR uni093C
ENCODING 2364
SWIDTH 0 0
DWIDTH 0 0
BBX 1 1 -3 -2
BITMAP
80
ENDCHAR
STARTCHAR uni093D
ENCODING 2365
SWIDTH 529 0
DWIDTH 10 0
BBX 6 11 2 0
BITMAP
78
80
80
40
60
18
04
04
04
84
78
ENDCHAR
STARTCHAR uni093E
ENCODING 2366
SWIDTH 231 0
DWIDTH 4 0
BBX 4 11 0 0
BITMAP
F0
20
20
20
20
20
20
20
20
20
20
ENDCHAR
STARTCHAR uni093F
ENCODING 2367
SWIDTH 231 0
DWIDTH 4 0
BBX 11 15 0 0
BITMAP
3FE0
2020
2020
2000
F000
2000
2000
2000
2000
2000
2000
2000
2000
2000
2000
ENDCHAR
STARTCHAR uni0940
ENCODING 2368
SWIDTH 231 0
DWIDTH 4 0
BBX 7 15 -3 0
BITMAP
78
84
84
04
1E
04
04
04
04
04
04
04
04
04
04
ENDCHAR
STARTCHAR uni0941
ENCODING 2369
SWIDTH 0 0
DWIDTH 0 0
BBX 7 5 -6 -4
BITMAP
1C
82
82
42
3C
ENDCHAR
STARTCHAR uni0942
ENCODING 2370
SWIDTH 0 0
DWIDTH 0 0
BBX 7 5 -5 -4
BITMAP
78
84
84
82
62
ENDCHAR
STARTCHAR uni0943
ENCODING 2371
SWIDTH 0 0
DWIDTH 0 0
BBX 6 5 -5 -4
BITMAP
60
80
80
84
78
ENDCHAR
STARTCHAR uni0945
ENCODING 2373
SWIDTH 0 0
DWIDTH 0 0
BBX 6 3 -5 12
BITMAP
84
84
78
ENDCHAR
STARTCHAR uni0946
ENCODING 2374
SWIDTH 0 0
DWIDTH 0 0
BBX 5 5 -6 10
BITMAP
80
80
60
10
18
ENDCHAR
STARTCHAR uni0947
ENCODING 2375
SWIDTH 0 0
DWIDTH 0 0
BBX 5 5 -6 10
BITMAP
C0
40
20
10
08
ENDCHAR
STARTCHAR uni0948
ENCODING 2376
SWIDTH 0 0
DWIDTH 0 0
BBX 5 5 -6 10
BITMAP
D0
50
30
10
08
ENDCHAR
STARTCHAR uni0949
ENCODING 2377
SWIDTH 231 0
DWIDTH 4 0
BBX 6 15 -1 0
BITMAP
84
84
78
00
78
10
10
10
10
10
10
10
10
10
10
ENDCHAR
STARTCHAR uni094A
ENCODING 2378
SWIDTH 231 0
DWIDTH 4 0
BBX 6 15 -2 0
BITMAP
80
C0
20
10
3C
08
08
08
08
08
08
08
08
08
08
ENDCHAR
STARTCHAR uni094B
ENCODING 2379
SWIDTH 231 0
DWIDTH 4 0
BBX 5 15 -1 0
BITMAP
80
40
40
20
78
10
10
10
10
10
10
10
10
10
10
ENDCHAR
STARTCHAR uni094C
ENCODING 2380
SWIDTH 231 0
DWIDTH 4 0
BBX 6 15 -2 0
BITMAP
C8
48
28
18
3C
08
08
08
08
08
08
08
08
08
08
ENDCHAR
STARTCHAR uni094D
ENCODING 2381
SWIDTH 0 0
DWIDTH 0 0
BBX 3 3 -3 -4
BITMAP
C0
40
20
ENDCHAR
STARTCHAR uni0950
ENCODING 2384
SWIDTH 847 0
DWIDTH 15 0
BBX 13 14 1 0
BITMAP
0080
0000
0008
78F0
0400
0400
04F0
3808
0808
0788
8488
8488
8488
7870
ENDCHAR
STARTCHAR uni0951
ENCODING 2385
SWIDTH 0 0
DWIDTH 0 0
BBX 1 3 -3 12
BITMAP
80
80
80
ENDCHAR
STARTCHAR uni0952
ENCODING 2386
SWIDTH 0 0
DWIDTH 0 0
BBX 5 1 -7 -2
BITMAP
F8
ENDCHAR
STARTCHAR uni0953
ENCODING 2387
SWIDTH 0 0
DWIDTH 0 0
BBX 3 3 -5 12
BITMAP
C0
40
20
ENDCHAR
STARTCHAR uni0954
ENCODING 2388
SWIDTH 0 0
DWIDTH 0 0
BBX 3 3 -3 12
BITMAP
20
20
C0
ENDCHAR
STARTCHAR uni0915093C
ENCODING 2392
SWIDTH 725 0
DWIDTH 13 0
BBX 13 12 0 -1
BITMAP
FFF8
0200
3BE0
4210
4210
4210
4210
4210
3EE0
0200
0200
1000
ENDCHAR
STARTCHAR uni0916093C
ENCODING 2393
SWIDTH 696 0
DWIDTH 13 0
BBX 13 12 0 -1
BITMAP
FFF8
0820
0820
09A0
0A20
7220
4220
2220
21E0
1020
0820
4000
ENDCHAR
STARTCHAR uni0917093C
ENCODING 2394
SWIDTH 494 0
DWIDTH 9 0
BBX 9 12 0 -1
BITMAP
FF80
2200
2200
2200
2200
2200
C200
0200
0200
0200
0200
2000
ENDCHAR
STARTCHAR uni091C093C
ENCODING 2395
SWIDTH 547 0
DWIDTH 10 0
BBX 10 12 0 -1
BITMAP
FFC0
0100
0100
0100
7F00
0900
0900
0900
0900
7100
0100
2000
ENDCHAR
STARTCHAR uni0921093C
ENCODING 2396
SWIDTH 475 0
DWIDTH 9 0
BBX 9 13 0 -2
BITMAP
FF80
0200
0200
3E00
4000
4000
3E00
0200
4200
4200
3E00
0000
0800
ENDCHAR
STARTCHAR uni0922093C
ENCODING 2397
SWIDTH 485 0
DWIDTH 9 0
BBX 9 13 0 -2
BITMAP
FF80
0200
0200
3E00
4000
4000
4600
4900
4100
3E00
0000
0000
0800
ENDCHAR
STARTCHAR uni092B093C
ENCODING 2398
SWIDTH 739 0
DWIDTH 13 0
BBX 14 12 0 -1
BITMAP
FFFC
4200
42E0
4310
4210
4210
2210
1E10
0260
0200
0200
2000
ENDCHAR
STARTCHAR uni092F093C
ENCODING 2399
SWIDTH 564 0
DWIDTH 10 0
BBX 10 12 0 -1
BITMAP
FFC0
0880
0880
0880
7080
4080
4080
4180
3E80
0080
0080
2000
ENDCHAR
STARTCHAR uni0960
ENCODING 2400
SWIDTH 753 0
DWIDTH 14 0
BBX 14 13 0 -2
BITMAP
FFFC
0200
0200
3E30
4250
4290
4330
0240
0E40
1230
6240
0040
0038
ENDCHAR
STARTCHAR uni0961
ENCODING 2401
SWIDTH 676 0
DWIDTH 12 0
BBX 12 15 0 -4
BITMAP
FFF0
0020
0020
39A0
4660
4420
4420
4420
40E0
3900
0100
00E0
0100
0100
00E0
ENDCHAR
STARTCHAR uni0964
ENCODING 2404
SWIDTH 286 0
DWIDTH 5 0
BBX 1 11 3 0
BITMAP
80
80
80
80
80
80
80
80
80
80
80
ENDCHAR
STARTCHAR uni0965
ENCODING 2405
SWIDTH 518 0
DWIDTH 9 0
BBX 5 11 3 0
BITMAP
88
88
88
88
88
88
88
88
88
88
88
ENDCHAR
STARTCHAR uni0966
ENCODING 2406
SWIDTH 519 0
DWIDTH 9 0
BBX 7 11 1 0
BITMAP
7C
82
82
82
82
82
82
82
82
82
7C
ENDCHAR
STARTCHAR uni0967
ENCODING 2407
SWIDTH 288 0
DWIDTH 5 0
BBX 4 11 0 0
BITMAP
30
D0
10
10
10
10
10
10
10
10
10
ENDCHAR
STARTCHAR uni0968
ENCODING 2408
SWIDTH 453 0
DWIDTH 8 0
BBX 6 11 1 0
BITMAP
7C
84
84
04
04
08
30
40
80
80
FC
ENDCHAR
STARTCHAR uni0969
ENCODING 2409
SWIDTH 489 0
DWIDTH 9 0
BBX 7 11 1 0
BITMAP
7C
84
82
02
04
18
04
02
82
84
7C
ENDCHAR
STARTCHAR uni096A
ENCODING 2410
SWIDTH 453 0
DWIDTH 8 0
BBX 8 11 0 0
BITMAP
06
0A
0A
12
22
22
42
42
FF
02
02
ENDCHAR
STARTCHAR uni096B
ENCODING 2411
SWIDTH 480 0
DWIDTH 9 0
BBX 7 11 1 0
BITMAP
FC
80
80
80
FC
82
02
02
82
82
7C
ENDCHAR
STARTCHAR uni096C
ENCODING 2412
SWIDTH 495 0
DWIDTH 9 0
BBX 7 11 1 0
BITMAP
7C
80
80
80
BC
C2
82
82
82
82
7C
ENDCHAR
STARTCHAR uni096D
ENCODING 2413
SWIDTH 380 0
DWIDTH 7 0
BBX 7 11 0 0
BITMAP
FE
04
04
08
08
08
10
10
10
20
20
ENDCHAR
STARTCHAR uni096E
ENCODING 2414
SWIDTH 523 0
DWIDTH 9 0
BBX 7 11 1 0
BITMAP
7C
82
82
82
82
7C
82
82
82
82
7C
ENDCHAR
STARTCHAR uni096F
ENCODING 2415
SWIDTH 493 0
DWIDTH 9 0
BBX 7 11 1 0
BITMAP
7C
84
82
82
82
82
7E
02
02
04
FC
ENDCHAR
STARTCHAR uni0970
ENCODING 2416
SWIDTH 391 0
DWIDTH 7 0
BBX 5 6 1 2
BITMAP
70
88
88
88
88
70
ENDCHAR
STARTCHAR uni0972
ENCODING 2418
SWIDTH 598 0
DWIDTH 11 0
BBX 10 15 1 0
BITMAP
0440
0440
03C0
0000
F1C0
0900
0900
0900
1100
7100
0F00
0900
0900
F100
0100
ENDCHAR
STARTCHAR Wgrave
ENCODING 7808
SWIDTH 795 0
DWIDTH 14 0
BBX 13 15 1 0
BITMAP
0800
0400
0200
0000
8608
8610
8610
8510
4910
4910
48A0
50A0
50A0
30A0
3040
ENDCHAR
STARTCHAR wgrave
ENCODING 7809
SWIDTH 682 0
DWIDTH 12 0
BBX 12 12 0 0
BITMAP
0800
0400
0000
8210
4610
4620
4520
2920
2940
2940
28C0
1080
ENDCHAR
STARTCHAR Wacute
ENCODING 7810
SWIDTH 795 0
DWIDTH 14 0
BBX 13 15 1 0
BITMAP
0100
0200
0200
0000
8608
8610
8610
8510
4910
4910
48A0
50A0
50A0
30A0
3040
ENDCHAR
STARTCHAR wacute
ENCODING 7811
SWIDTH 682 0
DWIDTH 12 0
BBX 12 12 0 0
BITMAP
0100
0200
0000
8210
4610
4620
4520
2920
2940
2940
28C0
1080
ENDCHAR
STARTCHAR Wdieresis
ENCODING 7812
SWIDTH 795 0
DWIDTH 14 0
BBX 13 15 1 0
BITMAP
0900
0900
0000
0000
8608
8610
8610
8510
4910
4910
48A0
50A0
50A0
30A0
3040
ENDCHAR
STARTCHAR wdieresis
ENCODING 7813
SWIDTH 682 0
DWIDTH 12 0
BBX 12 12 0 0
BITMAP
0900
0900
0000
8210
4610
4620
4520
2920
2940
2940
28C0
1080
ENDCHAR
STARTCHAR uni1E9E
ENCODING 7838
SWIDTH 542 0
DWIDTH 10 0
BBX 8 11 1 0
BITMAP
7E
42
84
84
8E
81
81
81
81
81
9E
ENDCHAR
STARTCHAR Ygrave
ENCODING 7922
SWIDTH 493 0
DWIDTH 9 0
BBX 8 15 0 0
BITMAP
30
10
08
00
C1
41
22
22
14
14
08
08
08
08
08
ENDCHAR
STARTCHAR ygrave
ENCODING 7923
SWIDTH 459 0
DWIDTH 8 0
BBX 7 14 1 -2
BITMAP
60
10
00
82
84
84
44
48
48
30
30
10
20
C0
ENDCHAR
STARTCHAR uni200B
ENCODING 8203
SWIDTH 0 0
DWIDTH 0 0
BBX 1 1 0 0
BITMAP
00
ENDCHAR
STARTCHAR uni200C
ENCODING 8204
SWIDTH 0 0
DWIDTH 0 0
BBX 1 19 0 -4
BITMAP
80
80
80
80
80
80
80
80
80
80
80
80
80
80
80
80
80
80
80
ENDCHAR
STARTCHAR uni200D
ENCODING 8205
SWIDTH 0 0
DWIDTH 0 0
BBX 4 18 -2 -4
BITMAP
90
60
60
B0
20
20
20
20
20
20
20
20
20
20
20
20
20
20
ENDCHAR
STARTCHAR endash
ENCODING 8211
SWIDTH 408 0
DWIDTH 7 0
BBX 6 1 1 5
BITMAP
FC
ENDCHAR
STARTCHAR emdash
ENCODING 8212
SWIDTH 537 0
DWIDTH 10 0
BBX 8 1 1 5
BITMAP
FF
ENDCHAR
STARTCHAR quoteleft
ENCODING 8216
SWIDTH 179 0
DWIDTH 3 0
BBX 1 4 1 7
BITMAP
80
80
80
80
ENDCHAR
STARTCHAR quoteright
ENCODING 8217
SWIDTH 179 0
DWIDTH 3 0
BBX 1 4 1 7
BITMAP
80
80
80
80
ENDCHAR
STARTCHAR quotesinglbase
ENCODING 8218
SWIDTH 187 0
DWIDTH 3 0
BBX 1 4 1 -2
BITMAP
80
80
80
80
ENDCHAR
STARTCHAR quotedblleft
ENCODING 8220
SWIDTH 329 0
DWIDTH 6 0
BBX 4 4 1 7
BITMAP
90
90
90
90
ENDCHAR
STARTCHAR quotedblright
ENCODING 8221
SWIDTH 329 0
DWIDTH 6 0
BBX 4 4 1 7
BITMAP
90
90
90
90
ENDCHAR
STARTCHAR quotedblbase
ENCODING 8222
SWIDTH 337 0
DWIDTH 6 0
BBX 4 4 1 -2
BITMAP
90
90
90
90
ENDCHAR
STARTCHAR dagger
ENCODING 8224
SWIDTH 427 0
DWIDTH 8 0
BBX 6 11 1 0
BITMAP
20
20
20
FC
20
20
20
20
20
20
20
ENDCHAR
STARTCHAR daggerdbl
ENCODING 8225
SWIDTH 427 0
DWIDTH 8 0
BBX 6 11 1 0
BITMAP
20
20
20
FC
20
20
20
FC
20
20
20
ENDCHAR
STARTCHAR bullet
ENCODING 8226
SWIDTH 273 0
DWIDTH 5 0
BBX 1 3 2 4
BITMAP
80
80
80
ENDCHAR
STARTCHAR ellipsis
ENCODING 8230
SWIDTH 591 0
DWIDTH 11 0
BBX 8 3 1 0
BITMAP
89
89
89
ENDCHAR
STARTCHAR perthousand
ENCODING 8240
SWIDTH 1027 0
DWIDTH 18 0
BBX 17 11 1 0
BITMAP
F10000
890000
8A0000
8A0000
740000
040000
09C700
0A2880
0A2880
122880
11E700
ENDCHAR
STARTCHAR guilsinglleft
ENCODING 8249
SWIDTH 290 0
DWIDTH 5 0
BBX 3 6 1 2
BITMAP
20
20
40
80
40
20
ENDCHAR
STARTCHAR guilsinglright
ENCODING 8250
SWIDTH 290 0
DWIDTH 5 0
BBX 3 6 1 2
BITMAP
80
80
40
20
40
80
ENDCHAR
STARTCHAR fraction
ENCODING 8260
SWIDTH 117 0
DWIDTH 2 0
BBX 10 11 -4 0
BITMAP
00C0
0080
0100
0200
0400
0400
0800
1000
2000
4000
C000
ENDCHAR
STARTCHAR Euro
ENCODING 8364
SWIDTH 523 0
DWIDTH 9 0
BBX 7 11 1 0
BITMAP
3C
42
42
40
F8
40
F8
40
42
42
3C
ENDCHAR
STARTCHAR uni20B9
ENCODING 8377
SWIDTH 414 0
DWIDTH 7 0
BBX 6 11 1 0
BITMAP
FC
10
FC
10
10
E0
80
40
60
20
10
ENDCHAR
STARTCHAR trademark
ENCODING 8482
SWIDTH 591 0
DWIDTH 11 0
BBX 8 4 1 7
BITMAP
F9
4D
4B
49
ENDCHAR
STARTCHAR uni2126
ENCODING 8486
SWIDTH 629 0
DWIDTH 11 0
BBX 10 11 1 0
BITMAP
3F00
4100
4080
4080
4080
4080
4080
4080
4080
4100
F7C0
ENDCHAR
STARTCHAR partialdiff
ENCODING 8706
SWIDTH 481 0
DWIDTH 9 0
BBX 7 12 1 0
BITMAP
70
08
04
04
7A
86
82
82
82
82
84
7C
ENDCHAR
STARTCHAR uni2206
ENCODING 8710
SWIDTH 594 0
DWIDTH 11 0
BBX 9 11 1 0
BITMAP
0800
1400
1400
2400
2200
2200
4200
4100
8100
8080
FF80
ENDCHAR
STARTCHAR minus
ENCODING 8722
SWIDTH 523 0
DWIDTH 9 0
BBX 7 1 1 5
BITMAP
FE
ENDCHAR
STARTCHAR approxequal
ENCODING 8776
SWIDTH 523 0
DWIDTH 9 0
BBX 7 4 1 4
BITMAP
FE
00
00
FE
ENDCHAR
STARTCHAR notequal
ENCODING 8800
SWIDTH 523 0
DWIDTH 9 0
BBX 7 8 1 2
BITMAP
08
08
FE
10
10
FE
20
20
ENDCHAR
STARTCHAR lessequal
ENCODING 8804
SWIDTH 523 0
DWIDTH 9 0
BBX 7 7 1 2
BITMAP
06
38
C0
38
06
00
FE
ENDCHAR
STARTCHAR greaterequal
ENCODING 8805
SWIDTH 523 0
DWIDTH 9 0
BBX 7 7 1 2
BITMAP
C0
38
06
1C
E0
00
FE
ENDCHAR
STARTCHAR uni25CC
ENCODING 9676
SWIDTH 701 0
DWIDTH 13 0
BBX 11 10 1 1
BITMAP
0F00
3DC0
20C0
4040
4060
C000
C040
6080
1680
1E00
ENDCHAR
STARTCHAR commaaccent
ENCODING 63171
SWIDTH 0 0
DWIDTH 0 0
BBX 1 4 4 -4
BITMAP
80
80
80
80
ENDCHAR
STARTCHAR .notdef
ENCODING -1
SWIDTH 600 0
DWIDTH 11 0
BBX 7 10 2 0
BITMAP
FE
82
82
82
82
82
82
82
82
FE
ENDCHAR
STARTCHAR .null
ENCODING -1
SWIDTH 0 0
DWIDTH 0 0
BBX 1 1 0 0
BITMAP
00
ENDCHAR
STARTCHAR nonmarkingreturn
ENCODING -1
SWIDTH 333 0
DWIDTH 6 0
BBX 1 1 0 0
BITMAP
00
ENDCHAR
STARTCHAR uni0915094D
ENCODING -1
SWIDTH 519 0
DWIDTH 9 0
BBX 12 11 0 0
BITMAP
FFF0
0200
3BE0
4210
4200
4200
4200
4200
3E00
0200
0200
ENDCHAR
STARTCHAR uni0916094D
ENCODING -1
SWIDTH 468 0
DWIDTH 8 0
BBX 11 11 0 0
BITMAP
FFC0
0800
0800
0980
0A00
7200
4200
2220
21C0
1000
0800
ENDCHAR
STARTCHAR uni0917094D
ENCODING -1
SWIDTH 264 0
DWIDTH 5 0
BBX 5 7 0 4
BITMAP
F8
20
20
20
20
20
C0
ENDCHAR
STARTCHAR uni0918094D
ENCODING -1
SWIDTH 321 0
DWIDTH 6 0
BBX 8 10 0 1
BITMAP
FF
40
40
40
38
40
40
40
41
3E
ENDCHAR
STARTCHAR uni0919094D
ENCODING -1
SWIDTH 505 0
DWIDTH 9 0
BBX 9 15 0 -4
BITMAP
FF80
0200
0200
3E00
4000
4080
3E00
0200
4200
4200
3E00
0000
0800
0400
0600
ENDCHAR
STARTCHAR uni091A094D
ENCODING -1
SWIDTH 330 0
DWIDTH 6 0
BBX 8 9 0 2
BITMAP
FF
00
00
FC
20
20
20
21
1E
ENDCHAR
STARTCHAR uni091B094D
ENCODING -1
SWIDTH 581 0
DWIDTH 10 0
BBX 11 10 0 1
BITMAP
FFE0
4000
4300
4080
4080
3880
4080
4080
4080
3F00
ENDCHAR
STARTCHAR uni091C094D
ENCODING -1
SWIDTH 309 0
DWIDTH 6 0
BBX 7 10 0 1
BITMAP
FE
00
00
00
7E
08
08
08
08
70
ENDCHAR
STARTCHAR uni091D094D
ENCODING -1
SWIDTH 432 0
DWIDTH 8 0
BBX 10 12 0 -1
BITMAP
FFC0
0400
3C00
4000
4000
4000
3FC0
0200
4200
7C00
4000
4000
ENDCHAR
STARTCHAR uni091E094D
ENCODING -1
SWIDTH 359 0
DWIDTH 6 0
BBX 8 10 0 1
BITMAP
FF
00
00
70
08
08
0F
08
08
70
ENDCHAR
STARTCHAR uni091F094D
ENCODING -1
SWIDTH 485 0
DWIDTH 9 0
BBX 9 14 0 -3
BITMAP
FF80
0200
0200
3E00
4000
4000
4000
4100
4100
3E00
0000
0800
0400
0600
ENDCHAR
STARTCHAR uni0920094D
ENCODING -1
SWIDTH 512 0
DWIDTH 9 0
BBX 9 14 0 -3
BITMAP
FF80
0200
0200
3E00
4100
4100
4100
4100
4100
3E00
0000
0800
0400
0600
ENDCHAR
STARTCHAR uni0921094D
ENCODING -1
SWIDTH 475 0
DWIDTH 9 0
BBX 9 15 0 -4
BITMAP
FF80
0200
0200
3E00
4000
4000
3E00
0200
4200
4200
3E00
0000
0800
0400
0200
ENDCHAR
STARTCHAR uni0922094D
ENCODING -1
SWIDTH 485 0
DWIDTH 9 0
BBX 9 14 0 -3
BITMAP
FF80
0200
0200
3E00
4000
4000
4600
4900
4100
3E00
0000
0800
0400
0600
ENDCHAR
STARTCHAR uni0923094D
ENCODING -1
SWIDTH 454 0
DWIDTH 8 0
BBX 8 8 0 3
BITMAP
FF
42
42
42
42
42
22
3C
ENDCHAR
STARTCHAR uni0924094D
ENCODING -1
SWIDTH 263 0
DWIDTH 5 0
BBX 7 11 0 0
BITMAP
FE
00
00
3E
40
40
40
40
40
40
30
ENDCHAR
STARTCHAR uni0925094D
ENCODING -1
SWIDTH 359 0
DWIDTH 6 0
BBX 8 9 1 2
BITMAP
70
48
88
08
F0
80
80
81
7E
ENDCHAR
STARTCHAR uni0926094D
ENCODING -1
SWIDTH 489 0
DWIDTH 9 0
BBX 9 14 0 -3
BITMAP
FF80
0200
0200
3E00
4000
4000
4100
4100
4200
3D00
0100
0800
0400
0400
ENDCHAR
STARTCHAR uni0927094D
ENCODING -1
SWIDTH 321 0
DWIDTH 6 0
BBX 8 10 0 1
BITMAP
F3
40
40
40
38
40
40
40
41
3E
ENDCHAR
STARTCHAR uni0928094D
ENCODING -1
SWIDTH 233 0
DWIDTH 4 0
BBX 6 8 0 3
BITMAP
FC
00
00
00
7C
40
40
40
ENDCHAR
STARTCHAR uni092A094D
ENCODING -1
SWIDTH 269 0
DWIDTH 5 0
BBX 7 8 0 3
BITMAP
FE
40
40
40
40
40
22
1C
ENDCHAR
STARTCHAR uni092B094D
ENCODING -1
SWIDTH 530 0
DWIDTH 10 0
BBX 12 11 0 0
BITMAP
FFF0
4200
42E0
4310
4200
4200
2200
1E00
0200
0200
0200
ENDCHAR
STARTCHAR uni092C094D
ENCODING -1
SWIDTH 265 0
DWIDTH 5 0
BBX 7 10 0 1
BITMAP
FE
00
38
60
50
50
4A
46
42
3C
ENDCHAR
STARTCHAR uni092D094D
ENCODING -1
SWIDTH 261 0
DWIDTH 5 0
BBX 7 8 0 3
BITMAP
CE
40
40
40
40
7E
40
40
ENDCHAR
STARTCHAR uni092E094D
ENCODING -1
SWIDTH 261 0
DWIDTH 5 0
BBX 7 8 0 3
BITMAP
FE
40
40
40
40
7E
40
40
ENDCHAR
STARTCHAR uni092F094D
ENCODING -1
SWIDTH 323 0
DWIDTH 6 0
BBX 8 9 0 2
BITMAP
FF
08
08
08
70
40
40
41
3E
ENDCHAR
STARTCHAR uni0930094D
ENCODING -1
SWIDTH 337 0
DWIDTH 6 0
BBX 6 15 0 -4
BITMAP
FC
08
08
08
08
70
40
20
20
10
08
00
30
10
08
ENDCHAR
STARTCHAR uni0932094D
ENCODING -1
SWIDTH 431 0
DWIDTH 8 0
BBX 10 10 0 1
BITMAP
FFC0
0000
0000
3B80
4640
4400
4400
4000
4000
3800
ENDCHAR
STARTCHAR uni0933094D
ENCODING -1
SWIDTH 677 0
DWIDTH 12 0
BBX 12 10 0 1
BITMAP
FFF0
0000
0000
39C0
4620
4220
4220
4220
4620
39C0
ENDCHAR
STARTCHAR uni0935094D
ENCODING -1
SWIDTH 255 0
DWIDTH 5 0
BBX 7 10 0 1
BITMAP
FE
00
38
40
40
40
42
42
42
3C
ENDCHAR
STARTCHAR uni0936094D
ENCODING -1
SWIDTH 378 0
DWIDTH 7 0
BBX 5 11 1 0
BITMAP
70
88
88
08
08
F0
80
40
40
20
10
ENDCHAR
STARTCHAR uni0937094D
ENCODING -1
SWIDTH 282 0
DWIDTH 5 0
BBX 8 8 0 3
BITMAP
FE
60
50
48
44
42
23
3C
ENDCHAR
STARTCHAR uni0938094D
ENCODING -1
SWIDTH 338 0
DWIDTH 6 0
BBX 8 11 0 0
BITMAP
FF
10
10
10
10
7F
40
20
20
10
18
ENDCHAR
STARTCHAR uni0939094D
ENCODING -1
SWIDTH 457 0
DWIDTH 8 0
BBX 10 12 0 -1
BITMAP
FF80
0200
0200
3E00
4000
4000
3FC0
2000
4000
4000
2000
3E00
ENDCHAR
STARTCHAR uni0915093C094D
ENCODING -1
SWIDTH 519 0
DWIDTH 9 0
BBX 12 12 0 -1
BITMAP
FFF0
0200
3BE0
4210
4200
4200
4200
4200
3E00
0200
0200
2000
ENDCHAR
STARTCHAR uni0916093C094D
ENCODING -1
SWIDTH 463 0
DWIDTH 8 0
BBX 11 12 0 -1
BITMAP
FFC0
0800
0800
0980
0A00
7200
4200
2220
21C0
1000
0800
4000
ENDCHAR
STARTCHAR uni0917093C094D
ENCODING -1
SWIDTH 264 0
DWIDTH 5 0
BBX 5 11 0 0
BITMAP
F8
20
20
20
20
20
C0
00
00
00
20
ENDCHAR
STARTCHAR uni091C093C094D
ENCODING -1
SWIDTH 314 0
DWIDTH 6 0
BBX 7 12 0 -1
BITMAP
FE
00
00
00
7E
08
08
08
08
70
00
20
ENDCHAR
STARTCHAR uni0928093C094D
ENCODING -1
SWIDTH 241 0
DWIDTH 4 0
BBX 6 11 0 0
BITMAP
FC
00
00
00
7C
40
40
00
00
00
20
ENDCHAR
STARTCHAR uni092B093C094D
ENCODING -1
SWIDTH 530 0
DWIDTH 10 0
BBX 12 12 0 -1
BITMAP
FFF0
4200
42E0
4310
4200
4200
2200
1E00
0200
0200
0200
2000
ENDCHAR
STARTCHAR uni092F093C094D
ENCODING -1
SWIDTH 325 0
DWIDTH 6 0
BBX 8 12 0 -1
BITMAP
FF
08
08
08
70
40
40
41
3E
00
00
10
ENDCHAR
STARTCHAR uni09080902
ENCODING -1
SWIDTH 478 0
DWIDTH 9 0
BBX 9 16 0 -1
BITMAP
0700
0400
0900
0800
FF80
0200
0200
3E00
4000
4000
3E00
0200
4100
4200
7E00
4000
ENDCHAR
STARTCHAR uni09300941
ENCODING -1
SWIDTH 533 0
DWIDTH 10 0
BBX 10 11 0 0
BITMAP
FFC0
0800
0800
0F00
0900
7080
4100
2100
2600
1000
0800
ENDCHAR
STARTCHAR uni09300942
ENCODING -1
SWIDTH 645 0
DWIDTH 12 0
BBX 12 11 0 0
BITMAP
FFF0
0800
0800
0BC0
0A40
7220
4040
2040
2180
1000
0800
ENDCHAR
STARTCHAR uni09390941
ENCODING -1
SWIDTH 495 0
DWIDTH 9 0
BBX 9 15 0 -4
BITMAP
FF80
0200
3E00
4000
4000
3E00
2200
4200
4000
2000
3E00
0100
4100
2100
1E00
ENDCHAR
STARTCHAR uni09390942
ENCODING -1
SWIDTH 492 0
DWIDTH 9 0
BBX 9 15 0 -4
BITMAP
FF80
0200
3E00
2000
4000
2000
3E00
4200
4200
4000
3C00
2200
2100
2100
3900
ENDCHAR
STARTCHAR uni09260943
ENCODING -1
SWIDTH 390 0
DWIDTH 7 0
BBX 7 10 0 1
BITMAP
FE
04
3C
40
40
38
40
40
40
3C
ENDCHAR
STARTCHAR uni09390943
ENCODING -1
SWIDTH 519 0
DWIDTH 9 0
BBX 10 13 0 -2
BITMAP
FFC0
0200
0200
3E00
4000
4000
3F00
4880
4800
4800
4700
4000
3E00
ENDCHAR
STARTCHAR uni094D0930
ENCODING -1
SWIDTH 0 0
DWIDTH 0 0
BBX 5 4 -7 -3
BITMAP
20
50
50
88
ENDCHAR
STARTCHAR uni0930094D.1
ENCODING -1
SWIDTH 192 0
DWIDTH 3 0
BBX 6 5 -1 6
BITMAP
78
00
00
84
78
ENDCHAR
STARTCHAR uni0930094D.2
ENCODING -1
SWIDTH 0 0
DWIDTH 0 0
BBX 3 5 -3 10
BITMAP
60
80
80
80
80
ENDCHAR
STARTCHAR uni0930094D0902
ENCODING -1
SWIDTH 0 0
DWIDTH 0 0
BBX 3 5 -3 10
BITMAP
60
80
A0
80
80
ENDCHAR
STARTCHAR uni093E0930094D
ENCODING -1
SWIDTH 231 0
DWIDTH 4 0
BBX 5 15 0 0
BITMAP
38
20
20
20
F0
20
20
20
20
20
20
20
20
20
20
ENDCHAR
STARTCHAR uni093E0930094D0902
ENCODING -1
SWIDTH 231 0
DWIDTH 4 0
BBX 5 15 0 0
BITMAP
38
20
28
20
F0
20
20
20
20
20
20
20
20
20
20
ENDCHAR
STARTCHAR uni0930094D.aMatraI
ENCODING -1
SWIDTH 0 0
DWIDTH 0 0
BBX 3 4 -1 11
BITMAP
60
80
80
80
ENDCHAR
STARTCHAR uni0902.aMatraI
ENCODING -1
SWIDTH 0 0
DWIDTH 0 0
BBX 1 1 1 13
BITMAP
80
ENDCHAR
STARTCHAR uni0930094D0902.aMatraI
ENCODING -1
SWIDTH 0 0
DWIDTH 0 0
BBX 3 4 -1 11
BITMAP
60
80
A0
80
ENDCHAR
STARTCHAR uni09400930094D
ENCODING -1
SWIDTH 231 0
DWIDTH 4 0
BBX 8 15 -3 0
BITMAP
7F
84
84
04
1E
04
04
04
04
04
04
04
04
04
04
ENDCHAR
STARTCHAR uni09400902
ENCODING -1
SWIDTH 231 0
DWIDTH 4 0
BBX 7 15 -3 0
BITMAP
78
86
84
04
1E
04
04
04
04
04
04
04
04
04
04
ENDCHAR
STARTCHAR uni09400930094D0902
ENCODING -1
SWIDTH 231 0
DWIDTH 4 0
BBX 8 15 -3 0
BITMAP
7F
84
85
04
1E
04
04
04
04
04
04
04
04
04
04
ENDCHAR
STARTCHAR uni0940.aLong
ENCODING -1
SWIDTH 231 0
DWIDTH 4 0
BBX 11 15 -7 0
BITMAP
7F80
8040
8040
0040
01E0
0040
0040
0040
0040
0040
0040
0040
0040
0040
0040
ENDCHAR
STARTCHAR uni09400930094D.aLong
ENCODING -1
SWIDTH 231 0
DWIDTH 4 0
BBX 12 15 -7 0
BITMAP
7FF0
8040
8040
0040
01E0
0040
0040
0040
0040
0040
0040
0040
0040
0040
0040
ENDCHAR
STARTCHAR uni09400902.aLong
ENCODING -1
SWIDTH 231 0
DWIDTH 4 0
BBX 12 15 -7 0
BITMAP
7F80
8050
8040
0040
01E0
0040
0040
0040
0040
0040
0040
0040
0040
0040
0040
ENDCHAR
STARTCHAR uni09400930094D0902.aLong
ENCODING -1
SWIDTH 231 0
DWIDTH 4 0
BBX 12 15 -7 0
BITMAP
7FF0
8040
8050
0040
01E0
0040
0040
0040
0040
0040
0040
0040
0040
0040
0040
ENDCHAR
STARTCHAR uni09470930094D
ENCODING -1
SWIDTH 0 0
DWIDTH 0 0
BBX 6 4 -6 11
BITMAP
CC
30
30
10
ENDCHAR
STARTCHAR uni09470902
ENCODING -1
SWIDTH 0 0
DWIDTH 0 0
BBX 6 5 -6 10
BITMAP
C0
44
20
10
08
ENDCHAR
STARTCHAR uni09470901
ENCODING -1
SWIDTH 0 0
DWIDTH 0 0
BBX 10 5 -6 10
BITMAP
C200
4840
2F80
1000
0800
ENDCHAR
STARTCHAR uni09470930094D0902
ENCODING -1
SWIDTH 0 0
DWIDTH 0 0
BBX 6 4 -6 11
BITMAP
CC
34
30
10
ENDCHAR
STARTCHAR uni09480930094D
ENCODING -1
SWIDTH 0 0
DWIDTH 0 0
BBX 6 5 -6 10
BITMAP
94
58
30
30
10
ENDCHAR
STARTCHAR uni09480902
ENCODING -1
SWIDTH 0 0
DWIDTH 0 0
BBX 6 5 -6 10
BITMAP
90
50
34
30
10
ENDCHAR
STARTCHAR uni09480901
ENCODING -1
SWIDTH 0 0
DWIDTH 0 0
BBX 11 5 -6 10
BITMAP
9080
5420
3420
33C0
1000
ENDCHAR
STARTCHAR uni09480930094D0902
ENCODING -1
SWIDTH 0 0
DWIDTH 0 0
BBX 6 5 -6 10
BITMAP
94
58
34
30
10
ENDCHAR
STARTCHAR uni094B0930094D
ENCODING -1
SWIDTH 231 0
DWIDTH 4 0
BBX 6 15 -1 0
BITMAP
9C
50
50
30
78
10
10
10
10
10
10
10
10
10
10
ENDCHAR
STARTCHAR uni094B0902
ENCODING -1
SWIDTH 231 0
DWIDTH 4 0
BBX 5 15 -1 0
BITMAP
80
48
40
20
78
10
10
10
10
10
10
10
10
10
10
ENDCHAR
STARTCHAR uni094B0930094D0902
ENCODING -1
SWIDTH 231 0
DWIDTH 4 0
BBX 6 15 -1 0
BITMAP
9C
50
54
30
78
10
10
10
10
10
10
10
10
10
10
ENDCHAR
STARTCHAR uni094C0930094D
ENCODING -1
SWIDTH 231 0
DWIDTH 4 0
BBX 7 15 -2 0
BITMAP
96
58
38
18
3C
08
08
08
08
08
08
08
08
08
08
ENDCHAR
STARTCHAR uni094C0902
ENCODING -1
SWIDTH 231 0
DWIDTH 4 0
BBX 6 15 -2 0
BITMAP
C8
4C
28
18
3C
08
08
08
08
08
08
08
08
08
08
ENDCHAR
STARTCHAR uni094C0930094D0902
ENCODING -1
SWIDTH 231 0
DWIDTH 4 0
BBX 7 15 -2 0
BITMAP
96
58
3A
18
3C
08
08
08
08
08
08
08
08
08
08
ENDCHAR
STARTCHAR uni0915094D0937
ENCODING -1
SWIDTH 656 0
DWIDTH 12 0
BBX 11 11 1 0
BITMAP
38E0
4480
4480
4480
7F80
8080
8080
8480
8480
7C80
0480
ENDCHAR
STARTCHAR uni0915094D0937094D
ENCODING -1
SWIDTH 429 0
DWIDTH 8 0
BBX 9 11 1 0
BITMAP
3800
4400
4400
4400
7F80
8000
8000
8400
8400
7C00
0400
ENDCHAR
STARTCHAR uni0915094D0937094D092E
ENCODING -1
SWIDTH 933 0
DWIDTH 17 0
BBX 16 11 1 0
BITMAP
39FF
4484
4484
4484
7F84
80FC
8084
8484
8404
7C04
0404
ENDCHAR
STARTCHAR uni0915094D0937094D092E094D
ENCODING -1
SWIDTH 717 0
DWIDTH 13 0
BBX 14 11 1 0
BITMAP
39FC
4480
4480
4480
7F80
80FC
8080
8480
8400
7C00
0400
ENDCHAR
STARTCHAR uni0915094D0937094D092E094D092F
ENCODING -1
SWIDTH 1283 0
DWIDTH 23 0
BBX 22 11 1 0
BITMAP
39FFFC
448088
448088
448088
7F8708
80FC08
808410
848410
8403E8
7C0008
040008
ENDCHAR
STARTCHAR uni0915094D0937094D092F
ENCODING -1
SWIDTH 989 0
DWIDTH 18 0
BBX 17 11 1 0
BITMAP
39FF80
442200
442200
442200
7FE200
808200
808200
848200
847E00
7C0200
040200
ENDCHAR
STARTCHAR uni0915094D0937094D0935
ENCODING -1
SWIDTH 936 0
DWIDTH 17 0
BBX 16 11 1 0
BITMAP
39FF
4404
4474
4444
7F84
8084
8084
8484
8444
7C7C
0404
ENDCHAR
STARTCHAR uni091C094D091E
ENCODING -1
SWIDTH 629 0
DWIDTH 11 0
BBX 12 12 0 -1
BITMAP
FFF0
0040
0040
3FC0
4040
4040
3E40
0240
4240
4240
7E40
4000
ENDCHAR
STARTCHAR uni091C094D091E094D
ENCODING -1
SWIDTH 398 0
DWIDTH 7 0
BBX 9 12 0 -1
BITMAP
FF80
0000
0000
3F80
4000
4000
3E00
0200
4200
4200
7E00
4000
ENDCHAR
STARTCHAR uni091C094D091E094D092F
ENCODING -1
SWIDTH 975 0
DWIDTH 18 0
BBX 18 12 0 -1
BITMAP
FFFFC0
001100
001100
3F9100
40E100
408100
3E8100
024100
423F00
420100
7E0100
400000
ENDCHAR
STARTCHAR uni0915094D0928
ENCODING -1
SWIDTH 1003 0
DWIDTH 18 0
BBX 18 11 0 0
BITMAP
FFFFC0
020100
3BE100
421100
421F00
422100
422100
420100
3E0100
020100
020100
ENDCHAR
STARTCHAR uni0916094D0928
ENCODING -1
SWIDTH 958 0
DWIDTH 17 0
BBX 18 11 0 0
BITMAP
FFFFC0
080100
080100
09C100
0A2100
723F00
424100
21C100
202100
100100
080100
ENDCHAR
STARTCHAR uni0917094D0928
ENCODING -1
SWIDTH 736 0
DWIDTH 13 0
BBX 14 11 0 0
BITMAP
FFFC
2010
2010
2010
23F0
2210
C210
0010
0010
0010
0010
ENDCHAR
STARTCHAR uni0918094D0928
ENCODING -1
SWIDTH 814 0
DWIDTH 15 0
BBX 15 11 0 0
BITMAP
FFFE
4008
4008
4008
38F8
4108
4108
4108
3F08
0008
0008
ENDCHAR
STARTCHAR uni091A094D0928
ENCODING -1
SWIDTH 829 0
DWIDTH 15 0
BBX 15 11 0 0
BITMAP
FFFE
0008
0008
FC08
20F8
2108
2108
2108
1E88
0008
0008
ENDCHAR
STARTCHAR uni091B094D0928
ENCODING -1
SWIDTH 977 0
DWIDTH 18 0
BBX 18 11 0 0
BITMAP
FFFFC0
400100
430100
408100
20BF00
38A100
40A100
40A100
408100
3F0100
000100
ENDCHAR
STARTCHAR uni091C094D0928
ENCODING -1
SWIDTH 831 0
DWIDTH 15 0
BBX 15 11 0 0
BITMAP
FFFE
0008
0008
0008
7FF8
0908
0908
0808
0808
7008
0008
ENDCHAR
STARTCHAR uni091D094D0928
ENCODING -1
SWIDTH 935 0
DWIDTH 17 0
BBX 17 12 0 -1
BITMAP
FFFF80
040200
3C0200
400200
403E00
404200
3FC200
024200
420200
7C0200
400200
400000
ENDCHAR
STARTCHAR uni091F094D0928
ENCODING -1
SWIDTH 494 0
DWIDTH 9 0
BBX 9 15 0 -4
BITMAP
FF80
0200
0200
3E00
4000
4000
4100
4100
3E00
0200
0200
3E00
4200
4200
0200
ENDCHAR
STARTCHAR uni0920094D0928
ENCODING -1
SWIDTH 516 0
DWIDTH 9 0
BBX 10 15 0 -4
BITMAP
FFC0
0200
0200
3E00
4100
4100
4100
4100
3E00
0200
0200
3E00
4200
4200
0200
ENDCHAR
STARTCHAR uni0921094D0928
ENCODING -1
SWIDTH 481 0
DWIDTH 9 0
BBX 9 15 0 -4
BITMAP
FF80
0200
3E00
4000
4000
3E00
0200
4100
4200
3E00
0200
3E00
4200
4200
0200
ENDCHAR
STARTCHAR uni0924094D0928
ENCODING -1
SWIDTH 756 0
DWIDTH 14 0
BBX 14 11 0 0
BITMAP
FFFC
0010
0010
3E10
43F0
4210
4210
4010
4010
4010
3010
ENDCHAR
STARTCHAR uni0925094D0928
ENCODING -1
SWIDTH 855 0
DWIDTH 15 0
BBX 15 11 1 0
BITMAP
73FE
4808
8808
0808
F1F8
8108
8108
8308
7D08
0008
0008
ENDCHAR
STARTCHAR uni0926094D0928
ENCODING -1
SWIDTH 955 0
DWIDTH 17 0
BBX 17 15 0 -4
BITMAP
FFFF80
020100
020100
3E0100
403F00
404100
414100
412100
420100
3D0100
010100
000000
010000
010000
008000
ENDCHAR
STARTCHAR uni0927094D0928
ENCODING -1
SWIDTH 814 0
DWIDTH 15 0
BBX 15 11 0 0
BITMAP
F9FE
4008
4008
4008
38F8
4108
4108
4108
3F08
0008
0008
ENDCHAR
STARTCHAR uni0928094D0928
ENCODING -1
SWIDTH 738 0
DWIDTH 13 0
BBX 14 11 0 0
BITMAP
FFFC
0010
0010
0010
7FF0
4210
4210
4210
0010
0010
0010
ENDCHAR
STARTCHAR uni092A094D0928
ENCODING -1
SWIDTH 782 0
DWIDTH 14 0
BBX 14 11 0 0
BITMAP
FFFC
4010
4010
4010
41F0
4210
2210
1F10
0010
0010
0010
ENDCHAR
STARTCHAR uni092B094D0928
ENCODING -1
SWIDTH 1013 0
DWIDTH 18 0
BBX 19 11 0 0
BITMAP
FFFFE0
420080
42E080
431080
421F80
421080
222080
1E1080
020080
020080
020080
ENDCHAR
STARTCHAR uni092C094D0928
ENCODING -1
SWIDTH 810 0
DWIDTH 15 0
BBX 15 11 0 0
BITMAP
FFFE
0008
3808
6008
51F8
5108
4908
4508
4208
3C08
0008
ENDCHAR
STARTCHAR uni092D094D0928
ENCODING -1
SWIDTH 757 0
DWIDTH 14 0
BBX 14 11 0 0
BITMAP
CFFC
4010
4010
4010
41F0
7E10
4210
4210
0010
0010
0010
ENDCHAR
STARTCHAR uni092E094D0928
ENCODING -1
SWIDTH 757 0
DWIDTH 14 0
BBX 14 11 0 0
BITMAP
FFFC
4010
4010
4010
41F0
7E10
4210
4210
0010
0010
0010
ENDCHAR
STARTCHAR uni092F094D0928
ENCODING -1
SWIDTH 829 0
DWIDTH 15 0
BBX 15 11 0 0
BITMAP
FFFE
0808
0808
0808
70F8
4108
4108
2108
3E88
0008
0008
ENDCHAR
STARTCHAR uni0935094D0928
ENCODING -1
SWIDTH 798 0
DWIDTH 14 0
BBX 15 11 0 0
BITMAP
FFFE
0008
3808
4008
41F8
4108
4108
4108
4208
3C08
0008
ENDCHAR
STARTCHAR uni0936094D0928
ENCODING -1
SWIDTH 845 0
DWIDTH 15 0
BBX 14 11 1 0
BITMAP
73FC
8808
8808
0808
09F8
F208
8208
4108
4008
2008
1008
ENDCHAR
STARTCHAR uni0938094D0928
ENCODING -1
SWIDTH 831 0
DWIDTH 15 0
BBX 15 11 0 0
BITMAP
FFFE
1008
1008
1008
10F8
7F08
4108
2108
2008
1008
1808
ENDCHAR
STARTCHAR uni0939094D0928
ENCODING -1
SWIDTH 500 0
DWIDTH 9 0
BBX 9 13 0 -2
BITMAP
FF80
0100
0100
3E00
4000
4000
3F00
2300
4500
4900
4400
2000
3E00
ENDCHAR
STARTCHAR uni0915094D0930
ENCODING -1
SWIDTH 725 0
DWIDTH 13 0
BBX 13 12 0 -1
BITMAP
FFF8
0200
3BE0
4210
4210
4210
4210
4210
3EE0
0A00
1200
2000
ENDCHAR
STARTCHAR uni0916094D0930
ENCODING -1
SWIDTH 698 0
DWIDTH 13 0
BBX 13 12 0 -1
BITMAP
FFF8
0820
0820
09A0
0A20
7220
4220
2220
21E0
10A0
0920
0200
ENDCHAR
STARTCHAR uni0917094D0930
ENCODING -1
SWIDTH 494 0
DWIDTH 9 0
BBX 9 11 0 0
BITMAP
FF80
2200
2200
2200
2200
2200
C600
0600
0A00
1200
2200
ENDCHAR
STARTCHAR uni0918094D0930
ENCODING -1
SWIDTH 559 0
DWIDTH 10 0
BBX 10 12 0 -1
BITMAP
FFC0
4100
4100
4100
3900
4100
4100
4100
4100
3F00
0900
1000
ENDCHAR
STARTCHAR uni0919094D0930
ENCODING -1
SWIDTH 505 0
DWIDTH 9 0
BBX 9 14 0 -3
BITMAP
FF80
0200
0200
3E00
4000
4080
3E00
0200
0200
4200
3E00
1400
2400
2200
ENDCHAR
STARTCHAR uni091A094D0930
ENCODING -1
SWIDTH 563 0
DWIDTH 10 0
BBX 10 11 0 0
BITMAP
FFC0
0080
0080
FC80
2080
2080
2080
2180
1E80
0480
1880
ENDCHAR
STARTCHAR uni091B094D0930
ENCODING -1
SWIDTH 581 0
DWIDTH 10 0
BBX 11 13 0 -2
BITMAP
FFE0
4080
4080
4300
4080
3880
4080
4080
4080
3F00
0A00
1200
1100
ENDCHAR
STARTCHAR uni091C094D0930
ENCODING -1
SWIDTH 547 0
DWIDTH 10 0
BBX 10 11 0 0
BITMAP
FFC0
0100
0100
7F00
0900
0900
0900
0900
0900
7700
0D00
ENDCHAR
STARTCHAR uni091D094D0930
ENCODING -1
SWIDTH 684 0
DWIDTH 12 0
BBX 13 12 0 -1
BITMAP
FFF8
0420
3C20
4020
4020
4020
3FE0
0220
4260
7CA0
4120
4300
ENDCHAR
STARTCHAR uni091E094D0930
ENCODING -1
SWIDTH 598 0
DWIDTH 11 0
BBX 11 11 0 0
BITMAP
FFE0
0080
0080
7080
0880
0880
0F80
0880
0980
7280
0C80
ENDCHAR
STARTCHAR uni091F094D0930
ENCODING -1
SWIDTH 485 0
DWIDTH 9 0
BBX 9 13 0 -2
BITMAP
FF80
0200
0200
3E00
4000
4000
4000
4100
4100
3E00
1400
1200
2200
ENDCHAR
STARTCHAR uni0920094D0930
ENCODING -1
SWIDTH 512 0
DWIDTH 9 0
BBX 9 13 0 -2
BITMAP
FF80
0200
0200
3E00
4100
4100
4100
4100
4100
3E00
1400
1200
2200
ENDCHAR
STARTCHAR uni0921094D0930
ENCODING -1
SWIDTH 475 0
DWIDTH 9 0
BBX 9 14 0 -3
BITMAP
FF80
0200
0200
3E00
4000
4000
3E00
0200
0200
4200
3E00
1400
2400
2200
ENDCHAR
STARTCHAR uni0922094D0930
ENCODING -1
SWIDTH 485 0
DWIDTH 9 0
BBX 9 13 0 -2
BITMAP
FF80
0200
0200
3E00
4000
4000
4600
4900
4100
3E00
1400
1200
2200
ENDCHAR
STARTCHAR uni0923094D0930
ENCODING -1
SWIDTH 681 0
DWIDTH 12 0
BBX 13 11 0 0
BITMAP
FFF8
4220
4220
4220
4220
4220
2260
3CA0
0120
0120
0620
ENDCHAR
STARTCHAR uni0924094D0930
ENCODING -1
SWIDTH 493 0
DWIDTH 9 0
BBX 9 11 0 0
BITMAP
FF80
0200
0200
3E00
4200
4200
4200
0200
0E00
1200
6200
ENDCHAR
STARTCHAR uni0925094D0930
ENCODING -1
SWIDTH 593 0
DWIDTH 11 0
BBX 10 12 1 -1
BITMAP
71C0
4900
8900
0900
F100
8100
8100
8100
7F00
0D00
1100
2000
ENDCHAR
STARTCHAR uni0926094D0930
ENCODING -1
SWIDTH 489 0
DWIDTH 9 0
BBX 9 12 0 -1
BITMAP
FF80
0200
0200
3E00
4000
4000
4100
4100
4200
3D00
0900
1000
ENDCHAR
STARTCHAR uni0927094D0930
ENCODING -1
SWIDTH 560 0
DWIDTH 10 0
BBX 10 12 0 -1
BITMAP
F3C0
4100
4100
4100
3900
4100
4100
4100
4100
3F00
0500
1800
ENDCHAR
STARTCHAR uni0928094D0930
ENCODING -1
SWIDTH 473 0
DWIDTH 9 0
BBX 9 11 0 0
BITMAP
FF80
0200
0200
0200
7E00
4200
4600
4A00
1A00
1200
6200
ENDCHAR
STARTCHAR uni092A094D0930
ENCODING -1
SWIDTH 503 0
DWIDTH 9 0
BBX 9 11 0 0
BITMAP
FF80
4200
4200
4200
4200
4200
2200
3E00
0A00
1200
2200
ENDCHAR
STARTCHAR uni092B094D0930
ENCODING -1
SWIDTH 741 0
DWIDTH 13 0
BBX 14 11 0 0
BITMAP
FFFC
4200
42E0
4310
4210
4210
2210
3E10
0A60
1200
2200
ENDCHAR
STARTCHAR uni092C094D0930
ENCODING -1
SWIDTH 491 0
DWIDTH 9 0
BBX 9 12 0 -1
BITMAP
FF80
0200
3A00
6200
5200
5200
4A00
4600
4200
3E00
0A00
3000
ENDCHAR
STARTCHAR uni092D094D0930
ENCODING -1
SWIDTH 491 0
DWIDTH 9 0
BBX 9 11 0 0
BITMAP
CF80
4200
4200
4200
4200
7E00
4200
4600
0A00
1200
2200
ENDCHAR
STARTCHAR uni092E094D0930
ENCODING -1
SWIDTH 490 0
DWIDTH 9 0
BBX 9 11 0 0
BITMAP
FF80
4200
4200
4200
4200
7E00
4200
4600
0A00
1200
2200
ENDCHAR
STARTCHAR uni092F094D0930
ENCODING -1
SWIDTH 564 0
DWIDTH 10 0
BBX 10 12 0 -1
BITMAP
FFC0
0880
0880
0880
7080
4080
4080
4180
3E80
0480
0880
1000
ENDCHAR
STARTCHAR uni0935094D0930
ENCODING -1
SWIDTH 484 0
DWIDTH 9 0
BBX 9 12 0 -1
BITMAP
FF80
0200
3A00
4200
4200
4200
4200
4200
3E00
0A00
1200
2000
ENDCHAR
STARTCHAR uni0936094D0930
ENCODING -1
SWIDTH 558 0
DWIDTH 10 0
BBX 10 11 0 0
BITMAP
38C0
4500
4500
4500
2900
1900
E500
0300
0D00
1100
0100
ENDCHAR
STARTCHAR uni0938094D0930
ENCODING -1
SWIDTH 604 0
DWIDTH 11 0
BBX 11 11 0 0
BITMAP
FFE0
1080
1080
1080
1080
7F80
4180
2280
2480
1080
1880
ENDCHAR
STARTCHAR uni0939094D0930
ENCODING -1
SWIDTH 505 0
DWIDTH 9 0
BBX 9 13 0 -2
BITMAP
FF80
0200
0200
3E00
4000
4000
3F00
4300
4500
4900
4100
4000
3E00
ENDCHAR
STARTCHAR uni0915093C094D0930
ENCODING -1
SWIDTH 725 0
DWIDTH 13 0
BBX 13 13 0 -2
BITMAP
FFF8
0200
3BE0
4210
4210
4210
4210
4210
3EE0
0A00
1200
2000
0800
ENDCHAR
STARTCHAR uni0916093C094D0930
ENCODING -1
SWIDTH 698 0
DWIDTH 13 0
BBX 13 13 0 -2
BITMAP
FFF8
0820
0820
09A0
0A20
7220
4220
2220
21E0
10A0
0920
0200
0080
ENDCHAR
STARTCHAR uni0917093C094D0930
ENCODING -1
SWIDTH 494 0
DWIDTH 9 0
BBX 9 13 0 -2
BITMAP
FF80
2200
2200
2200
2200
2200
C600
0600
0A00
1200
2200
0000
0800
ENDCHAR
STARTCHAR uni091C093C094D0930
ENCODING -1
SWIDTH 547 0
DWIDTH 10 0
BBX 10 12 0 -1
BITMAP
FFC0
0100
0100
7F00
0900
0900
0900
0900
0B00
7700
0D00
8800
ENDCHAR
STARTCHAR uni0921093C094D0930
ENCODING -1
SWIDTH 475 0
DWIDTH 9 0
BBX 9 14 0 -3
BITMAP
FF80
0200
0200
3E00
4000
4000
3E00
0200
0200
4200
3E00
9400
2400
2200
ENDCHAR
STARTCHAR uni0922093C094D0930
ENCODING -1
SWIDTH 485 0
DWIDTH 9 0
BBX 9 13 0 -2
BITMAP
FF80
0200
0200
3E00
4000
4000
4600
4900
4100
3E00
1C00
9600
2200
ENDCHAR
STARTCHAR uni0928093C094D0930
ENCODING -1
SWIDTH 473 0
DWIDTH 9 0
BBX 9 13 0 -2
BITMAP
FF80
0200
0200
0200
7E00
4200
4600
4A00
1200
1200
2200
4000
1000
ENDCHAR
STARTCHAR uni092B093C094D0930
ENCODING -1
SWIDTH 741 0
DWIDTH 13 0
BBX 14 13 0 -2
BITMAP
FFFC
4200
42E0
4310
4210
4210
2210
3E10
0A60
1200
2200
4000
0800
ENDCHAR
STARTCHAR uni092F093C094D0930
ENCODING -1
SWIDTH 564 0
DWIDTH 10 0
BBX 10 13 0 -2
BITMAP
FFC0
0880
0880
0880
7080
4080
4080
4180
3E80
0480
0880
1000
0400
ENDCHAR
STARTCHAR uni0915094D0930094D
ENCODING -1
SWIDTH 518 0
DWIDTH 9 0
BBX 12 12 0 -1
BITMAP
FFF0
0200
3BE0
4210
4200
4200
4200
4200
3E00
0A00
1200
2000
ENDCHAR
STARTCHAR uni0916094D0930094D
ENCODING -1
SWIDTH 469 0
DWIDTH 8 0
BBX 11 12 0 -1
BITMAP
FFC0
0800
0800
0980
0A00
7200
4200
2220
21C0
1080
0900
0200
ENDCHAR
STARTCHAR uni0917094D0930094D
ENCODING -1
SWIDTH 264 0
DWIDTH 5 0
BBX 7 11 0 0
BITMAP
F8
20
20
20
20
22
C4
04
08
10
20
ENDCHAR
STARTCHAR uni0918094D0930094D
ENCODING -1
SWIDTH 319 0
DWIDTH 6 0
BBX 8 12 0 -1
BITMAP
FF
40
40
40
38
40
40
40
41
3E
08
10
ENDCHAR
STARTCHAR uni091A094D0930094D
ENCODING -1
SWIDTH 331 0
DWIDTH 6 0
BBX 8 11 0 0
BITMAP
FE
00
00
FC
20
20
20
21
1E
04
18
ENDCHAR
STARTCHAR uni091C094D0930094D
ENCODING -1
SWIDTH 312 0
DWIDTH 6 0
BBX 8 11 0 0
BITMAP
FF
00
00
7F
08
08
08
09
0A
74
08
ENDCHAR
STARTCHAR uni091D094D0930094D
ENCODING -1
SWIDTH 441 0
DWIDTH 8 0
BBX 10 12 0 -1
BITMAP
FFC0
0400
3C00
4000
4000
4000
3FC0
0240
4240
7C80
4100
4300
ENDCHAR
STARTCHAR uni091E094D0930094D
ENCODING -1
SWIDTH 374 0
DWIDTH 7 0
BBX 9 11 0 0
BITMAP
FF00
0000
0000
7000
0800
0800
0F80
0880
0880
7300
0400
ENDCHAR
STARTCHAR uni091F094D0930094D
ENCODING -1
SWIDTH 485 0
DWIDTH 9 0
BBX 9 15 0 -4
BITMAP
FF80
0200
3E00
4000
4000
4000
4100
4100
4100
3E00
1400
2200
0800
0400
0200
ENDCHAR
STARTCHAR uni0920094D0930094D
ENCODING -1
SWIDTH 512 0
DWIDTH 9 0
BBX 9 15 0 -4
BITMAP
FF80
0200
3E00
4100
4100
4100
4100
4100
4100
3E00
1400
2200
0800
0400
0200
ENDCHAR
STARTCHAR uni0921094D0930094D
ENCODING -1
SWIDTH 475 0
DWIDTH 9 0
BBX 9 17 0 -6
BITMAP
FF80
0200
0200
3E00
4000
4000
3E00
0200
0200
4200
3E00
1400
2600
2200
0800
0400
0200
ENDCHAR
STARTCHAR uni0922094D0930094D
ENCODING -1
SWIDTH 485 0
DWIDTH 9 0
BBX 9 16 0 -5
BITMAP
FF80
0200
0200
3E00
4000
4000
4600
4900
4100
3E00
1400
1200
2200
0C00
0400
0200
ENDCHAR
STARTCHAR uni0923094D0930094D
ENCODING -1
SWIDTH 457 0
DWIDTH 8 0
BBX 10 11 0 0
BITMAP
FF00
4200
4200
4200
4200
4200
2240
3C80
0100
0100
0600
ENDCHAR
STARTCHAR uni0924094D0930094D
ENCODING -1
SWIDTH 268 0
DWIDTH 5 0
BBX 8 11 0 0
BITMAP
FF
00
00
3C
42
42
42
02
0C
10
60
ENDCHAR
STARTCHAR uni0925094D0930094D
ENCODING -1
SWIDTH 358 0
DWIDTH 6 0
BBX 8 12 1 -1
BITMAP
70
48
88
08
F0
80
80
81
7E
0C
10
20
ENDCHAR
STARTCHAR uni0926094D0930094D
ENCODING -1
SWIDTH 489 0
DWIDTH 9 0
BBX 9 14 0 -3
BITMAP
FF80
0200
0200
3E00
4000
4000
4100
4100
4200
3D00
0900
1000
0400
0300
ENDCHAR
STARTCHAR uni0927094D0930094D
ENCODING -1
SWIDTH 322 0
DWIDTH 6 0
BBX 8 12 0 -1
BITMAP
F3
40
40
40
38
40
40
40
41
3E
04
18
ENDCHAR
STARTCHAR uni0928094D0930094D
ENCODING -1
SWIDTH 247 0
DWIDTH 4 0
BBX 7 11 0 0
BITMAP
FE
00
00
00
7E
42
44
4C
08
10
60
ENDCHAR
STARTCHAR uni092A094D0930094D
ENCODING -1
SWIDTH 270 0
DWIDTH 5 0
BBX 7 11 0 0
BITMAP
FC
40
40
40
40
40
22
3C
08
10
20
ENDCHAR
STARTCHAR uni092B094D0930094D
ENCODING -1
SWIDTH 523 0
DWIDTH 9 0
BBX 12 11 0 0
BITMAP
FFF0
4200
43E0
4210
4200
4200
4200
3E00
0A00
1200
6200
ENDCHAR
STARTCHAR uni092C094D0930094D
ENCODING -1
SWIDTH 267 0
DWIDTH 5 0
BBX 7 12 0 -1
BITMAP
FE
00
38
60
50
50
48
46
42
3C
08
30
ENDCHAR
STARTCHAR uni092D094D0930094D
ENCODING -1
SWIDTH 257 0
DWIDTH 5 0
BBX 7 11 0 0
BITMAP
CE
40
40
40
40
7E
42
44
08
10
20
ENDCHAR
STARTCHAR uni092E094D0930094D
ENCODING -1
SWIDTH 261 0
DWIDTH 5 0
BBX 7 11 0 0
BITMAP
FE
40
40
40
40
7E
42
44
08
10
20
ENDCHAR
STARTCHAR uni092F094D0930094D
ENCODING -1
SWIDTH 323 0
DWIDTH 6 0
BBX 8 12 0 -1
BITMAP
FE
08
08
08
70
40
40
41
3E
04
08
10
ENDCHAR
STARTCHAR uni0935094D0930094D
ENCODING -1
SWIDTH 255 0
DWIDTH 5 0
BBX 7 12 0 -1
BITMAP
FC
00
38
40
40
40
40
42
3C
08
10
20
ENDCHAR
STARTCHAR uni0938094D0930094D
ENCODING -1
SWIDTH 347 0
DWIDTH 6 0
BBX 8 11 0 0
BITMAP
FF
10
10
10
10
7F
41
22
24
14
18
ENDCHAR
STARTCHAR uni0915093C094D0930094D
ENCODING -1
SWIDTH 518 0
DWIDTH 9 0
BBX 12 13 0 -2
BITMAP
FFF0
0200
3BE0
4210
4200
4200
4200
4200
3E00
0A00
1200
2000
0800
ENDCHAR
STARTCHAR uni0916093C094D0930094D
ENCODING -1
SWIDTH 466 0
DWIDTH 8 0
BBX 11 13 0 -2
BITMAP
FFC0
0800
0800
0980
0A00
7200
4200
2220
21C0
1080
0900
0200
0080
ENDCHAR
STARTCHAR uni0917093C094D0930094D
ENCODING -1
SWIDTH 264 0
DWIDTH 5 0
BBX 7 13 0 -2
BITMAP
F8
20
20
20
20
22
C4
04
08
10
20
00
08
ENDCHAR
STARTCHAR uni091C093C094D0930094D
ENCODING -1
SWIDTH 320 0
DWIDTH 6 0
BBX 8 13 0 -2
BITMAP
FF
00
00
7F
08
08
08
08
09
72
04
08
80
ENDCHAR
STARTCHAR uni0928093C094D0930094D
ENCODING -1
SWIDTH 247 0
DWIDTH 4 0
BBX 7 13 0 -2
BITMAP
FE
00
00
00
7E
42
46
44
08
10
20
40
10
ENDCHAR
STARTCHAR uni092B093C094D0930094D
ENCODING -1
SWIDTH 523 0
DWIDTH 9 0
BBX 12 13 0 -2
BITMAP
FFF0
4200
43E0
4210
4200
4200
4200
3E00
0A00
1200
2200
4000
1000
ENDCHAR
STARTCHAR uni092F093C094D0930094D
ENCODING -1
SWIDTH 323 0
DWIDTH 6 0
BBX 8 13 0 -2
BITMAP
FE
08
08
08
70
40
40
41
3E
04
08
10
04
ENDCHAR
STARTCHAR uni0915094D0915
ENCODING -1
SWIDTH 1255 0
DWIDTH 23 0
BBX 23 11 0 0
BITMAP
FFFFFE
020080
3BECF0
421088
421084
421084
421084
421108
3E0EB0
020080
020080
ENDCHAR
STARTCHAR uni0915094D0916
ENCODING -1
SWIDTH 1256 0
DWIDTH 23 0
BBX 23 11 0 0
BITMAP
FFFFFE
020208
3BC208
422268
421288
421C88
421088
420898
3E0868
020408
020208
ENDCHAR
STARTCHAR uni0915094D091A
ENCODING -1
SWIDTH 1086 0
DWIDTH 20 0
BBX 20 11 0 0
BITMAP
FFFFF0
020040
3BC040
423E40
420840
421040
421040
420840
3E0FC0
020040
020040
ENDCHAR
STARTCHAR uni0915094D091C
ENCODING -1
SWIDTH 1071 0
DWIDTH 19 0
BBX 20 11 0 0
BITMAP
FFFFF0
020040
3A0040
43DFC0
420440
420440
420240
420440
3E0440
023C40
020040
ENDCHAR
STARTCHAR uni0915094D091F
ENCODING -1
SWIDTH 984 0
DWIDTH 18 0
BBX 18 11 0 0
BITMAP
FFFFC0
020100
3BE100
421F00
422000
422000
422080
422080
3E2080
021F00
020000
ENDCHAR
STARTCHAR uni0915094D0923
ENCODING -1
SWIDTH 1183 0
DWIDTH 21 0
BBX 22 11 0 0
BITMAP
FFFFFC
022110
3A2110
43E110
422110
422110
421110
421E10
3E0010
020010
020010
ENDCHAR
STARTCHAR uni0915094D0924
ENCODING -1
SWIDTH 761 0
DWIDTH 14 0
BBX 14 11 0 0
BITMAP
FFFC
0100
0100
7FF0
2110
2108
2108
2108
2110
1970
0100
ENDCHAR
STARTCHAR uni0915094D0925
ENCODING -1
SWIDTH 1118 0
DWIDTH 20 0
BBX 20 11 0 0
BITMAP
FFCE30
021220
3A0220
420220
43FE20
422020
422020
421040
3E0FA0
020020
020020
ENDCHAR
STARTCHAR uni0915094D0926
ENCODING -1
SWIDTH 1009 0
DWIDTH 18 0
BBX 18 11 0 0
BITMAP
FFFFC0
020080
3BE080
423F80
421000
421000
421080
421080
421080
3E0F80
020080
ENDCHAR
STARTCHAR uni0915094D092A
ENCODING -1
SWIDTH 1007 0
DWIDTH 18 0
BBX 18 11 0 0
BITMAP
FFFFC0
022080
3A2080
43E080
422080
422080
421100
420E80
3E0080
020080
020080
ENDCHAR
STARTCHAR uni0915094D092B
ENCODING -1
SWIDTH 1242 0
DWIDTH 22 0
BBX 23 11 0 0
BITMAP
FFFFFE
022100
3A2170
43E188
422108
422108
421108
420F08
3E0130
020100
020100
ENDCHAR
STARTCHAR uni0915094D092E
ENCODING -1
SWIDTH 994 0
DWIDTH 18 0
BBX 18 11 0 0
BITMAP
FFFFC0
022100
3A2100
43E100
422100
423F00
422100
422100
3E0100
020100
020100
ENDCHAR
STARTCHAR uni0915094D092F
ENCODING -1
SWIDTH 1076 0
DWIDTH 19 0
BBX 20 11 0 0
BITMAP
FFFFF0
020440
3A0440
420440
43F840
422040
422040
4210C0
3E0F40
020040
020040
ENDCHAR
STARTCHAR uni0915094D0932
ENCODING -1
SWIDTH 1178 0
DWIDTH 21 0
BBX 21 11 0 0
BITMAP
FFFFF8
020010
3BE010
421CD0
422330
422210
422210
422010
3E2010
021C10
020010
ENDCHAR
STARTCHAR uni0915094D0935
ENCODING -1
SWIDTH 1013 0
DWIDTH 18 0
BBX 18 11 0 0
BITMAP
FFFFC0
020080
3BEC80
421080
421080
421080
421080
421080
421180
3E0E80
020080
ENDCHAR
STARTCHAR uni0915094D0936
ENCODING -1
SWIDTH 1194 0
DWIDTH 21 0
BBX 22 11 0 0
BITMAP
FFCF1C
020910
3A0890
43E090
421110
421F10
421010
420810
3E0410
020410
020210
ENDCHAR
STARTCHAR uni0915094D0938
ENCODING -1
SWIDTH 1143 0
DWIDTH 21 0
BBX 21 11 0 0
BITMAP
FFFFF8
020220
3BE220
422220
421420
421FE0
421020
420820
3E0820
020420
020620
ENDCHAR
STARTCHAR uni0916094D0916
ENCODING -1
SWIDTH 1223 0
DWIDTH 22 0
BBX 22 11 0 0
BITMAP
FFFFFC
080410
080410
0984D0
0A0510
723910
423110
223110
21C8F0
100810
080410
ENDCHAR
STARTCHAR uni0916094D0924
ENCODING -1
SWIDTH 984 0
DWIDTH 18 0
BBX 18 11 0 0
BITMAP
FFFFC0
080100
080100
098100
0A1F00
722100
422100
222100
21E100
102100
081900
ENDCHAR
STARTCHAR uni0916094D092E
ENCODING -1
SWIDTH 965 0
DWIDTH 17 0
BBX 18 11 0 0
BITMAP
FFFFC0
082100
082100
09A100
0A2100
723F00
422100
222100
21C100
100100
080100
ENDCHAR
STARTCHAR uni0916094D092F
ENCODING -1
SWIDTH 1047 0
DWIDTH 19 0
BBX 19 11 0 0
BITMAP
FFFFE0
080880
080480
098880
0A3880
722080
422080
222080
21DF80
100080
080080
ENDCHAR
STARTCHAR uni0916094D0935
ENCODING -1
SWIDTH 975 0
DWIDTH 18 0
BBX 18 11 0 0
BITMAP
FFFFC0
080100
081D00
09A100
0A2100
722100
422100
222100
21E100
101F00
080100
ENDCHAR
STARTCHAR uni0916094D0936
ENCODING -1
SWIDTH 1123 0
DWIDTH 20 0
BBX 20 11 0 0
BITMAP
FF9E30
081220
082220
09A220
0A0220
727C20
422020
222020
21D020
101820
080C20
ENDCHAR
STARTCHAR uni0917094D0917
ENCODING -1
SWIDTH 744 0
DWIDTH 13 0
BBX 14 11 0 0
BITMAP
FFFC
2110
2110
2110
2110
2110
C610
0010
0010
0010
0010
ENDCHAR
STARTCHAR uni0917094D0918
ENCODING -1
SWIDTH 823 0
DWIDTH 15 0
BBX 15 11 0 0
BITMAP
FFFE
2208
2208
2208
21C8
2208
C208
0208
0208
01F8
0008
ENDCHAR
STARTCHAR uni0917094D091C
ENCODING -1
SWIDTH 801 0
DWIDTH 14 0
BBX 15 11 0 0
BITMAP
FFFE
2008
2008
2008
23F8
2088
C048
0048
0088
0788
0008
ENDCHAR
STARTCHAR uni0917094D0923
ENCODING -1
SWIDTH 945 0
DWIDTH 17 0
BBX 17 11 0 0
BITMAP
FFFF80
222200
222200
222200
222200
222200
C22200
01C200
000200
000200
000200
ENDCHAR
STARTCHAR uni0917094D0926
ENCODING -1
SWIDTH 748 0
DWIDTH 13 0
BBX 14 11 0 0
BITMAP
FFFC
2010
2010
21F0
2200
2200
C210
0210
0210
01F0
0010
ENDCHAR
STARTCHAR uni0917094D0927
ENCODING -1
SWIDTH 823 0
DWIDTH 15 0
BBX 15 11 0 0
BITMAP
FFBE
2208
2208
2208
21C8
2208
C208
0208
0208
01F8
0008
ENDCHAR
STARTCHAR uni0917094D092C
ENCODING -1
SWIDTH 755 0
DWIDTH 14 0
BBX 14 11 0 0
BITMAP
FFFC
2010
21D0
2310
2310
2290
C250
0230
0210
01F0
0010
ENDCHAR
STARTCHAR uni0917094D092D
ENCODING -1
SWIDTH 755 0
DWIDTH 14 0
BBX 14 11 0 0
BITMAP
FC7C
2210
2210
2210
2210
23F0
C210
0210
0010
0010
0010
ENDCHAR
STARTCHAR uni0917094D092E
ENCODING -1
SWIDTH 754 0
DWIDTH 14 0
BBX 14 11 0 0
BITMAP
FFFC
2210
2210
2210
2210
23F0
C210
0210
0010
0010
0010
ENDCHAR
STARTCHAR uni0917094D092F
ENCODING -1
SWIDTH 828 0
DWIDTH 15 0
BBX 15 11 0 0
BITMAP
FFFE
2088
2048
2088
2388
2208
C208
0208
01F8
0008
0008
ENDCHAR
STARTCHAR uni0917094D0932
ENCODING -1
SWIDTH 924 0
DWIDTH 17 0
BBX 17 11 0 0
BITMAP
FFFF80
200200
200200
21DE00
222200
222200
C22200
020200
020200
018200
000200
ENDCHAR
STARTCHAR uni0917094D0935
ENCODING -1
SWIDTH 747 0
DWIDTH 13 0
BBX 14 11 0 0
BITMAP
FFFC
2010
21D0
2210
2210
2210
C210
0210
0210
01F0
0010
ENDCHAR
STARTCHAR uni0917094D0938
ENCODING -1
SWIDTH 839 0
DWIDTH 15 0
BBX 15 11 0 0
BITMAP
FFFE
2084
2084
2084
2084
27F8
C204
0204
0104
0104
0084
ENDCHAR
STARTCHAR uni0918094D092E
ENCODING -1
SWIDTH 818 0
DWIDTH 15 0
BBX 15 11 0 0
BITMAP
FFFE
4108
4108
4108
3908
41F8
4108
4108
4108
3E08
0008
ENDCHAR
STARTCHAR uni0918094D092F
ENCODING -1
SWIDTH 867 0
DWIDTH 16 0
BBX 16 11 0 0
BITMAP
FFFF
4044
4044
4044
3984
4104
4104
4104
41FC
3E04
0004
ENDCHAR
STARTCHAR uni091A094D091A
ENCODING -1
SWIDTH 868 0
DWIDTH 16 0
BBX 16 11 0 0
BITMAP
FFFF
0004
0004
FBE4
2084
2104
2104
2184
1EFC
0004
0004
ENDCHAR
STARTCHAR uni091A094D091B
ENCODING -1
SWIDTH 922 0
DWIDTH 17 0
BBX 17 10 0 1
BITMAP
FFFF80
008200
010200
FD0E00
208200
206200
208200
210200
1E8200
00FC00
ENDCHAR
STARTCHAR uni091A094D092E
ENCODING -1
SWIDTH 830 0
DWIDTH 15 0
BBX 15 11 0 0
BITMAP
FFFE
0108
0108
FD08
2108
20F8
2108
2108
1E08
0008
0008
ENDCHAR
STARTCHAR uni091A094D092F
ENCODING -1
SWIDTH 904 0
DWIDTH 16 0
BBX 17 11 0 0
BITMAP
FFFF80
002200
002200
FC2200
21C200
210200
210200
218600
1E7A00
000200
000200
ENDCHAR
STARTCHAR uni091B094D092F
ENCODING -1
SWIDTH 1068 0
DWIDTH 19 0
BBX 20 11 0 0
BITMAP
FFFFF0
400040
400040
43FC40
408440
388440
409C40
409040
4090C0
3F0F40
000040
ENDCHAR
STARTCHAR uni091B094D0935
ENCODING -1
SWIDTH 581 0
DWIDTH 10 0
BBX 11 13 0 -2
BITMAP
FFE0
4080
4080
4300
3880
4080
4080
4080
3F80
2080
2080
2100
1F00
ENDCHAR
STARTCHAR uni091C094D0915
ENCODING -1
SWIDTH 1054 0
DWIDTH 19 0
BBX 19 11 0 0
BITMAP
FFFFE0
000800
00EF80
010840
7F0840
090840
090840
090840
08FB80
700800
000800
ENDCHAR
STARTCHAR uni091C094D091C
ENCODING -1
SWIDTH 903 0
DWIDTH 16 0
BBX 17 11 0 0
BITMAP
FFFF80
000200
000200
000200
7EFE00
082200
082200
082200
082200
71E200
000200
ENDCHAR
STARTCHAR uni091C094D091D
ENCODING -1
SWIDTH 990 0
DWIDTH 18 0
BBX 18 12 0 -1
BITMAP
FFFFC0
001100
00F100
010100
7F0100
090100
08FF00
080900
090900
71F100
010100
010000
ENDCHAR
STARTCHAR uni091C094D091F
ENCODING -1
SWIDTH 815 0
DWIDTH 15 0
BBX 15 10 0 1
BITMAP
FFFE
0008
0008
00F8
7F00
0900
0900
0904
0904
F0F8
ENDCHAR
STARTCHAR uni091C094D0921
ENCODING -1
SWIDTH 797 0
DWIDTH 14 0
BBX 15 11 0 0
BITMAP
FFFE
0008
0008
7FF8
0900
0900
08F8
0808
0808
F108
00F8
ENDCHAR
STARTCHAR uni091C094D0924
ENCODING -1
SWIDTH 830 0
DWIDTH 15 0
BBX 15 11 0 0
BITMAP
FFFE
0008
0008
0008
7FF8
0908
0908
0908
0908
F108
00C8
ENDCHAR
STARTCHAR uni091C094D0926
ENCODING -1
SWIDTH 817 0
DWIDTH 15 0
BBX 15 11 0 0
BITMAP
FFFE
0008
0008
00F8
7F00
0900
0908
0908
0908
70F8
0008
ENDCHAR
STARTCHAR uni091C094D092C
ENCODING -1
SWIDTH 820 0
DWIDTH 15 0
BBX 15 11 0 0
BITMAP
FFFE
0008
00E8
0088
7F88
0948
0928
0918
0908
70F8
0008
ENDCHAR
STARTCHAR uni091C094D092E
ENCODING -1
SWIDTH 813 0
DWIDTH 15 0
BBX 15 11 0 0
BITMAP
FFFE
0108
0108
0108
7F08
09F8
0908
0908
0808
7008
0008
ENDCHAR
STARTCHAR uni091C094D092F
ENCODING -1
SWIDTH 893 0
DWIDTH 16 0
BBX 16 11 0 0
BITMAP
FFFF
0022
0022
7F22
09C2
0902
0904
0904
08FA
F002
0002
ENDCHAR
STARTCHAR uni091C094D0935
ENCODING -1
SWIDTH 813 0
DWIDTH 15 0
BBX 15 11 0 0
BITMAP
FFFE
0008
00E8
0108
7F08
0908
0908
0908
0908
70F8
0008
ENDCHAR
STARTCHAR uni091D094D092E
ENCODING -1
SWIDTH 936 0
DWIDTH 17 0
BBX 17 12 0 -1
BITMAP
FFFF80
044200
3C4200
404200
404200
407E00
3FC200
024200
420200
7C0200
400200
400000
ENDCHAR
STARTCHAR uni091D094D092F
ENCODING -1
SWIDTH 1000 0
DWIDTH 18 0
BBX 18 12 0 -1
BITMAP
FFFFC0
040900
3C0900
400900
407100
404100
3FC100
024100
423F00
7C0100
400100
400000
ENDCHAR
STARTCHAR uni091E094D091B
ENCODING -1
SWIDTH 913 0
DWIDTH 16 0
BBX 17 10 0 1
BITMAP
FFFF80
010200
710200
090C00
088200
0FE200
090200
090200
710200
00FC00
ENDCHAR
STARTCHAR uni091E094D091C
ENCODING -1
SWIDTH 932 0
DWIDTH 17 0
BBX 17 11 0 0
BITMAP
FFFF80
000200
000200
000200
70FE00
081200
0E1200
081200
081200
71E200
000200
ENDCHAR
STARTCHAR uni091E094D0936
ENCODING -1
SWIDTH 975 0
DWIDTH 18 0
BBX 18 11 0 0
BITMAP
FC71C0
008900
008900
788900
081100
0FF100
088100
088100
704100
002100
003100
ENDCHAR
STARTCHAR uni091F094D091F
ENCODING -1
SWIDTH 494 0
DWIDTH 9 0
BBX 9 16 0 -5
BITMAP
FF80
0200
0200
3E00
4000
4000
4100
4100
3E00
0200
3E00
4000
4000
4100
4100
3E00
ENDCHAR
STARTCHAR uni091F094D0920
ENCODING -1
SWIDTH 495 0
DWIDTH 9 0
BBX 9 16 0 -5
BITMAP
FF80
0200
0200
3E00
4000
4000
4100
4100
3E00
0200
3E00
4100
4100
4100
4100
3E00
ENDCHAR
STARTCHAR uni091F094D092F
ENCODING -1
SWIDTH 990 0
DWIDTH 18 0
BBX 18 11 0 0
BITMAP
FFFFC0
020100
020100
3FF100
400900
400900
417100
414100
412100
3E1F00
000100
ENDCHAR
STARTCHAR uni091F094D0935
ENCODING -1
SWIDTH 501 0
DWIDTH 9 0
BBX 9 13 0 -2
BITMAP
FF80
0200
0200
3E00
4000
4000
4100
4100
3F00
4100
4100
2200
3E00
ENDCHAR
STARTCHAR uni0920094D092F
ENCODING -1
SWIDTH 998 0
DWIDTH 18 0
BBX 18 11 0 0
BITMAP
FFFFC0
020100
020100
3EF100
410900
410900
413100
412100
412100
3E1F00
000100
ENDCHAR
STARTCHAR uni0921094D0921
ENCODING -1
SWIDTH 493 0
DWIDTH 9 0
BBX 9 16 0 -5
BITMAP
FF80
0200
3E00
4000
4000
3E00
0200
4100
4200
3E00
4000
4000
3E00
0100
4100
3E00
ENDCHAR
STARTCHAR uni0921094D0922
ENCODING -1
SWIDTH 493 0
DWIDTH 9 0
BBX 9 15 0 -4
BITMAP
FF80
0200
3E00
4000
4000
3E00
0200
4100
4200
3E00
4600
4900
4900
4100
3E00
ENDCHAR
STARTCHAR uni0921094D092F
ENCODING -1
SWIDTH 973 0
DWIDTH 18 0
BBX 18 11 0 0
BITMAP
FFFFC0
020100
020100
3FF100
400900
400900
3E7100
024100
024300
423D00
3E0100
ENDCHAR
STARTCHAR uni0921094D0935
ENCODING -1
SWIDTH 493 0
DWIDTH 9 0
BBX 9 14 0 -3
BITMAP
FF80
0200
3E00
4000
4000
3E00
0200
4100
4100
3F00
2100
4100
2200
3C00
ENDCHAR
STARTCHAR uni0922094D092F
ENCODING -1
SWIDTH 981 0
DWIDTH 18 0
BBX 18 11 0 0
BITMAP
FFFFC0
020100
020100
3FF100
400900
400900
467100
494100
412100
3E3F00
000100
ENDCHAR
STARTCHAR uni0923094D091F
ENCODING -1
SWIDTH 908 0
DWIDTH 16 0
BBX 17 10 0 1
BITMAP
FFFF80
420200
420200
423C00
424000
424000
224000
3C4100
004200
003C00
ENDCHAR
STARTCHAR uni0923094D0920
ENCODING -1
SWIDTH 936 0
DWIDTH 17 0
BBX 17 10 0 1
BITMAP
FFFF80
420200
420200
423C00
424200
424100
224100
3C4100
004200
003C00
ENDCHAR
STARTCHAR uni0923094D0921
ENCODING -1
SWIDTH 892 0
DWIDTH 16 0
BBX 16 11 0 0
BITMAP
FFFF
4204
4204
427C
4240
4240
227C
3C02
0042
0042
007C
ENDCHAR
STARTCHAR uni0923094D0922
ENCODING -1
SWIDTH 908 0
DWIDTH 16 0
BBX 17 10 0 1
BITMAP
FFFF80
420200
420200
423E00
424000
424000
224E00
3C4900
004200
003E00
ENDCHAR
STARTCHAR uni0923094D0923
ENCODING -1
SWIDTH 1127 0
DWIDTH 20 0
BBX 21 11 0 0
BITMAP
FFFFF8
424220
424220
424220
424220
424220
222220
3C3C20
000020
000020
000020
ENDCHAR
STARTCHAR uni0923094D092E
ENCODING -1
SWIDTH 932 0
DWIDTH 17 0
BBX 17 11 0 0
BITMAP
FFFF80
424200
424200
424200
424200
427E00
224200
3C4200
000200
000200
000200
ENDCHAR
STARTCHAR uni0923094D092F
ENCODING -1
SWIDTH 998 0
DWIDTH 18 0
BBX 18 11 0 0
BITMAP
FFFFC0
420900
420900
420900
427100
424100
224100
3C4100
003F00
000100
000100
ENDCHAR
STARTCHAR uni0923094D0935
ENCODING -1
SWIDTH 923 0
DWIDTH 17 0
BBX 17 11 0 0
BITMAP
FFFF80
420200
423A00
424200
424200
424200
224200
3C4200
004200
003E00
000200
ENDCHAR
STARTCHAR uni0924094D0915
ENCODING -1
SWIDTH 992 0
DWIDTH 18 0
BBX 18 11 0 0
BITMAP
FFFFC0
001000
01DF00
3E1080
421080
421080
421080
421080
41F700
401000
301000
ENDCHAR
STARTCHAR uni0924094D0916
ENCODING -1
SWIDTH 1014 0
DWIDTH 18 0
BBX 19 11 0 0
BITMAP
FFFFE0
004080
004080
3C4C80
424880
43D080
411080
410980
408E80
404080
302080
ENDCHAR
STARTCHAR uni0924094D0924
ENCODING -1
SWIDTH 542 0
DWIDTH 10 0
BBX 10 11 0 0
BITMAP
FFC0
0100
0100
0100
7F00
2100
2100
2100
2100
2100
1900
ENDCHAR
STARTCHAR uni0924094D0925
ENCODING -1
SWIDTH 869 0
DWIDTH 16 0
BBX 16 11 0 0
BITMAP
F9C7
0224
0224
0024
3FC4
4204
4204
4204
41FC
4004
3004
ENDCHAR
STARTCHAR uni0924094D092A
ENCODING -1
SWIDTH 757 0
DWIDTH 14 0
BBX 14 11 0 0
BITMAP
FFFC
0210
0210
3E10
4210
4210
4210
41F0
4010
4010
3010
ENDCHAR
STARTCHAR uni0924094D092B
ENCODING -1
SWIDTH 992 0
DWIDTH 18 0
BBX 18 11 0 0
BITMAP
FFFFC0
021000
021F00
3E1080
421080
421080
421080
41F080
401700
401000
301000
ENDCHAR
STARTCHAR uni0924094D092E
ENCODING -1
SWIDTH 764 0
DWIDTH 14 0
BBX 14 11 0 0
BITMAP
FFFC
0210
0210
3E10
4210
43F0
4210
4210
4010
4010
3010
ENDCHAR
STARTCHAR uni0924094D092F
ENCODING -1
SWIDTH 830 0
DWIDTH 15 0
BBX 15 11 0 0
BITMAP
FFFE
0048
0048
0048
3F88
4208
4208
4208
41F8
4008
3008
ENDCHAR
STARTCHAR uni0924094D0932
ENCODING -1
SWIDTH 957 0
DWIDTH 17 0
BBX 17 11 0 0
BITMAP
FFFF80
000100
000100
3DCD00
423300
422100
422100
420100
420100
41C100
300100
ENDCHAR
STARTCHAR uni0924094D0935
ENCODING -1
SWIDTH 751 0
DWIDTH 14 0
BBX 14 11 0 0
BITMAP
FFFC
0010
01D0
3E10
4210
4210
4210
4210
4210
41F0
3010
ENDCHAR
STARTCHAR uni0924094D0938
ENCODING -1
SWIDTH 876 0
DWIDTH 16 0
BBX 16 11 0 0
BITMAP
FFFF
0044
0044
3C44
4244
43FC
4204
4104
4084
4084
3044
ENDCHAR
STARTCHAR uni0925094D092F
ENCODING -1
SWIDTH 931 0
DWIDTH 17 0
BBX 16 11 1 0
BITMAP
73FF
4844
8844
0844
F1C4
8104
8104
8104
7EFC
0004
0004
ENDCHAR
STARTCHAR uni0925094D0935
ENCODING -1
SWIDTH 862 0
DWIDTH 16 0
BBX 15 11 1 0
BITMAP
73FE
4808
88E8
0908
F108
8108
8108
8108
7F08
00F8
0008
ENDCHAR
STARTCHAR uni0926094D0917
ENCODING -1
SWIDTH 489 0
DWIDTH 9 0
BBX 9 13 0 -2
BITMAP
FF80
0200
0200
3E00
4000
4000
4100
4200
3D00
1100
1100
1000
6000
ENDCHAR
STARTCHAR uni0926094D0918
ENCODING -1
SWIDTH 686 0
DWIDTH 12 0
BBX 13 12 0 -1
BITMAP
FFF8
0020
0020
03E0
3C00
4400
4420
3420
4420
43E0
4220
3C00
ENDCHAR
STARTCHAR uni0926094D0926
ENCODING -1
SWIDTH 506 0
DWIDTH 9 0
BBX 9 12 0 -1
BITMAP
FF80
0200
0200
3E00
4000
4000
3C00
4000
4100
4100
3F00
0100
ENDCHAR
STARTCHAR uni0926094D0927
ENCODING -1
SWIDTH 686 0
DWIDTH 12 0
BBX 13 12 0 -1
BITMAP
FFF8
0020
0020
03E0
3400
4400
4420
3420
4420
43E0
4220
3C00
ENDCHAR
STARTCHAR uni0926094D092C
ENCODING -1
SWIDTH 481 0
DWIDTH 9 0
BBX 9 13 0 -2
BITMAP
FF80
0200
0200
3E00
4000
4000
4000
4100
4200
3D00
5900
4600
3E00
ENDCHAR
STARTCHAR uni0926094D092D
ENCODING -1
SWIDTH 499 0
DWIDTH 9 0
BBX 9 14 0 -3
BITMAP
FF80
0200
3E00
2000
4000
4200
2200
3E00
4200
2200
2200
3E00
2200
0200
ENDCHAR
STARTCHAR uni0926094D092E
ENCODING -1
SWIDTH 706 0
DWIDTH 13 0
BBX 13 11 0 0
BITMAP
FFF8
0220
3E20
4020
4020
4220
4220
3E20
03E0
0220
0020
ENDCHAR
STARTCHAR uni0926094D092F
ENCODING -1
SWIDTH 583 0
DWIDTH 11 0
BBX 11 11 0 0
BITMAP
FFE0
0880
3880
4080
4080
3880
4080
4080
4080
3F80
0080
ENDCHAR
STARTCHAR uni0926094D0935
ENCODING -1
SWIDTH 483 0
DWIDTH 9 0
BBX 9 13 0 -2
BITMAP
FF80
0200
0200
3E00
4000
4000
4000
4100
4200
3D00
4100
4200
3E00
ENDCHAR
STARTCHAR uni0927094D092E
ENCODING -1
SWIDTH 817 0
DWIDTH 15 0
BBX 15 11 0 0
BITMAP
F3FE
4108
4108
4108
3908
41F8
4108
4108
4108
3E08
0008
ENDCHAR
STARTCHAR uni0927094D092F
ENCODING -1
SWIDTH 886 0
DWIDTH 16 0
BBX 16 11 0 0
BITMAP
F3FF
4024
4024
4044
39C4
4104
4104
4104
41FC
3E04
0004
ENDCHAR
STARTCHAR uni0927094D0935
ENCODING -1
SWIDTH 810 0
DWIDTH 15 0
BBX 15 11 0 0
BITMAP
F3FE
4008
40E8
4108
3908
4108
4108
4108
4108
3EF8
0008
ENDCHAR
STARTCHAR uni0928094D0915
ENCODING -1
SWIDTH 973 0
DWIDTH 18 0
BBX 18 11 0 0
BITMAP
FFFFC0
002000
01AE00
021100
7C2100
442100
442100
022100
01E600
002000
002000
ENDCHAR
STARTCHAR uni0928094D091A
ENCODING -1
SWIDTH 820 0
DWIDTH 15 0
BBX 15 11 0 0
BITMAP
FFFE
0008
0008
07C8
0108
7E08
4208
4108
00F8
0008
0008
ENDCHAR
STARTCHAR uni0928094D091B
ENCODING -1
SWIDTH 781 0
DWIDTH 14 0
BBX 14 10 0 1
BITMAP
FFFC
0410
0410
0430
7C08
4708
4408
4408
0408
03F0
ENDCHAR
STARTCHAR uni0928094D091F
ENCODING -1
SWIDTH 715 0
DWIDTH 13 0
BBX 13 10 0 1
BITMAP
FFF8
0020
0020
03E0
7C00
4400
4400
0410
0210
03E0
ENDCHAR
STARTCHAR uni0928094D0921
ENCODING -1
SWIDTH 705 0
DWIDTH 13 0
BBX 13 11 0 0
BITMAP
FFF8
0020
0020
03E0
7C00
4400
43E0
0010
0410
0410
03E0
ENDCHAR
STARTCHAR uni0928094D0924
ENCODING -1
SWIDTH 717 0
DWIDTH 13 0
BBX 13 11 0 0
BITMAP
FFF8
0020
0020
0020
7FE0
4420
4420
0420
0420
0420
0320
ENDCHAR
STARTCHAR uni0928094D0925
ENCODING -1
SWIDTH 804 0
DWIDTH 14 0
BBX 15 11 0 0
BITMAP
F38E
0448
0448
0048
7F88
4408
4408
0418
03E8
0008
0008
ENDCHAR
STARTCHAR uni0928094D0926
ENCODING -1
SWIDTH 724 0
DWIDTH 13 0
BBX 13 11 0 0
BITMAP
FFF8
0020
0020
03E0
7E00
4400
4410
4410
0210
01F0
0010
ENDCHAR
STARTCHAR uni0928094D0927
ENCODING -1
SWIDTH 753 0
DWIDTH 14 0
BBX 14 11 0 0
BITMAP
FF7C
0410
0410
0410
7F10
4410
4410
4410
0410
03F0
0010
ENDCHAR
STARTCHAR uni0928094D092A
ENCODING -1
SWIDTH 742 0
DWIDTH 13 0
BBX 14 11 0 0
BITMAP
FFFC
0210
0210
0210
0210
7E10
4230
41D0
0010
0010
0010
ENDCHAR
STARTCHAR uni0928094D092B
ENCODING -1
SWIDTH 970 0
DWIDTH 17 0
BBX 18 11 0 0
BITMAP
FFFFC0
022000
022E00
023100
7E2100
422100
422100
41E100
002600
002000
002000
ENDCHAR
STARTCHAR uni0928094D092D
ENCODING -1
SWIDTH 739 0
DWIDTH 13 0
BBX 14 11 0 0
BITMAP
FC7C
0210
0210
0210
0210
7FF0
4210
4210
0010
0010
0010
ENDCHAR
STARTCHAR uni0928094D092E
ENCODING -1
SWIDTH 735 0
DWIDTH 13 0
BBX 13 11 0 0
BITMAP
FFF8
0210
0210
0210
0210
7FF0
4210
4210
0010
0010
0010
ENDCHAR
STARTCHAR uni0928094D092F
ENCODING -1
SWIDTH 801 0
DWIDTH 14 0
BBX 15 11 0 0
BITMAP
FFFE
0088
0088
0088
7F08
4408
4408
0218
01E8
0008
0008
ENDCHAR
STARTCHAR uni0928094D0935
ENCODING -1
SWIDTH 732 0
DWIDTH 13 0
BBX 13 11 0 0
BITMAP
FFF8
0010
0190
0210
7E10
4210
4210
4210
0230
01D0
0010
ENDCHAR
STARTCHAR uni0928094D0938
ENCODING -1
SWIDTH 867 0
DWIDTH 16 0
BBX 16 11 0 0
BITMAP
FFFF
0044
0044
0044
7C84
43FC
4204
0104
0104
0084
00C4
ENDCHAR
STARTCHAR uni0928094D0939
ENCODING -1
SWIDTH 714 0
DWIDTH 13 0
BBX 13 12 0 -1
BITMAP
FFF8
0020
0020
03E0
7E00
4200
41E0
4220
0410
0400
0200
01E0
ENDCHAR
STARTCHAR uni092A094D091F
ENCODING -1
SWIDTH 489 0
DWIDTH 9 0
BBX 9 11 0 0
BITMAP
FF80
4100
4100
4100
2100
3E00
4000
4000
4100
4100
3E00
ENDCHAR
STARTCHAR uni092A094D0920
ENCODING -1
SWIDTH 506 0
DWIDTH 9 0
BBX 9 11 0 0
BITMAP
FF80
4100
4100
4100
2200
3E00
4100
4100
4100
4100
3E00
ENDCHAR
STARTCHAR uni092A094D0924
ENCODING -1
SWIDTH 495 0
DWIDTH 9 0
BBX 9 11 0 0
BITMAP
FF80
4200
4200
4200
4200
3E00
4200
4200
4200
4200
3200
ENDCHAR
STARTCHAR uni092A094D092A
ENCODING -1
SWIDTH 770 0
DWIDTH 14 0
BBX 14 11 0 0
BITMAP
FFFC
4210
4210
4210
4210
4210
2210
1DF0
0010
0010
0010
ENDCHAR
STARTCHAR uni092A094D092B
ENCODING -1
SWIDTH 1003 0
DWIDTH 18 0
BBX 18 11 0 0
BITMAP
FFFFC0
421000
421F00
421080
421080
421080
221080
1DF080
001700
001000
001000
ENDCHAR
STARTCHAR uni092A094D092E
ENCODING -1
SWIDTH 774 0
DWIDTH 14 0
BBX 14 11 0 0
BITMAP
FFFC
4210
4210
4210
4210
21F0
3E10
0210
0010
0010
0010
ENDCHAR
STARTCHAR uni092A094D092F
ENCODING -1
SWIDTH 855 0
DWIDTH 15 0
BBX 16 11 0 0
BITMAP
FFFF
4044
4044
4044
4384
4204
2204
3D0C
00F4
0004
0004
ENDCHAR
STARTCHAR uni092A094D0932
ENCODING -1
SWIDTH 960 0
DWIDTH 17 0
BBX 18 11 0 0
BITMAP
FFFFC0
400100
400100
41CD00
413300
421100
221100
1E0100
020100
01C100
000100
ENDCHAR
STARTCHAR uni092A094D0935
ENCODING -1
SWIDTH 780 0
DWIDTH 14 0
BBX 14 11 0 0
BITMAP
FFFC
4010
40D0
4110
4210
4210
2210
1E10
0110
00F0
0010
ENDCHAR
STARTCHAR uni092A094D0938
ENCODING -1
SWIDTH 880 0
DWIDTH 16 0
BBX 16 11 0 0
BITMAP
FFFF
4044
4044
4044
4044
43FC
2204
1D04
0084
0084
0044
ENDCHAR
STARTCHAR uni092B094D091C
ENCODING -1
SWIDTH 1100 0
DWIDTH 20 0
BBX 20 11 0 0
BITMAP
FFFFF0
420040
420040
42EFC0
430240
420240
220240
1E0240
020240
023C40
020040
ENDCHAR
STARTCHAR uni092B094D091F
ENCODING -1
SWIDTH 1006 0
DWIDTH 18 0
BBX 18 11 0 0
BITMAP
FFFFC0
420100
42E100
431F00
421000
421000
221000
1E1080
021080
020F00
020000
ENDCHAR
STARTCHAR uni092B094D0924
ENCODING -1
SWIDTH 1034 0
DWIDTH 19 0
BBX 19 11 0 0
BITMAP
FFFFE0
420080
420080
42E080
431F80
421080
221080
1E1080
021080
021080
020C80
ENDCHAR
STARTCHAR uni092B094D092A
ENCODING -1
SWIDTH 1021 0
DWIDTH 18 0
BBX 19 11 0 0
BITMAP
FFFFE0
421080
421080
42F080
431080
421080
221080
1E0F80
020080
020080
020080
ENDCHAR
STARTCHAR uni092B094D092B
ENCODING -1
SWIDTH 1256 0
DWIDTH 23 0
BBX 23 11 0 0
BITMAP
FFFFFE
421080
4210F0
42F088
431084
421084
221184
1E0E88
0200B0
020080
020080
ENDCHAR
STARTCHAR uni092B094D092F
ENCODING -1
SWIDTH 1120 0
DWIDTH 20 0
BBX 20 11 0 0
BITMAP
FFFFF0
420440
420440
420440
42F840
431040
221040
3E1040
020FC0
020040
020040
ENDCHAR
STARTCHAR uni092B094D0932
ENCODING -1
SWIDTH 1202 0
DWIDTH 22 0
BBX 22 11 0 0
BITMAP
FFFFFC
420010
42E010
431EF0
421110
421110
221110
1E1110
021010
020C10
020010
ENDCHAR
STARTCHAR uni092B094D0936
ENCODING -1
SWIDTH 1211 0
DWIDTH 22 0
BBX 22 11 0 0
BITMAP
FFE71C
420890
420890
42E890
431090
421F10
221010
1E0810
020810
020410
020210
ENDCHAR
STARTCHAR uni092C094D091C
ENCODING -1
SWIDTH 883 0
DWIDTH 16 0
BBX 16 11 0 0
BITMAP
FFFF
0004
0004
3804
61FC
5024
4824
4424
4224
3FC4
0004
ENDCHAR
STARTCHAR uni092C094D091D
ENCODING -1
SWIDTH 962 0
DWIDTH 17 0
BBX 18 13 0 -2
BITMAP
FFFFC0
001100
39F100
620100
520100
520100
4BFF00
461100
421100
3D1100
01F100
010000
010000
ENDCHAR
STARTCHAR uni092C094D0924
ENCODING -1
SWIDTH 786 0
DWIDTH 14 0
BBX 14 11 0 0
BITMAP
FFFC
0008
3808
6008
61F0
5108
4A08
4608
4208
3F08
0188
ENDCHAR
STARTCHAR uni092C094D0926
ENCODING -1
SWIDTH 775 0
DWIDTH 14 0
BBX 14 11 0 0
BITMAP
FFFC
0010
3810
61F0
6100
5200
4A08
4608
4308
3DF8
0008
ENDCHAR
STARTCHAR uni092C094D0927
ENCODING -1
SWIDTH 844 0
DWIDTH 15 0
BBX 15 11 0 0
BITMAP
FF9E
0204
3A04
6204
51C4
5104
4A04
4604
430C
3DF4
0004
ENDCHAR
STARTCHAR uni092C094D092C
ENCODING -1
SWIDTH 783 0
DWIDTH 14 0
BBX 14 11 0 0
BITMAP
FFFC
0008
38C8
6108
5288
5248
4A28
4610
4310
3DE8
0008
ENDCHAR
STARTCHAR uni092C094D092D
ENCODING -1
SWIDTH 764 0
DWIDTH 14 0
BBX 14 11 0 0
BITMAP
FE7C
0210
3A10
6210
6210
53F0
4A10
4610
4210
3C10
0010
ENDCHAR
STARTCHAR uni092C094D092F
ENCODING -1
SWIDTH 852 0
DWIDTH 15 0
BBX 16 11 0 0
BITMAP
FFFF
0044
3844
6044
7384
4A04
4604
430C
42F4
3C04
0004
ENDCHAR
STARTCHAR uni092C094D0932
ENCODING -1
SWIDTH 961 0
DWIDTH 17 0
BBX 18 11 0 0
BITMAP
FFFFC0
000100
380100
61CD00
613300
521100
4A1100
461100
230100
1DC100
000100
ENDCHAR
STARTCHAR uni092C094D0935
ENCODING -1
SWIDTH 776 0
DWIDTH 14 0
BBX 14 11 0 0
BITMAP
FFFC
0010
38D0
6110
5210
5210
4A10
4610
4310
3DF0
0010
ENDCHAR
STARTCHAR uni092C094D0936
ENCODING -1
SWIDTH 926 0
DWIDTH 17 0
BBX 17 11 0 0
BITMAP
FCE380
011200
391200
601200
501200
4BE200
4B0200
478200
428200
3C4200
006200
ENDCHAR
STARTCHAR uni092C094D0938
ENCODING -1
SWIDTH 897 0
DWIDTH 16 0
BBX 16 11 0 0
BITMAP
FFFF
0042
3842
6042
5042
53FE
4B02
4702
4282
3C82
0042
ENDCHAR
STARTCHAR uni092D094D092F
ENCODING -1
SWIDTH 827 0
DWIDTH 15 0
BBX 15 11 0 0
BITMAP
CFFE
4088
4048
4088
4388
7E08
4208
4208
01F8
0008
0008
ENDCHAR
STARTCHAR uni092D094D0932
ENCODING -1
SWIDTH 941 0
DWIDTH 17 0
BBX 17 11 0 0
BITMAP
CFFF80
400200
400200
41DE00
422200
7E2200
422200
420200
020200
01C200
000200
ENDCHAR
STARTCHAR uni092D094D0935
ENCODING -1
SWIDTH 755 0
DWIDTH 14 0
BBX 14 11 0 0
BITMAP
CFFC
4010
41D0
4210
4210
7E10
4210
4210
0210
01F0
0010
ENDCHAR
STARTCHAR uni092E094D0924
ENCODING -1
SWIDTH 765 0
DWIDTH 14 0
BBX 14 11 0 0
BITMAP
FFFC
4010
4010
4010
41F0
7E10
4210
4210
0210
0210
0190
ENDCHAR
STARTCHAR uni092E094D0926
ENCODING -1
SWIDTH 766 0
DWIDTH 14 0
BBX 14 11 0 0
BITMAP
FFFC
4010
4010
41F0
4200
7E00
4208
4208
0210
01E8
0008
ENDCHAR
STARTCHAR uni092E094D092A
ENCODING -1
SWIDTH 762 0
DWIDTH 14 0
BBX 14 11 0 0
BITMAP
FFFC
4210
4210
4210
4210
7E10
4210
41F0
0010
0010
0010
ENDCHAR
STARTCHAR uni092E094D092C
ENCODING -1
SWIDTH 768 0
DWIDTH 14 0
BBX 14 11 0 0
BITMAP
FFFC
4010
41D0
4310
4290
7E90
4250
4230
0210
01F0
0010
ENDCHAR
STARTCHAR uni092E094D092D
ENCODING -1
SWIDTH 768 0
DWIDTH 14 0
BBX 14 11 0 0
BITMAP
FE7C
4210
4210
4210
4210
7FF0
4210
4210
0010
0010
0010
ENDCHAR
STARTCHAR uni092E094D092E
ENCODING -1
SWIDTH 759 0
DWIDTH 14 0
BBX 14 11 0 0
BITMAP
FFFC
4210
4210
4210
4210
7FF0
4210
4210
0010
0010
0010
ENDCHAR
STARTCHAR uni092E094D092F
ENCODING -1
SWIDTH 834 0
DWIDTH 15 0
BBX 15 11 0 0
BITMAP
FFFE
4048
4048
4048
4388
7E08
4208
4208
01F8
0008
0008
ENDCHAR
STARTCHAR uni092E094D0932
ENCODING -1
SWIDTH 945 0
DWIDTH 17 0
BBX 17 11 0 0
BITMAP
FFFF80
400200
400200
41DE00
422200
7E2200
422200
420200
020200
01C200
000200
ENDCHAR
STARTCHAR uni092E094D0935
ENCODING -1
SWIDTH 761 0
DWIDTH 14 0
BBX 14 11 0 0
BITMAP
FFFC
4010
41D0
4210
4210
7E10
4210
4210
0210
01F0
0010
ENDCHAR
STARTCHAR uni092E094D0936
ENCODING -1
SWIDTH 884 0
DWIDTH 16 0
BBX 16 11 0 0
BITMAP
F9C7
4224
4224
4024
4024
7FC4
4204
4104
0104
0084
0044
ENDCHAR
STARTCHAR uni092E094D0938
ENCODING -1
SWIDTH 816 0
DWIDTH 15 0
BBX 15 11 0 0
BITMAP
FFFE
4088
4088
4088
4108
7FF8
4408
4208
0208
0108
0088
ENDCHAR
STARTCHAR uni092E094D0939
ENCODING -1
SWIDTH 758 0
DWIDTH 14 0
BBX 14 12 0 -1
BITMAP
FFFC
4010
4010
41F0
4200
7E00
41F0
4110
0210
0200
0100
01F0
ENDCHAR
STARTCHAR uni092F094D092F
ENCODING -1
SWIDTH 897 0
DWIDTH 16 0
BBX 16 11 0 0
BITMAP
FFFF
0822
0822
0822
71C2
4102
4102
4104
3EFA
0002
0002
ENDCHAR
STARTCHAR uni0930094D092F
ENCODING -1
SWIDTH 713 0
DWIDTH 13 0
BBX 13 11 0 0
BITMAP
FFF8
0220
0120
8220
7E20
0820
0820
0820
07E0
0020
0020
ENDCHAR
STARTCHAR uni0930094D0939
ENCODING -1
SWIDTH 619 0
DWIDTH 11 0
BBX 11 12 0 -1
BITMAP
FFE0
0040
0040
8FC0
7800
0800
0780
0840
0840
0800
0800
07C0
ENDCHAR
STARTCHAR uni0932094D0915
ENCODING -1
SWIDTH 1182 0
DWIDTH 21 0
BBX 22 11 0 0
BITMAP
FFFFFC
000200
003AE0
3BE310
464210
444210
444210
406210
403E60
380200
000200
ENDCHAR
STARTCHAR uni0932094D0916
ENCODING -1
SWIDTH 1195 0
DWIDTH 22 0
BBX 22 11 0 0
BITMAP
FFFFFC
000410
000410
3B84D0
464910
443910
442110
441110
4010F0
380810
000410
ENDCHAR
STARTCHAR uni0932094D0917
ENCODING -1
SWIDTH 950 0
DWIDTH 17 0
BBX 17 11 0 0
BITMAP
FFFF80
001100
001100
3B9100
461100
442100
446100
400100
400100
380100
000100
ENDCHAR
STARTCHAR uni0932094D091C
ENCODING -1
SWIDTH 1035 0
DWIDTH 19 0
BBX 19 11 0 0
BITMAP
FFFFE0
000080
000080
39BF80
460480
440480
440480
400480
400480
387880
000080
ENDCHAR
STARTCHAR uni0932094D091F
ENCODING -1
SWIDTH 929 0
DWIDTH 17 0
BBX 17 10 0 1
BITMAP
FFFF80
000200
000200
3BBE00
464000
444000
444000
404100
404100
383E00
ENDCHAR
STARTCHAR uni0932094D0920
ENCODING -1
SWIDTH 953 0
DWIDTH 17 0
BBX 17 10 0 1
BITMAP
FFFF80
000200
000200
3BBE00
464100
444100
444100
404100
404100
383E00
ENDCHAR
STARTCHAR uni0932094D0921
ENCODING -1
SWIDTH 916 0
DWIDTH 16 0
BBX 17 11 0 0
BITMAP
FFFF80
000200
000200
3BBE00
464000
444000
443E00
400200
404200
384200
003E00
ENDCHAR
STARTCHAR uni0932094D0922
ENCODING -1
SWIDTH 924 0
DWIDTH 17 0
BBX 17 10 0 1
BITMAP
FFFF80
000200
000200
39BE00
464000
444000
444600
444900
404100
383E00
ENDCHAR
STARTCHAR uni0932094D0924
ENCODING -1
SWIDTH 929 0
DWIDTH 17 0
BBX 17 11 0 0
BITMAP
FFFF80
000200
000200
398200
467E00
444200
444200
404200
404200
384200
003200
ENDCHAR
STARTCHAR uni0932094D0925
ENCODING -1
SWIDTH 1061 0
DWIDTH 19 0
BBX 19 11 0 0
BITMAP
FF9C60
002440
002440
398440
464440
447840
444080
402080
401F40
380040
000040
ENDCHAR
STARTCHAR uni0932094D0926
ENCODING -1
SWIDTH 939 0
DWIDTH 17 0
BBX 17 11 0 0
BITMAP
FFFF80
000200
000200
3BBE00
466000
444000
444100
404100
402300
381D00
000100
ENDCHAR
STARTCHAR uni0932094D092A
ENCODING -1
SWIDTH 939 0
DWIDTH 17 0
BBX 17 11 0 0
BITMAP
FFFF80
004200
004200
39C200
464200
444200
444200
403E00
400200
380200
000200
ENDCHAR
STARTCHAR uni0932094D092B
ENCODING -1
SWIDTH 1176 0
DWIDTH 21 0
BBX 21 11 0 0
BITMAP
FFFFF8
004200
0043E0
39C210
464210
444210
442210
443E10
4002E0
380200
000200
ENDCHAR
STARTCHAR uni0932094D092C
ENCODING -1
SWIDTH 949 0
DWIDTH 17 0
BBX 17 11 0 0
BITMAP
FFFF80
000100
003900
39A100
465100
444900
444500
444600
402200
381D00
000100
ENDCHAR
STARTCHAR uni0932094D092D
ENCODING -1
SWIDTH 931 0
DWIDTH 17 0
BBX 17 11 0 0
BITMAP
FFCF80
004200
004200
39C200
464200
447E00
444200
404200
400200
380200
000200
ENDCHAR
STARTCHAR uni0932094D092E
ENCODING -1
SWIDTH 931 0
DWIDTH 17 0
BBX 17 11 0 0
BITMAP
FFFF80
004200
004200
39C200
464200
447E00
444200
404200
400200
380200
000200
ENDCHAR
STARTCHAR uni0932094D092F
ENCODING -1
SWIDTH 1033 0
DWIDTH 19 0
BBX 19 11 0 0
BITMAP
FFFFE0
000880
000880
3BC880
447080
442080
442080
402080
401F80
380080
000080
ENDCHAR
STARTCHAR uni0932094D0932
ENCODING -1
SWIDTH 1112 0
DWIDTH 20 0
BBX 20 11 0 0
BITMAP
FFFFF0
000040
000040
3BBBC0
464440
444440
444440
404040
404040
383840
000040
ENDCHAR
STARTCHAR uni0932094D0935
ENCODING -1
SWIDTH 940 0
DWIDTH 17 0
BBX 17 11 0 0
BITMAP
FFFF80
000200
003A00
39E200
464200
444200
444200
444200
402200
381E00
000200
ENDCHAR
STARTCHAR uni0932094D0938
ENCODING -1
SWIDTH 1068 0
DWIDTH 19 0
BBX 20 11 0 0
BITMAP
FFFFF0
000840
000840
3B8840
464840
447FC0
442040
402040
401040
380840
000840
ENDCHAR
STARTCHAR uni0932094D0939
ENCODING -1
SWIDTH 922 0
DWIDTH 17 0
BBX 17 12 0 -1
BITMAP
FFFF80
000200
000200
3BBE00
464000
444000
443E00
404200
404200
384000
004000
003E00
ENDCHAR
STARTCHAR uni0933094D092F
ENCODING -1
SWIDTH 1050 0
DWIDTH 19 0
BBX 19 11 0 0
BITMAP
FFFFE0
000880
39C480
462880
443880
422080
422080
442080
463F80
39C080
000080
ENDCHAR
STARTCHAR uni0935094D092F
ENCODING -1
SWIDTH 852 0
DWIDTH 15 0
BBX 16 11 0 0
BITMAP
FFFF
0044
3844
4044
4384
4204
4204
430C
42F4
3C04
0004
ENDCHAR
STARTCHAR uni0935094D0932
ENCODING -1
SWIDTH 961 0
DWIDTH 17 0
BBX 18 11 0 0
BITMAP
FFFFC0
000100
380100
41CF00
413100
421100
421100
421100
430100
3DC100
000100
ENDCHAR
STARTCHAR uni0935094D0935
ENCODING -1
SWIDTH 776 0
DWIDTH 14 0
BBX 14 11 0 0
BITMAP
FFFC
0010
38D0
4110
4210
4210
4210
4210
4310
3DF0
0010
ENDCHAR
STARTCHAR uni0935094D0939
ENCODING -1
SWIDTH 754 0
DWIDTH 14 0
BBX 14 12 0 -1
BITMAP
FFFC
0010
3810
41F0
4200
4200
41E0
4210
4210
3E00
0200
01F0
ENDCHAR
STARTCHAR uni0936094D0915
ENCODING -1
SWIDTH 1093 0
DWIDTH 20 0
BBX 19 11 1 0
BITMAP
73FFE0
880800
88CF80
090880
090840
F10840
810840
411880
40EB80
200800
100800
ENDCHAR
STARTCHAR uni0936094D091A
ENCODING -1
SWIDTH 950 0
DWIDTH 17 0
BBX 16 11 1 0
BITMAP
73FF
8802
8802
0BF2
0882
F082
8082
4084
407A
2002
1002
ENDCHAR
STARTCHAR uni0936094D091B
ENCODING -1
SWIDTH 968 0
DWIDTH 17 0
BBX 17 11 1 0
BITMAP
73FF80
890200
890200
090C00
088200
F0E200
810200
410200
410200
20FC00
100000
ENDCHAR
STARTCHAR uni0936094D091F
ENCODING -1
SWIDTH 854 0
DWIDTH 15 0
BBX 15 11 1 0
BITMAP
73FE
8808
8808
08F0
0900
F100
8104
4104
4108
20F0
1000
ENDCHAR
STARTCHAR uni0936094D0924
ENCODING -1
SWIDTH 864 0
DWIDTH 16 0
BBX 15 11 1 0
BITMAP
73FE
8808
8808
8808
08F8
F108
8108
4108
2108
2108
10C8
ENDCHAR
STARTCHAR uni0936094D092E
ENCODING -1
SWIDTH 885 0
DWIDTH 16 0
BBX 15 11 1 0
BITMAP
73FE
8908
8908
0908
0908
F0F8
8108
4108
4008
2008
1008
ENDCHAR
STARTCHAR uni0936094D092F
ENCODING -1
SWIDTH 940 0
DWIDTH 17 0
BBX 16 11 1 0
BITMAP
73FF
8844
8824
0844
09C4
F104
8104
4104
40FC
2004
1004
ENDCHAR
STARTCHAR uni0936094D0932
ENCODING -1
SWIDTH 1039 0
DWIDTH 19 0
BBX 18 11 1 0
BITMAP
73FFC0
880100
880100
08EF00
091100
F11100
811100
410100
410100
20E100
100100
ENDCHAR
STARTCHAR uni0936094D0935
ENCODING -1
SWIDTH 850 0
DWIDTH 15 0
BBX 15 11 1 0
BITMAP
73FE
8808
88C8
0908
0908
F108
8108
4108
4118
20E8
1008
ENDCHAR
STARTCHAR uni0936094D0936
ENCODING -1
SWIDTH 1009 0
DWIDTH 18 0
BBX 17 11 1 0
BITMAP
70F180
891100
891100
081100
081100
F1E100
810100
408100
404100
204100
102100
ENDCHAR
STARTCHAR uni0937094D0915
ENCODING -1
SWIDTH 1039 0
DWIDTH 19 0
BBX 19 11 0 0
BITMAP
FFFFE0
600800
50CF80
490880
450840
430840
230840
3D1880
00EB80
000800
000800
ENDCHAR
STARTCHAR uni0937094D091F
ENCODING -1
SWIDTH 493 0
DWIDTH 9 0
BBX 9 11 0 0
BITMAP
FF80
6100
5100
4D00
2300
3E00
4000
4000
4100
4100
3E00
ENDCHAR
STARTCHAR uni0937094D0920
ENCODING -1
SWIDTH 511 0
DWIDTH 9 0
BBX 9 11 0 0
BITMAP
FF80
7F00
7F00
7F00
3E00
3E00
4100
4100
4100
4100
3E00
ENDCHAR
STARTCHAR uni0937094D0923
ENCODING -1
SWIDTH 980 0
DWIDTH 18 0
BBX 18 11 0 0
BITMAP
FFFFC0
611100
511100
491100
451100
431100
231100
3CE100
000100
000100
000100
ENDCHAR
STARTCHAR uni0937094D092A
ENCODING -1
SWIDTH 980 0
DWIDTH 18 0
BBX 18 11 0 0
BITMAP
FFFFC0
611100
511100
491100
451100
431100
231100
3CE100
000100
000100
000100
ENDCHAR
STARTCHAR uni0937094D092B
ENCODING -1
SWIDTH 1036 0
DWIDTH 19 0
BBX 19 11 0 0
BITMAP
FFFFE0
610800
510F80
490880
450840
430840
231840
3CE880
000B80
000800
000800
ENDCHAR
STARTCHAR uni0937094D092E
ENCODING -1
SWIDTH 791 0
DWIDTH 14 0
BBX 14 11 0 0
BITMAP
FFFC
6108
5108
4908
4508
43F8
2308
3D08
0008
0008
0008
ENDCHAR
STARTCHAR uni0937094D092F
ENCODING -1
SWIDTH 877 0
DWIDTH 16 0
BBX 16 11 0 0
BITMAP
FFFF
6044
5044
4844
45C4
4304
2304
3D04
00FC
0004
0004
ENDCHAR
STARTCHAR uni0937094D0935
ENCODING -1
SWIDTH 802 0
DWIDTH 14 0
BBX 15 11 0 0
BITMAP
FFFE
6008
50E8
4908
4508
4308
2308
3D08
0108
00F8
0008
ENDCHAR
STARTCHAR uni0937094D0937
ENCODING -1
SWIDTH 804 0
DWIDTH 14 0
BBX 15 11 0 0
BITMAP
FFFE
6108
5188
4948
4528
4318
2308
3CF8
0008
0008
0008
ENDCHAR
STARTCHAR uni0938094D0915
ENCODING -1
SWIDTH 1089 0
DWIDTH 20 0
BBX 20 11 0 0
BITMAP
FFFFF0
100400
106780
108440
108420
7F8420
408420
208C40
207580
100400
180400
ENDCHAR
STARTCHAR uni0938094D0916
ENCODING -1
SWIDTH 990 0
DWIDTH 18 0
BBX 18 11 0 0
BITMAP
FFFFC0
104100
104100
104D00
105100
7F9100
421100
211100
208F00
108100
184100
ENDCHAR
STARTCHAR uni0938094D091C
ENCODING -1
SWIDTH 970 0
DWIDTH 17 0
BBX 18 11 0 0
BITMAP
FFFFC0
100100
100100
100100
107F00
7F1100
400900
200900
200900
10F100
180100
ENDCHAR
STARTCHAR uni0938094D091F
ENCODING -1
SWIDTH 844 0
DWIDTH 15 0
BBX 15 11 0 0
BITMAP
FFFE
1008
1008
1078
1080
7F80
4080
2084
2084
1078
1800
ENDCHAR
STARTCHAR uni0938094D0924
ENCODING -1
SWIDTH 852 0
DWIDTH 15 0
BBX 16 11 0 0
BITMAP
FFFF
1004
1004
1004
10FC
7F84
4084
2084
2084
1084
1864
ENDCHAR
STARTCHAR uni0938094D0925
ENCODING -1
SWIDTH 960 0
DWIDTH 17 0
BBX 18 11 0 0
BITMAP
FE71C0
108900
108900
108900
101100
7FF100
408100
208300
207D00
100100
180100
ENDCHAR
STARTCHAR uni0938094D0926
ENCODING -1
SWIDTH 851 0
DWIDTH 15 0
BBX 16 11 0 0
BITMAP
FFFF
1004
1004
107C
1080
7F80
4084
2084
2084
107C
1804
ENDCHAR
STARTCHAR uni0938094D092A
ENCODING -1
SWIDTH 857 0
DWIDTH 15 0
BBX 16 11 0 0
BITMAP
FFFF
1084
1084
1084
1084
7F84
4084
207C
2004
1004
1804
ENDCHAR
STARTCHAR uni0938094D092B
ENCODING -1
SWIDTH 1092 0
DWIDTH 20 0
BBX 20 11 0 0
BITMAP
FFFFF0
108400
1087C0
108440
108420
7F8420
408C20
207440
2005C0
100400
180400
ENDCHAR
STARTCHAR uni0938094D092C
ENCODING -1
SWIDTH 857 0
DWIDTH 15 0
BBX 16 11 0 0
BITMAP
FFFF
1004
1074
1084
10C4
7FA4
4094
208C
208C
1074
1804
ENDCHAR
STARTCHAR uni0938094D092E
ENCODING -1
SWIDTH 850 0
DWIDTH 15 0
BBX 16 11 0 0
BITMAP
FFFF
1084
1084
1084
1084
7FFC
4084
2084
2004
1004
1804
ENDCHAR
STARTCHAR uni0938094D092F
ENCODING -1
SWIDTH 920 0
DWIDTH 17 0
BBX 17 11 0 0
BITMAP
FFFF80
102200
102200
102200
10C200
7F8200
408200
208200
207E00
100200
180200
ENDCHAR
STARTCHAR uni0938094D0932
ENCODING -1
SWIDTH 1027 0
DWIDTH 18 0
BBX 19 11 0 0
BITMAP
FFFFE0
100080
100080
10F780
108880
7F0880
408880
208080
208080
106080
180080
ENDCHAR
STARTCHAR uni0938094D0935
ENCODING -1
SWIDTH 842 0
DWIDTH 15 0
BBX 15 11 0 0
BITMAP
FFFE
1004
1064
1084
1084
7F04
4084
2084
208C
1074
1804
ENDCHAR
STARTCHAR uni0938094D0938
ENCODING -1
SWIDTH 871 0
DWIDTH 16 0
BBX 16 11 0 0
BITMAP
FFFF
1044
1044
1044
1084
7FFC
4204
2104
2104
1084
1844
ENDCHAR
STARTCHAR uni0939094D0923
ENCODING -1
SWIDTH 1136 0
DWIDTH 20 0
BBX 21 15 0 -4
BITMAP
FFFFF8
022220
3E2220
202220
402220
202220
3E2220
421C20
420020
400020
3E0000
000000
0C0000
040000
020000
ENDCHAR
STARTCHAR uni0939094D092E
ENCODING -1
SWIDTH 746 0
DWIDTH 13 0
BBX 14 13 0 -2
BITMAP
FFFC
0210
0210
3E10
4010
4010
3E10
4210
43F0
4210
4210
4010
3E00
ENDCHAR
STARTCHAR uni0939094D092F
ENCODING -1
SWIDTH 785 0
DWIDTH 14 0
BBX 14 13 0 -2
BITMAP
FFFC
0208
0208
3E08
4008
4008
3F88
4088
4088
4388
4210
41E8
3C08
ENDCHAR
STARTCHAR uni0939094D0932
ENCODING -1
SWIDTH 1110 0
DWIDTH 20 0
BBX 20 15 0 -4
BITMAP
FFFFF0
020040
3E3BC0
404440
404440
3E4440
224440
424040
404040
203840
3E0000
000000
080000
040000
020000
ENDCHAR
STARTCHAR uni0939094D0935
ENCODING -1
SWIDTH 920 0
DWIDTH 17 0
BBX 17 15 0 -4
BITMAP
FFFF80
020200
3E3A00
204200
404200
204200
3E4200
424200
423E00
400200
3E0000
000000
080000
040000
020000
ENDCHAR
STARTCHAR uni0915093C094D0915093C
ENCODING -1
SWIDTH 1275 0
DWIDTH 23 0
BBX 23 12 0 -1
BITMAP
FFFFFE
020080
3BEEF8
421084
421084
421084
421084
421084
3E0FB8
020080
020080
200800
ENDCHAR
STARTCHAR uni0915093C094D0924
ENCODING -1
SWIDTH 1016 0
DWIDTH 18 0
BBX 19 12 0 -1
BITMAP
FFFFE0
020080
3BE080
422080
421F80
421080
422080
422080
3E2080
021080
021C80
200000
ENDCHAR
STARTCHAR uni0915093C094D092B
ENCODING -1
SWIDTH 1246 0
DWIDTH 22 0
BBX 23 12 0 -1
BITMAP
FFFFFE
021100
3A1170
43E188
421108
421108
421108
420F08
3E0130
020100
020100
200000
ENDCHAR
STARTCHAR uni0915093C094D092B093C
ENCODING -1
SWIDTH 1247 0
DWIDTH 22 0
BBX 23 12 0 -1
BITMAP
FFFFFE
021100
3A1170
43E188
421108
421108
421108
420F08
3E0130
020100
020100
200800
ENDCHAR
STARTCHAR uni0915093C094D092C
ENCODING -1
SWIDTH 1043 0
DWIDTH 19 0
BBX 19 12 0 -1
BITMAP
FFFFE0
020080
3BEE80
421880
421480
421480
421280
421180
421080
3E0F80
020080
200000
ENDCHAR
STARTCHAR uni0915093C094D092E
ENCODING -1
SWIDTH 998 0
DWIDTH 18 0
BBX 18 12 0 -1
BITMAP
FFFFC0
022100
3A2100
43E100
422100
421F00
422100
422100
3E0100
020100
020100
200000
ENDCHAR
STARTCHAR uni0916093C094D0924
ENCODING -1
SWIDTH 984 0
DWIDTH 18 0
BBX 18 12 0 -1
BITMAP
FFFFC0
080100
080100
098100
0A1F00
722100
422100
222100
21E100
102100
081900
008000
ENDCHAR
STARTCHAR uni0916093C094D092E
ENCODING -1
SWIDTH 965 0
DWIDTH 17 0
BBX 18 12 0 -1
BITMAP
FFFFC0
082100
082100
09A100
0A2100
723F00
422100
222100
21C100
100100
080100
008000
ENDCHAR
STARTCHAR uni0916093C094D092F
ENCODING -1
SWIDTH 1045 0
DWIDTH 19 0
BBX 19 12 0 -1
BITMAP
FFFFE0
080880
080880
098880
0A3880
722080
422080
222080
21DF80
100080
080080
008000
ENDCHAR
STARTCHAR uni0916093C094D0935
ENCODING -1
SWIDTH 972 0
DWIDTH 18 0
BBX 18 12 0 -1
BITMAP
FFFFC0
080100
081D00
09A100
0A2100
722100
422100
222100
21E100
101F00
080100
008000
ENDCHAR
STARTCHAR uni0916093C094D0936
ENCODING -1
SWIDTH 1123 0
DWIDTH 20 0
BBX 20 12 0 -1
BITMAP
FF9E30
081220
082220
09A220
0A0220
727C20
422020
222020
21D020
101820
080820
008400
ENDCHAR
STARTCHAR uni0916093C094D0938
ENCODING -1
SWIDTH 1066 0
DWIDTH 19 0
BBX 19 12 0 -1
BITMAP
FFFFE0
080840
080840
098840
0A0840
727FC0
422040
222040
21D040
101040
080840
008000
ENDCHAR
STARTCHAR uni091C093C094D091C093C
ENCODING -1
SWIDTH 934 0
DWIDTH 17 0
BBX 17 12 0 -1
BITMAP
FFFF80
000200
000200
000200
7EFE00
082200
082200
082200
082200
71E200
000200
208000
ENDCHAR
STARTCHAR uni091C093C094D092F
ENCODING -1
SWIDTH 893 0
DWIDTH 16 0
BBX 16 12 0 -1
BITMAP
FFFF
0022
0022
7F22
09C2
0902
0904
0904
08FA
F002
0002
2000
ENDCHAR
STARTCHAR uni092B093C094D091C093C
ENCODING -1
SWIDTH 1100 0
DWIDTH 20 0
BBX 20 12 0 -1
BITMAP
FFFFF0
420040
420040
42EFC0
430240
420240
220240
1E0240
020240
023C40
020040
200800
ENDCHAR
STARTCHAR uni092B093C094D0924
ENCODING -1
SWIDTH 1036 0
DWIDTH 19 0
BBX 19 12 0 -1
BITMAP
FFFFE0
420080
420080
42E080
431F80
421080
221080
1E1080
021080
021080
020C80
200000
ENDCHAR
STARTCHAR uni092B093C094D092B093C
ENCODING -1
SWIDTH 1256 0
DWIDTH 23 0
BBX 23 12 0 -1
BITMAP
FFFFFE
421080
4210F0
42F088
431084
421084
221184
1E0E88
0200B0
020080
020080
200800
ENDCHAR
STARTCHAR uni092B093C094D0938
ENCODING -1
SWIDTH 1141 0
DWIDTH 21 0
BBX 21 12 0 -1
BITMAP
FFFFF8
420420
420420
42E420
431420
421FE0
221020
3E0820
020820
020420
020420
200200
ENDCHAR
STARTCHAR uni092C094D091C093C
ENCODING -1
SWIDTH 883 0
DWIDTH 16 0
BBX 16 12 0 -1
BITMAP
FFFF
0004
0004
3804
61FC
5024
4824
4424
4224
3FC4
0004
0100
ENDCHAR
STARTCHAR uni0932094D091C093C
ENCODING -1
SWIDTH 1062 0
DWIDTH 19 0
BBX 19 12 0 -1
BITMAP
FFFFE0
000080
000080
39BF80
460480
440480
440480
400480
400480
387880
000080
002000
ENDCHAR
STARTCHAR uni0936094D0915093C
ENCODING -1
SWIDTH 1093 0
DWIDTH 20 0
BBX 19 12 1 -1
BITMAP
73FFE0
880800
88CF80
090880
090840
F10840
810840
411880
40EB80
200800
100800
008000
ENDCHAR
STARTCHAR uni0924094D0924094D
ENCODING -1
SWIDTH 309 0
DWIDTH 6 0
BBX 8 11 0 0
BITMAP
FF
00
00
00
7F
20
20
20
20
20
18
ENDCHAR
STARTCHAR uni0928094D092D094D
ENCODING -1
SWIDTH 505 0
DWIDTH 9 0
BBX 11 8 0 3
BITMAP
FC60
0200
0200
0200
7E00
43E0
4200
0200
ENDCHAR
STARTCHAR uni0928094D0938094D
ENCODING -1
SWIDTH 635 0
DWIDTH 11 0
BBX 14 11 0 0
BITMAP
FFFC
0040
0040
0040
7C80
43FC
4200
0100
0100
0080
0040
ENDCHAR
STARTCHAR uni092E094D092D094D
ENCODING -1
SWIDTH 533 0
DWIDTH 10 0
BBX 12 8 0 3
BITMAP
FE70
4200
4200
4200
4200
7FF0
4200
4200
ENDCHAR
STARTCHAR uni0932094D092D094D
ENCODING -1
SWIDTH 694 0
DWIDTH 12 0
BBX 15 10 0 1
BITMAP
FFCE
0040
0040
39C0
4640
447E
4440
4040
4000
3800
ENDCHAR
STARTCHAR uni0938094D0924094D0930094D
ENCODING -1
SWIDTH 575 0
DWIDTH 10 0
BBX 13 11 0 0
BITMAP
FFE0
1000
1000
10F0
1108
7F08
4008
2010
2020
1040
1980
ENDCHAR
STARTCHAR uni0915094D0924094D092F
ENCODING -1
SWIDTH 1356 0
DWIDTH 24 0
BBX 25 11 0 0
BITMAP
FFFFFF80
02002200
3BE02200
42102200
421FC200
42110200
42110200
42108600
3E107A00
02100200
020C0200
ENDCHAR
STARTCHAR uni0915094D0924094D0930
ENCODING -1
SWIDTH 997 0
DWIDTH 18 0
BBX 18 11 0 0
BITMAP
FFFFC0
020100
3BE100
421F00
422100
422100
422100
420300
3E0500
020900
023100
ENDCHAR
STARTCHAR uni0915094D0924094D0935
ENCODING -1
SWIDTH 1242 0
DWIDTH 22 0
BBX 23 11 0 0
BITMAP
FFFFFE
020008
3BE0E8
421F08
422108
422108
422108
422108
422118
3E20E8
021808
ENDCHAR
STARTCHAR uni0915094D092A094D0930
ENCODING -1
SWIDTH 1007 0
DWIDTH 18 0
BBX 18 11 0 0
BITMAP
FFFFC0
022080
3A2080
43E080
422080
422080
421100
421E80
3E0480
020880
021080
ENDCHAR
STARTCHAR uni0915094D0935094D092F
ENCODING -1
SWIDTH 1384 0
DWIDTH 25 0
BBX 25 11 0 0
BITMAP
FFFFFF80
02002200
3BEE1200
42102200
4210E200
42108200
42108200
42108200
42117E00
3E0E0200
02000200
ENDCHAR
STARTCHAR uni0915094D0938094D091F
ENCODING -1
SWIDTH 1376 0
DWIDTH 25 0
BBX 25 11 0 0
BITMAP
FFFFFF80
02020200
3BE20200
42123E00
42144000
421FC000
42104000
42084100
3E084100
02043E00
02020000
ENDCHAR
STARTCHAR uni0915094D0938094D0921
ENCODING -1
SWIDTH 1388 0
DWIDTH 25 0
BBX 25 11 0 0
BITMAP
FFFFFF80
02020200
3BE20200
42123E00
42142000
421FE000
42103E00
42080100
3E042100
02042100
02023E00
ENDCHAR
STARTCHAR uni0915094D0938094D0924
ENCODING -1
SWIDTH 1423 0
DWIDTH 26 0
BBX 26 11 0 0
BITMAP
FFFFFFC0
02020100
3BE20100
42120100
42143F00
421FE100
42102100
42082100
3E042100
02042100
02021900
ENDCHAR
STARTCHAR uni0915094D0938094D092A094D0930
ENCODING -1
SWIDTH 1437 0
DWIDTH 26 0
BBX 26 11 0 0
BITMAP
FFFFFFC0
02022100
3BE22100
42122100
42142100
421FE100
42102100
42081F00
3E040500
02040900
02021100
ENDCHAR
STARTCHAR uni0915094D0938094D092A094D0932
ENCODING -1
SWIDTH 1866 0
DWIDTH 34 0
BBX 34 11 0 0
BITMAP
FFFFFFFFC0
0202200100
3BE2200100
421220EF00
4214211100
421FE11100
4210211100
42081F0100
3E08010100
020400C100
0202000100
ENDCHAR
STARTCHAR uni0917094D0927094D092F
ENCODING -1
SWIDTH 1156 0
DWIDTH 21 0
BBX 21 11 0 0
BITMAP
FF9FF8
220220
220220
220220
21CE20
220820
C20820
020820
020FE0
01F020
000020
ENDCHAR
STARTCHAR uni0917094D0927094D0935
ENCODING -1
SWIDTH 1084 0
DWIDTH 20 0
BBX 20 11 0 0
BITMAP
FF9FF0
220040
220740
220840
21C840
220840
C20840
020840
020840
01F7C0
000040
ENDCHAR
STARTCHAR uni0917094D0928094D092F
ENCODING -1
SWIDTH 1069 0
DWIDTH 19 0
BBX 20 11 0 0
BITMAP
FFFFF0
200440
200440
200440
23F840
242040
C22040
0010C0
000F40
000040
000040
ENDCHAR
STARTCHAR uni0917094D092D094D092F
ENCODING -1
SWIDTH 1102 0
DWIDTH 20 0
BBX 20 11 0 0
BITMAP
FE7FF0
220440
220240
220440
221C40
23F040
C21040
021040
000FC0
000040
000040
ENDCHAR
STARTCHAR uni0917094D0930094D092F
ENCODING -1
SWIDTH 817 0
DWIDTH 15 0
BBX 15 12 0 -1
BITMAP
FFFE
2088
2088
2088
2388
2208
C208
0208
01F8
0068
0088
0100
ENDCHAR
STARTCHAR uni091A094D091B094D0935
ENCODING -1
SWIDTH 913 0
DWIDTH 16 0
BBX 17 13 0 -2
BITMAP
FFFF80
010200
010200
FD0E00
20E200
208200
210200
210200
1EFE00
008200
008200
008400
007C00
ENDCHAR
STARTCHAR uni091C094D091C094D091E
ENCODING -1
SWIDTH 945 0
DWIDTH 17 0
BBX 17 12 0 -1
BITMAP
FFFF80
000200
000200
00FE00
7F0200
090200
08F200
080A00
090A00
710A00
01F200
010000
ENDCHAR
STARTCHAR uni091C094D091C094D092F
ENCODING -1
SWIDTH 1252 0
DWIDTH 23 0
BBX 23 11 0 0
BITMAP
FFFFFE
000088
000088
000088
7EFF08
082208
082208
082208
0821F8
71C008
000008
ENDCHAR
STARTCHAR uni091C094D091C094D0935
ENCODING -1
SWIDTH 1243 0
DWIDTH 22 0
BBX 21 11 0 0
BITMAP
FFFFF8
000010
000190
000210
7EFC10
082210
082210
082210
082230
71C1D0
000010
ENDCHAR
STARTCHAR uni0924094D0915094D092F
ENCODING -1
SWIDTH 1346 0
DWIDTH 24 0
BBX 24 11 0 0
BITMAP
FFFFFF
001022
01D022
3E1022
421FC2
421102
421102
421086
41F0FA
401002
301002
ENDCHAR
STARTCHAR uni0924094D0915094D0930
ENCODING -1
SWIDTH 995 0
DWIDTH 18 0
BBX 18 12 0 -1
BITMAP
FFFFC0
001000
01DF00
3E1080
421080
421080
421080
421080
41F700
405000
309000
010000
ENDCHAR
STARTCHAR uni0924094D0915094D0935
ENCODING -1
SWIDTH 1282 0
DWIDTH 23 0
BBX 23 11 0 0
BITMAP
FFFFFE
001008
01DF68
3E1088
421108
421108
421108
421108
421088
41F078
301008
ENDCHAR
STARTCHAR uni0924094D0915094D0937
ENCODING -1
SWIDTH 943 0
DWIDTH 17 0
BBX 17 11 0 0
BITMAP
FEE380
011200
011200
011200
3FFE00
420200
420200
421200
421200
41F200
301200
ENDCHAR
STARTCHAR uni0924094D0916094D0930
ENCODING -1
SWIDTH 1008 0
DWIDTH 18 0
BBX 18 12 0 -1
BITMAP
FFFFC0
004080
004080
3C4C80
424880
439080
411080
410900
408E80
404480
306480
000800
ENDCHAR
STARTCHAR uni0924094D0924094D092F
ENCODING -1
SWIDTH 888 0
DWIDTH 16 0
BBX 16 11 0 0
BITMAP
FFFF
0024
0024
7E24
21C4
2104
2104
2104
20FC
2004
1804
ENDCHAR
STARTCHAR uni0924094D0924094D0935
ENCODING -1
SWIDTH 788 0
DWIDTH 14 0
BBX 14 11 0 0
BITMAP
FFFC
0008
00C8
0108
7F08
2108
2108
2108
2118
20E8
1808
ENDCHAR
STARTCHAR uni0924094D0928094D092F
ENCODING -1
SWIDTH 1098 0
DWIDTH 20 0
BBX 20 11 0 0
BITMAP
FFFFF0
000440
000440
3E0440
43FC40
421040
421040
401040
400FC0
400040
300040
ENDCHAR
STARTCHAR uni0924094D092A094D0930
ENCODING -1
SWIDTH 763 0
DWIDTH 14 0
BBX 14 11 0 0
BITMAP
FFFC
0210
0210
3E10
4210
4210
4210
41F0
4050
4090
3310
ENDCHAR
STARTCHAR uni0924094D092A094D0932
ENCODING -1
SWIDTH 1219 0
DWIDTH 22 0
BBX 22 11 0 0
BITMAP
FFFFFC
020010
020010
3E0EF0
421110
421110
421110
41F010
401010
400E10
300010
ENDCHAR
STARTCHAR uni0924094D092E094D092F
ENCODING -1
SWIDTH 1096 0
DWIDTH 20 0
BBX 20 11 0 0
BITMAP
FFFFF0
020440
020440
3E0440
421C40
43F040
421040
421040
400FC0
400040
300040
ENDCHAR
STARTCHAR uni0924094D0930094D092F
ENCODING -1
SWIDTH 848 0
DWIDTH 15 0
BBX 16 11 0 0
BITMAP
FFFF
0044
0044
3C44
4384
4204
0204
050C
08F4
1004
6004
ENDCHAR
STARTCHAR uni0924094D0938094D092F
ENCODING -1
SWIDTH 1234 0
DWIDTH 22 0
BBX 22 11 0 0
BITMAP
FFFFFC
004088
004088
3E4088
424708
43FC08
410408
410218
4081E8
404008
304008
ENDCHAR
STARTCHAR uni0924094D0938094D0935
ENCODING -1
SWIDTH 1155 0
DWIDTH 21 0
BBX 21 11 0 0
BITMAP
FFFFF8
004020
0043A0
3E4420
424420
43FC20
410420
410420
408420
4043E0
304020
ENDCHAR
STARTCHAR uni0926094D0917094D0930
ENCODING -1
SWIDTH 493 0
DWIDTH 9 0
BBX 9 15 0 -4
BITMAP
FF80
0200
0200
3E00
4000
4000
4100
4100
3F00
1100
1100
1300
6500
0900
1000
ENDCHAR
STARTCHAR uni0926094D092C094D0930
ENCODING -1
SWIDTH 483 0
DWIDTH 9 0
BBX 9 15 0 -4
BITMAP
FF80
0200
0200
3E00
4000
4000
4000
4100
4200
3D00
5900
4600
3E00
0400
1800
ENDCHAR
STARTCHAR uni0926094D092F094D092D
ENCODING -1
SWIDTH 607 0
DWIDTH 11 0
BBX 11 14 0 -3
BITMAP
FFE0
0480
3C80
2080
2080
3880
2080
2080
3F80
0280
7480
1880
0C80
0480
ENDCHAR
STARTCHAR uni0926094D092F094D0930
ENCODING -1
SWIDTH 595 0
DWIDTH 11 0
BBX 11 12 0 -1
BITMAP
FFE0
0480
3C80
4080
4080
3880
4080
4080
4080
3F80
0680
0800
ENDCHAR
STARTCHAR uni0927094D0928094D092F
ENCODING -1
SWIDTH 1138 0
DWIDTH 20 0
BBX 21 11 0 0
BITMAP
FBFFF8
400220
400220
400220
39FC20
411020
410820
410820
3F07E0
000020
000020
ENDCHAR
STARTCHAR uni0928094D0915094D0938
ENCODING -1
SWIDTH 1384 0
DWIDTH 25 0
BBX 25 11 0 0
BITMAP
FFFFFF80
00202200
01AE2200
02112200
7C212200
4221FE00
42208200
02208200
01E04200
00204200
00202200
ENDCHAR
STARTCHAR uni0928094D0924094D092F
ENCODING -1
SWIDTH 1073 0
DWIDTH 19 0
BBX 20 11 0 0
BITMAP
FFFFF0
000440
000440
000440
7FF840
422040
442040
0410C0
040F40
020040
018040
ENDCHAR
STARTCHAR uni0928094D0924094D0930
ENCODING -1
SWIDTH 732 0
DWIDTH 13 0
BBX 13 11 0 0
BITMAP
FFF8
0010
0010
03D0
7E30
4410
4410
4030
0050
0190
0210
ENDCHAR
STARTCHAR uni0928094D0924094D0938
ENCODING -1
SWIDTH 1134 0
DWIDTH 20 0
BBX 21 11 0 0
BITMAP
FFFFF8
000420
000420
03E420
7E2420
441FE0
441020
040820
040820
020420
018620
ENDCHAR
STARTCHAR uni0928094D0925094D092F
ENCODING -1
SWIDTH 1168 0
DWIDTH 21 0
BBX 21 11 0 0
BITMAP
F9CFF8
024120
024120
004120
7FCE20
440820
440820
020820
01F7E0
000020
000020
ENDCHAR
STARTCHAR uni0928094D0925094D0935
ENCODING -1
SWIDTH 1089 0
DWIDTH 20 0
BBX 20 11 0 0
BITMAP
FBCFF0
024040
024740
004840
7FC840
440840
440840
020840
01F840
0007C0
000040
ENDCHAR
STARTCHAR uni0928094D0926094D0930
ENCODING -1
SWIDTH 734 0
DWIDTH 13 0
BBX 13 12 0 -1
BITMAP
FFF8
0010
0010
03F0
7E00
4200
4210
4210
0210
01F0
0050
0180
ENDCHAR
STARTCHAR uni0928094D0926094D0935
ENCODING -1
SWIDTH 732 0
DWIDTH 13 0
BBX 13 13 0 -2
BITMAP
FFF8
0010
0010
03F0
7E00
4200
4210
4210
0210
01F0
0210
0210
03E0
ENDCHAR
STARTCHAR uni0928094D0927094D092F
ENCODING -1
SWIDTH 1097 0
DWIDTH 20 0
BBX 20 11 0 0
BITMAP
FF3FF0
040440
040440
040440
7F9C40
441040
441040
041040
041FC0
03E040
000040
ENDCHAR
STARTCHAR uni0928094D0927094D0930
ENCODING -1
SWIDTH 783 0
DWIDTH 14 0
BBX 14 12 0 -1
BITMAP
FF3C
0408
0408
0408
7F88
4408
4408
4410
0210
03E8
0048
0180
ENDCHAR
STARTCHAR uni0928094D0927094D0935
ENCODING -1
SWIDTH 1036 0
DWIDTH 19 0
BBX 19 11 0 0
BITMAP
FF3FE0
040080
040E80
041080
7F9080
441080
441080
441080
041080
03EF80
000080
ENDCHAR
STARTCHAR uni0928094D0928094D092F
ENCODING -1
SWIDTH 1071 0
DWIDTH 19 0
BBX 20 11 0 0
BITMAP
FFFFF0
000440
000440
000440
7FF840
442040
422040
0010C0
000F40
000040
000040
ENDCHAR
STARTCHAR uni0928094D092A094D0930
ENCODING -1
SWIDTH 737 0
DWIDTH 13 0
BBX 14 11 0 0
BITMAP
FFFC
0210
0210
0210
7E10
4210
4230
41D0
0090
0110
0310
ENDCHAR
STARTCHAR uni0928094D092B094D0930
ENCODING -1
SWIDTH 975 0
DWIDTH 18 0
BBX 18 11 0 0
BITMAP
FFFFC0
021000
021E00
021100
7E1100
422100
422100
41D100
009600
011000
021000
ENDCHAR
STARTCHAR uni0928094D092D094D092F
ENCODING -1
SWIDTH 1071 0
DWIDTH 19 0
BBX 20 11 0 0
BITMAP
FC7FF0
020440
020440
020440
7E3840
43E040
422040
0210C0
000F40
000040
000040
ENDCHAR
STARTCHAR uni0928094D092D094D0935
ENCODING -1
SWIDTH 995 0
DWIDTH 18 0
BBX 18 11 0 0
BITMAP
FC7FC0
020100
021D00
021100
7E2100
43E100
422100
422100
001100
001F00
000100
ENDCHAR
STARTCHAR uni0928094D092E094D092F
ENCODING -1
SWIDTH 1071 0
DWIDTH 19 0
BBX 20 11 0 0
BITMAP
FFFFF0
020440
020440
020440
7E3840
43E040
422040
0210C0
000F40
000040
000040
ENDCHAR
STARTCHAR uni0928094D0938094D091F
ENCODING -1
SWIDTH 1113 0
DWIDTH 20 0
BBX 20 11 0 0
BITMAP
FFFFF0
008040
008040
0083C0
7C8400
43F800
420800
010820
010420
0083C0
008000
ENDCHAR
STARTCHAR uni0928094D0938094D092E094D092F
ENCODING -1
SWIDTH 1453 0
DWIDTH 26 0
BBX 26 11 0 0
BITMAP
FFFFFFC0
00840880
00840880
00840880
7C847080
47FFC080
42044080
02044180
01003E80
01000080
00800080
ENDCHAR
STARTCHAR uni0928094D0938094D092F
ENCODING -1
SWIDTH 1194 0
DWIDTH 21 0
BBX 22 11 0 0
BITMAP
FFFFFC
008110
008110
008110
7C8E10
47F810
420810
020430
0103D0
010010
008010
ENDCHAR
STARTCHAR uni092A094D0924094D092F
ENCODING -1
SWIDTH 1119 0
DWIDTH 20 0
BBX 20 11 0 0
BITMAP
FFFFF0
400220
400220
400220
41FC20
411020
221020
1E1060
020FA0
010020
018020
ENDCHAR
STARTCHAR uni092C094D091C094D092F
ENCODING -1
SWIDTH 1235 0
DWIDTH 22 0
BBX 22 11 0 0
BITMAP
FFFFFC
000088
000088
39FC88
602708
502408
482408
442218
4221E8
3FC008
000008
ENDCHAR
STARTCHAR uni092C094D0927094D0935
ENCODING -1
SWIDTH 1097 0
DWIDTH 20 0
BBX 20 11 0 0
BITMAP
FFDFF0
010040
3A0740
610840
50C840
510840
4A0840
460840
430840
3DF7C0
000040
ENDCHAR
STARTCHAR uni092C094D092D094D0930
ENCODING -1
SWIDTH 764 0
DWIDTH 14 0
BBX 14 11 0 0
BITMAP
FE7C
0210
3A10
6210
5210
5BF0
4E10
4630
4250
3C90
0110
ENDCHAR
STARTCHAR uni092C094D0932094D092F
ENCODING -1
SWIDTH 480 0
DWIDTH 9 0
BBX 24 11 0 0
BITMAP
FFFFFF
000044
380044
61FE44
6231C4
5A1104
461104
420104
4300FC
3DC004
000004
ENDCHAR
STARTCHAR uni092D094D0930094D092F
ENCODING -1
SWIDTH 830 0
DWIDTH 15 0
BBX 15 11 0 0
BITMAP
C7FE
4088
4048
4088
4388
7E08
4208
4608
09F8
1008
2008
ENDCHAR
STARTCHAR uni092E094D092A094D0930
ENCODING -1
SWIDTH 765 0
DWIDTH 14 0
BBX 14 11 0 0
BITMAP
FFFC
4210
4210
4210
4210
7E10
4210
41F0
0050
0090
0310
ENDCHAR
STARTCHAR uni092E094D092C094D092F
ENCODING -1
SWIDTH 1124 0
DWIDTH 20 0
BBX 20 11 0 0
BITMAP
FFFFF0
400220
41C220
420220
431C20
7E9020
427020
421860
0217A0
01E020
000020
ENDCHAR
STARTCHAR uni092E094D092C094D0930
ENCODING -1
SWIDTH 768 0
DWIDTH 14 0
BBX 14 12 0 -1
BITMAP
FFFC
4010
41D0
4310
4290
7E90
4250
4230
0210
01F0
0050
0180
ENDCHAR
STARTCHAR uni092E094D092D094D092F
ENCODING -1
SWIDTH 1101 0
DWIDTH 20 0
BBX 20 11 0 0
BITMAP
FE7FF0
420440
420240
420440
421C40
7FF040
421040
421040
000FC0
000040
000040
ENDCHAR
STARTCHAR uni092E094D092D094D0930
ENCODING -1
SWIDTH 759 0
DWIDTH 14 0
BBX 14 11 0 0
BITMAP
FC7C
4210
4210
4210
4210
7FF0
4210
4230
0050
0090
0110
ENDCHAR
STARTCHAR uni092E094D092D094D0935
ENCODING -1
SWIDTH 1028 0
DWIDTH 19 0
BBX 19 11 0 0
BITMAP
FE7FE0
420080
420E80
421080
421080
7FF080
421080
421080
001080
000F80
000080
ENDCHAR
STARTCHAR uni0932094D0915094D092F
ENCODING -1
SWIDTH 1534 0
DWIDTH 28 0
BBX 28 11 0 0
BITMAP
FFFFFFF0
00020440
001A0440
39A20440
4642F840
44431040
44421040
40621040
403E0FC0
38020040
00020040
ENDCHAR
STARTCHAR uni0932094D0925094D092F
ENCODING -1
SWIDTH 1397 0
DWIDTH 25 0
BBX 25 11 0 0
BITMAP
FF9CFF80
00241100
00241100
39841100
4644E100
44788100
44408100
40208300
401F7D00
38000100
00000100
ENDCHAR
STARTCHAR uni0932094D0926094D0930
ENCODING -1
SWIDTH 933 0
DWIDTH 17 0
BBX 17 12 0 -1
BITMAP
FFFF80
000200
000200
3BBE00
464000
444000
444100
404100
402200
381D00
000900
001000
ENDCHAR
STARTCHAR uni0932094D0932094D092F
ENCODING -1
SWIDTH 1476 0
DWIDTH 27 0
BBX 27 11 0 0
BITMAP
FFFFFFE0
00000880
00000880
3BBBC880
44447080
44442080
44442080
40402080
40401F80
38380080
00000080
ENDCHAR
STARTCHAR uni0932094D0935094D0921
ENCODING -1
SWIDTH 1247 0
DWIDTH 22 0
BBX 23 11 0 0
BITMAP
FFFFFE
000008
001808
3BA0F8
464100
444100
4440F8
404208
402208
381E08
0001F8
ENDCHAR
STARTCHAR uni0937094D0915094D0930
ENCODING -1
SWIDTH 1042 0
DWIDTH 19 0
BBX 19 12 0 -1
BITMAP
FFFFE0
600800
50CF80
490880
450840
430840
230840
3D0880
00FB80
002800
004800
008000
ENDCHAR
STARTCHAR uni0937094D091F094D092F
ENCODING -1
SWIDTH 997 0
DWIDTH 18 0
BBX 18 11 0 0
BITMAP
FFFFC0
610100
510100
4DF100
230900
3E0900
403100
402100
412100
411F00
3E0100
ENDCHAR
STARTCHAR uni0937094D091F094D0930
ENCODING -1
SWIDTH 493 0
DWIDTH 9 0
BBX 9 14 0 -3
BITMAP
FF80
6100
5100
4D00
2300
3E00
4000
4000
4100
4100
3E00
1400
1200
2300
ENDCHAR
STARTCHAR uni0937094D091F094D0935
ENCODING -1
SWIDTH 493 0
DWIDTH 9 0
BBX 9 14 0 -3
BITMAP
FF80
6100
5100
4D00
2300
3E00
4000
4100
4100
3E00
4200
4200
4200
3C00
ENDCHAR
STARTCHAR uni0937094D0920094D092F
ENCODING -1
SWIDTH 1006 0
DWIDTH 18 0
BBX 18 11 0 0
BITMAP
FFFFC0
7F0080
7F0080
7FF880
3F0880
3E0880
413880
412080
412100
411E80
3E0080
ENDCHAR
STARTCHAR uni0937094D0920094D0930
ENCODING -1
SWIDTH 512 0
DWIDTH 9 0
BBX 9 14 0 -3
BITMAP
FF80
7F00
7F00
7F00
3E00
3E00
4100
4100
4100
4100
3E00
1400
2200
2200
ENDCHAR
STARTCHAR uni0937094D0923094D092F
ENCODING -1
SWIDTH 1273 0
DWIDTH 23 0
BBX 23 11 0 0
BITMAP
FFFFFE
611088
511048
491088
451388
431208
231208
3CE208
0001F8
000008
000008
ENDCHAR
STARTCHAR uni0937094D092A094D0930
ENCODING -1
SWIDTH 798 0
DWIDTH 14 0
BBX 15 11 0 0
BITMAP
FFFE
6108
5108
4908
4508
4308
2318
3CE8
0028
0048
0188
ENDCHAR
STARTCHAR uni0937094D092E094D092F
ENCODING -1
SWIDTH 1121 0
DWIDTH 20 0
BBX 20 11 0 0
BITMAP
FFFFF0
610220
510220
490220
451C20
43F020
231020
3D1060
000FA0
000020
000020
ENDCHAR
STARTCHAR uni0938094D0915094D0930
ENCODING -1
SWIDTH 1084 0
DWIDTH 20 0
BBX 20 12 0 -1
BITMAP
FFFFF0
100800
106B80
108440
110840
7F0840
410840
208840
20F980
102800
184800
00C000
ENDCHAR
STARTCHAR uni0938094D0915094D0935
ENCODING -1
SWIDTH 1369 0
DWIDTH 25 0
BBX 25 11 0 0
BITMAP
FFFFFF80
10080200
106BBA00
10844200
10884200
7F084200
41084200
20884200
20884200
10783E00
18080200
ENDCHAR
STARTCHAR uni0938094D0924094D092F
ENCODING -1
SWIDTH 1185 0
DWIDTH 21 0
BBX 22 11 0 0
BITMAP
FFFFFC
100110
100110
100110
10FE10
7F8810
410810
210430
2103D0
108010
186010
ENDCHAR
STARTCHAR uni0938094D0924094D0930
ENCODING -1
SWIDTH 818 0
DWIDTH 15 0
BBX 15 11 0 0
BITMAP
FFFE
1008
1008
10F8
1108
7F08
4008
2018
2028
1048
1988
ENDCHAR
STARTCHAR uni0938094D0924094D0935
ENCODING -1
SWIDTH 1126 0
DWIDTH 20 0
BBX 21 11 0 0
BITMAP
FFFFF8
100020
100320
107C20
108420
7F0420
410420
210420
210460
1083A0
186020
ENDCHAR
STARTCHAR uni0938094D0925094D092F
ENCODING -1
SWIDTH 1303 0
DWIDTH 23 0
BBX 24 11 0 0
BITMAP
FE73FF
108844
108844
100844
10F184
7F8204
408204
20830C
207CF4
100004
180004
ENDCHAR
STARTCHAR uni0938094D092A094D0930
ENCODING -1
SWIDTH 850 0
DWIDTH 15 0
BBX 16 11 0 0
BITMAP
FFFF
1084
1084
1084
1084
7F84
408C
2074
2024
1064
18C4
ENDCHAR
STARTCHAR uni0938094D092E094D092F
ENCODING -1
SWIDTH 1189 0
DWIDTH 21 0
BBX 22 11 0 0
BITMAP
FFFFFC
108110
108110
108110
108E10
7FF810
408810
208430
2003D0
100010
180010
ENDCHAR
STARTCHAR uni093F.a01
ENCODING -1
SWIDTH 231 0
DWIDTH 4 0
BBX 9 15 0 0
BITMAP
3F00
2080
2080
2000
F000
2000
2000
2000
2000
2000
2000
2000
2000
2000
2000
ENDCHAR
STARTCHAR uni093F.a04
ENCODING -1
SWIDTH 231 0
DWIDTH 4 0
BBX 11 15 0 0
BITMAP
3FE0
2020
2020
2000
F000
2000
2000
2000
2000
2000
2000
2000
2000
2000
2000
ENDCHAR
STARTCHAR uni093F.a05
ENCODING -1
SWIDTH 231 0
DWIDTH 4 0
BBX 12 15 0 0
BITMAP
3FF0
2010
2010
2000
F000
2000
2000
2000
2000
2000
2000
2000
2000
2000
2000
ENDCHAR
STARTCHAR uni093F.a06
ENCODING -1
SWIDTH 231 0
DWIDTH 4 0
BBX 13 15 0 0
BITMAP
3FF0
2008
2008
2000
F000
2000
2000
2000
2000
2000
2000
2000
2000
2000
2000
ENDCHAR
STARTCHAR uni093F.a07
ENCODING -1
SWIDTH 231 0
DWIDTH 4 0
BBX 14 15 0 0
BITMAP
3FF8
2004
2004
2000
F000
2000
2000
2000
2000
2000
2000
2000
2000
2000
2000
ENDCHAR
STARTCHAR uni093F.a08
ENCODING -1
SWIDTH 231 0
DWIDTH 4 0
BBX 15 15 0 0
BITMAP
3FFC
2002
2002
2000
F000
2000
2000
2000
2000
2000
2000
2000
2000
2000
2000
ENDCHAR
STARTCHAR uni093F.a09
ENCODING -1
SWIDTH 231 0
DWIDTH 4 0
BBX 16 15 0 0
BITMAP
3FFE
2001
2001
2000
F000
2000
2000
2000
2000
2000
2000
2000
2000
2000
2000
ENDCHAR
STARTCHAR uni093F.a10
ENCODING -1
SWIDTH 231 0
DWIDTH 4 0
BBX 16 15 0 0
BITMAP
3FFF
2001
2001
2000
F000
2000
2000
2000
2000
2000
2000
2000
2000
2000
2000
ENDCHAR
STARTCHAR uni093F.a11
ENCODING -1
SWIDTH 231 0
DWIDTH 4 0
BBX 17 15 0 0
BITMAP
3FFF80
200080
200080
200000
F00000
200000
200000
200000
200000
200000
200000
200000
200000
200000
200000
ENDCHAR
STARTCHAR uni093F.a12
ENCODING -1
SWIDTH 231 0
DWIDTH 4 0
BBX 18 15 0 0
BITMAP
3FFF80
200040
200040
200000
F00000
200000
200000
200000
200000
200000
200000
200000
200000
200000
200000
ENDCHAR
STARTCHAR uni093F.a13
ENCODING -1
SWIDTH 231 0
DWIDTH 4 0
BBX 19 15 0 0
BITMAP
3FFFC0
200020
200020
200000
F00000
200000
200000
200000
200000
200000
200000
200000
200000
200000
200000
ENDCHAR
STARTCHAR uni093F.a14
ENCODING -1
SWIDTH 231 0
DWIDTH 4 0
BBX 20 15 0 0
BITMAP
3FFFE0
200010
200010
200000
F00000
200000
200000
200000
200000
200000
200000
200000
200000
200000
200000
ENDCHAR
STARTCHAR uni093F.a15
ENCODING -1
SWIDTH 231 0
DWIDTH 4 0
BBX 21 15 0 0
BITMAP
3FFFF0
200008
200008
200000
F00000
200000
200000
200000
200000
200000
200000
200000
200000
200000
200000
ENDCHAR
STARTCHAR uni093F.a16
ENCODING -1
SWIDTH 231 0
DWIDTH 4 0
BBX 21 15 0 0
BITMAP
3FFFF8
200008
200008
200000
F00000
200000
200000
200000
200000
200000
200000
200000
200000
200000
200000
ENDCHAR
STARTCHAR uni093F.a17
ENCODING -1
SWIDTH 231 0
DWIDTH 4 0
BBX 22 15 0 0
BITMAP
3FFFFC
200004
200004
200000
F00000
200000
200000
200000
200000
200000
200000
200000
200000
200000
200000
ENDCHAR
STARTCHAR uni093F.a18
ENCODING -1
SWIDTH 231 0
DWIDTH 4 0
BBX 23 15 0 0
BITMAP
3FFFFE
200002
200002
200000
F00000
200000
200000
200000
200000
200000
200000
200000
200000
200000
200000
ENDCHAR
STARTCHAR uni093F.a19
ENCODING -1
SWIDTH 231 0
DWIDTH 4 0
BBX 24 15 0 0
BITMAP
3FFFFE
200001
200001
200000
F00000
200000
200000
200000
200000
200000
200000
200000
200000
200000
200000
ENDCHAR
STARTCHAR uni093F.a20
ENCODING -1
SWIDTH 231 0
DWIDTH 4 0
BBX 25 15 0 0
BITMAP
3FFFFF00
20000080
20000080
20000000
F0000000
20000000
20000000
20000000
20000000
20000000
20000000
20000000
20000000
20000000
20000000
ENDCHAR
STARTCHAR uni093F.a21
ENCODING -1
SWIDTH 231 0
DWIDTH 4 0
BBX 26 15 0 0
BITMAP
3FFFFF80
20000040
20000040
20000000
F0000000
20000000
20000000
20000000
20000000
20000000
20000000
20000000
20000000
20000000
20000000
ENDCHAR
STARTCHAR uni093F.a22
ENCODING -1
SWIDTH 231 0
DWIDTH 4 0
BBX 27 15 0 0
BITMAP
3FFFFFC0
20000020
20000020
20000000
F0000000
20000000
20000000
20000000
20000000
20000000
20000000
20000000
20000000
20000000
20000000
ENDCHAR
STARTCHAR uni093F.a23
ENCODING -1
SWIDTH 231 0
DWIDTH 4 0
BBX 27 15 0 0
BITMAP
3FFFFFE0
20000020
20000020
20000000
F0000000
20000000
20000000
20000000
20000000
20000000
20000000
20000000
20000000
20000000
20000000
ENDCHAR
STARTCHAR uni093F.a24
ENCODING -1
SWIDTH 231 0
DWIDTH 4 0
BBX 28 15 0 0
BITMAP
3FFFFFF0
20000010
20000010
20000000
F0000000
20000000
20000000
20000000
20000000
20000000
20000000
20000000
20000000
20000000
20000000
ENDCHAR
STARTCHAR uni093F.a25
ENCODING -1
SWIDTH 231 0
DWIDTH 4 0
BBX 29 15 0 0
BITMAP
3FFFFFF0
20000008
20000008
20000000
F0000000
20000000
20000000
20000000
20000000
20000000
20000000
20000000
20000000
20000000
20000000
ENDCHAR
STARTCHAR uni093F.a26
ENCODING -1
SWIDTH 231 0
DWIDTH 4 0
BBX 30 15 0 0
BITMAP
3FFFFFF8
20000004
20000004
20000000
F0000000
20000000
20000000
20000000
20000000
20000000
20000000
20000000
20000000
20000000
20000000
ENDCHAR
STARTCHAR uni093F.a32
ENCODING -1
SWIDTH 231 0
DWIDTH 4 0
BBX 36 15 0 0
BITMAP
3FFFFFFFF0
2000000010
2000000010
2000000000
F000000000
2000000000
2000000000
2000000000
2000000000
2000000000
2000000000
2000000000
2000000000
2000000000
2000000000
ENDCHAR
STARTCHAR uni093E0901
ENCODING -1
SWIDTH 231 0
DWIDTH 4 0
BBX 6 15 -1 0
BITMAP
10
84
78
00
78
10
10
10
10
10
10
10
10
10
10
ENDCHAR
STARTCHAR dvNG_GA
ENCODING -1
SWIDTH 562 0
DWIDTH 10 0
BBX 10 16 0 -5
BITMAP
FFC0
0100
3F00
4000
4040
4000
3F00
0100
4100
3F00
1200
1200
1200
6200
0200
0200
ENDCHAR
STARTCHAR dvNG_MA
ENCODING -1
SWIDTH 728 0
DWIDTH 13 0
BBX 13 15 0 -4
BITMAP
FFF8
0210
3E10
4090
4010
3E10
0210
4110
4210
3E10
0410
07E0
0410
0410
0010
ENDCHAR
STARTCHAR dvNY_CA
ENCODING -1
SWIDTH 963 0
DWIDTH 17 0
BBX 18 11 0 0
BITMAP
FFFFC0
000100
000100
70F900
084100
084100
0F4100
084300
083D00
700100
000100
ENDCHAR
STARTCHAR dvTT_GA
ENCODING -1
SWIDTH 510 0
DWIDTH 9 0
BBX 10 15 0 -4
BITMAP
FFC0
0200
0200
3E00
4000
4000
4100
4100
3E00
1200
1200
1200
6200
0200
0200
ENDCHAR
STARTCHAR dvTTH_TTHA
ENCODING -1
SWIDTH 511 0
DWIDTH 9 0
BBX 9 16 0 -5
BITMAP
FF80
0200
0200
3E00
4100
4100
4100
4100
3E00
0200
3E00
4100
4100
4100
4100
3E00
ENDCHAR
STARTCHAR dvDD_GA
ENCODING -1
SWIDTH 541 0
DWIDTH 10 0
BBX 10 16 0 -5
BITMAP
FFC0
0100
3F00
4000
4000
4000
3F00
0100
4100
3F00
1200
1200
1200
6200
0200
0200
ENDCHAR
STARTCHAR dvDDH_DDHA
ENCODING -1
SWIDTH 487 0
DWIDTH 9 0
BBX 9 15 0 -4
BITMAP
FF80
0200
0200
3E00
4600
4900
4900
4100
3E00
2000
4600
4900
4900
4100
3E00
ENDCHAR
STARTCHAR dvSHA_MatraVocalicR
ENCODING -1
SWIDTH 558 0
DWIDTH 10 0
BBX 11 15 0 -4
BITMAP
38C0
4500
4500
4500
3900
3900
C700
0100
0100
0100
0300
0400
0400
0420
03C0
ENDCHAR
STARTCHAR dvT_KH_NA
ENCODING -1
SWIDTH 1341 0
DWIDTH 24 0
BBX 24 11 0 0
BITMAP
FFFFFF
004002
004002
3C4F02
42517C
439082
411082
411142
408E02
404002
306002
ENDCHAR
STARTCHAR dvT_S_NA
ENCODING -1
SWIDTH 1169 0
DWIDTH 21 0
BBX 21 11 0 0
BITMAP
FFFFF8
004020
004020
3E4020
4243E0
43FC20
410420
410020
408020
404020
304020
ENDCHAR
ENDFONT
